<?xml version="1.0" encoding="utf-8"?>
<!-- Generator: Adobe Illustrator 16.0.4, SVG Export Plug-In . SVG Version: 6.00 Build 0)  -->
<!DOCTYPE svg PUBLIC "-//W3C//DTD SVG 1.1//EN" "http://www.w3.org/Graphics/SVG/1.1/DTD/svg11.dtd">
<svg version="1.1" id="Ebene_1" xmlns="http://www.w3.org/2000/svg" xmlns:xlink="http://www.w3.org/1999/xlink" x="0px" y="0px"
	 width="141.732px" height="141.732px" viewBox="0 0 141.732 141.732" enable-background="new 0 0 141.732 141.732"
	 xml:space="preserve">
<g>
	<defs>
		<rect id="SVGID_1_" width="141.732" height="141.732"/>
	</defs>
	<clipPath id="SVGID_2_">
		<use xlink:href="#SVGID_1_"  overflow="visible"/>
	</clipPath>
	<line clip-path="url(#SVGID_2_)" fill="none" stroke="#000000" stroke-width="2" x1="0" y1="28.346" x2="141.732" y2="28.346"/>
	<line clip-path="url(#SVGID_2_)" fill="none" stroke="#000000" stroke-width="2" x1="0" y1="113.385" x2="141.732" y2="113.385"/>
</g>
<polygon fill="none" stroke="#C20E1A" stroke-width="2" stroke-miterlimit="10" points="109.415,37.982 70.866,104.75 
	32.318,37.982 "/>
<g>
	<path fill="#C20E1A" d="M72.42,70.789h-8.68V50.853H72c4.145,0,6.356,2.324,6.356,5.768c0,2.268-1.568,3.528-2.185,3.948
		c0.812,0.504,2.464,1.54,2.464,4.34C78.636,68.717,75.976,70.789,72.42,70.789z M71.692,55.249H68.64v3.248h3.052
		c1.344,0,1.764-0.84,1.764-1.624C73.456,56.089,73.036,55.249,71.692,55.249z M71.944,62.893H68.64v3.5h3.304
		c1.344,0,1.792-0.924,1.792-1.764C73.736,63.789,73.288,62.893,71.944,62.893z"/>
</g>
</svg>
