<?xml version="1.0" encoding="UTF-8" standalone="no"?>
<!-- Generator: Adobe Illustrator 16.0.4, SVG Export Plug-In . SVG Version: 6.00 Build 0)  -->

<svg
   xmlns:dc="http://purl.org/dc/elements/1.1/"
   xmlns:cc="http://creativecommons.org/ns#"
   xmlns:rdf="http://www.w3.org/1999/02/22-rdf-syntax-ns#"
   xmlns:svg="http://www.w3.org/2000/svg"
   xmlns="http://www.w3.org/2000/svg"
   xmlns:xlink="http://www.w3.org/1999/xlink"
   xmlns:sodipodi="http://sodipodi.sourceforge.net/DTD/sodipodi-0.dtd"
   xmlns:inkscape="http://www.inkscape.org/namespaces/inkscape"
   version="1.1"
   id="Ebene_1"
   x="0px"
   y="0px"
   width="141.732px"
   height="141.732px"
   viewBox="0 0 141.732 141.732"
   enable-background="new 0 0 141.732 141.732"
   xml:space="preserve"
   inkscape:version="0.91 r13725"
   sodipodi:docname="Bereitstellungsraum_mit_Meldekopf.svg"><metadata
     id="metadata27"><rdf:RDF><cc:Work
         rdf:about=""><dc:format>image/svg+xml</dc:format><dc:type
           rdf:resource="http://purl.org/dc/dcmitype/StillImage" /><dc:title></dc:title></cc:Work></rdf:RDF></metadata><defs
     id="defs25"><clipPath
       id="SVGID_2_-9"><use
         xlink:href="#SVGID_1_"
         overflow="visible"
         id="use9-4" /></clipPath></defs><sodipodi:namedview
     pagecolor="#ffffff"
     bordercolor="#666666"
     borderopacity="1"
     objecttolerance="10"
     gridtolerance="10"
     guidetolerance="10"
     inkscape:pageopacity="0"
     inkscape:pageshadow="2"
     inkscape:window-width="640"
     inkscape:window-height="480"
     id="namedview23"
     showgrid="false"
     inkscape:zoom="1.6651145"
     inkscape:cx="79.874387"
     inkscape:cy="70.865997"
     inkscape:window-x="21"
     inkscape:window-y="107"
     inkscape:window-maximized="0"
     inkscape:current-layer="Ebene_1" /><g
     id="g3"><defs
       id="defs5"><rect
         id="SVGID_1_"
         width="141.732"
         height="141.732" /></defs><clipPath
       id="SVGID_2_"><use
         xlink:href="#SVGID_1_"
         overflow="visible"
         id="use9" /></clipPath><line
       clip-path="url(#SVGID_2_)"
       fill="none"
       stroke="#000000"
       stroke-width="2"
       x1="0"
       y1="28.346"
       x2="141.732"
       y2="28.346"
       id="line11" /><line
       clip-path="url(#SVGID_2_)"
       fill="none"
       stroke="#000000"
       stroke-width="2"
       x1="0"
       y1="113.385"
       x2="141.732"
       y2="113.385"
       id="line13" /><path
       clip-path="url(#SVGID_2_)"
       fill="#FFED00"
       d="M70.866,107.716c20.352,0,36.85-16.498,36.85-36.85   s-16.498-36.851-36.85-36.851c-20.352,0-36.85,16.499-36.85,36.851S50.514,107.716,70.866,107.716"
       id="path15" /><circle
       clip-path="url(#SVGID_2_)"
       fill="none"
       stroke="#000000"
       stroke-width="2"
       cx="70.866"
       cy="70.866"
       r="36.851"
       id="circle17" /></g><g
     id="g19"
     transform="translate(0,-18)"><path
       d="m 75.262,80.852 0,-9.548 -2.827,4.928 -3.136,0 -2.828,-4.928 0,9.548 -4.9,0 0,-19.936 4.816,0 4.48,8.792 4.479,-8.792 4.816,0 0,19.936 -4.9,0 z"
       id="path21"
       inkscape:connector-curvature="0" /></g><path
     style="fill:none;stroke:#000000;stroke-width:2"
     clip-path="url(#SVGID_2_-9)"
     d="m 42.947,57.313 0,27.584 55.839,0 0,-27.584 c -6.658,2.674 -16.692,4.378 -27.92,4.378 -11.227,0 -21.262,-1.704 -27.919,-4.378 z"
     id="path19"
     inkscape:connector-curvature="0"
     transform="matrix(0.95762897,0,0,1.0016486,3.7034155,5.6575527)" /></svg>