<?xml version="1.0" encoding="utf-8"?>
<!-- Generator: Adobe Illustrator 16.0.4, SVG Export Plug-In . SVG Version: 6.00 Build 0)  -->
<!DOCTYPE svg PUBLIC "-//W3C//DTD SVG 1.1//EN" "http://www.w3.org/Graphics/SVG/1.1/DTD/svg11.dtd">
<svg version="1.1" id="Ebene_1" xmlns="http://www.w3.org/2000/svg" xmlns:xlink="http://www.w3.org/1999/xlink" x="0px" y="0px"
	 width="141.732px" height="141.732px" viewBox="0 0 141.732 141.732" enable-background="new 0 0 141.732 141.732"
	 xml:space="preserve">
<g>
	<defs>
		<rect id="SVGID_1_" width="141.732" height="141.732"/>
	</defs>
	<clipPath id="SVGID_2_">
		<use xlink:href="#SVGID_1_"  overflow="visible"/>
	</clipPath>
	<line clip-path="url(#SVGID_2_)" fill="none" stroke="#000000" stroke-width="2" x1="0" y1="28.346" x2="141.732" y2="28.346"/>
	<line clip-path="url(#SVGID_2_)" fill="none" stroke="#000000" stroke-width="2" x1="0" y1="113.385" x2="141.732" y2="113.385"/>
</g>
<rect x="43.512" y="43.511" transform="matrix(-0.7071 -0.7071 0.7071 -0.7071 70.8663 171.0855)" fill="#FFED00" width="54.709" height="54.71"/>
<rect x="43.512" y="43.511" transform="matrix(-0.7071 -0.7071 0.7071 -0.7071 70.8663 171.0855)" fill="none" stroke="#000000" stroke-width="2" width="54.709" height="54.71"/>
<polygon points="85.456,46.771 70.867,32.182 56.275,46.771 "/>
<g>
	<path d="M56.307,80.852V60.916h13.552v4.368h-8.652v3.332h7.392v4.368h-7.392v3.5h8.652v4.368H56.307z"/>
	<path d="M73.33,80.852V60.916h4.9v15.568h8.372v4.368H73.33z"/>
</g>
</svg>
