<?xml version="1.0" encoding="UTF-8" standalone="no"?>
<!-- Generator: Adobe Illustrator 16.0.4, SVG Export Plug-In . SVG Version: 6.00 Build 0)  -->

<svg
   xmlns:dc="http://purl.org/dc/elements/1.1/"
   xmlns:cc="http://creativecommons.org/ns#"
   xmlns:rdf="http://www.w3.org/1999/02/22-rdf-syntax-ns#"
   xmlns:svg="http://www.w3.org/2000/svg"
   xmlns="http://www.w3.org/2000/svg"
   xmlns:xlink="http://www.w3.org/1999/xlink"
   xmlns:sodipodi="http://sodipodi.sourceforge.net/DTD/sodipodi-0.dtd"
   xmlns:inkscape="http://www.inkscape.org/namespaces/inkscape"
   version="1.1"
   id="Ebene_1"
   x="0px"
   y="0px"
   width="141.732px"
   height="141.732px"
   viewBox="0 0 141.732 141.732"
   enable-background="new 0 0 141.732 141.732"
   xml:space="preserve"
   inkscape:version="0.91 r13725"
   sodipodi:docname="Einsatz_Wasserfahrzeug.svg"><metadata
     id="metadata21"><rdf:RDF><cc:Work
         rdf:about=""><dc:format>image/svg+xml</dc:format><dc:type
           rdf:resource="http://purl.org/dc/dcmitype/StillImage" /><dc:title></dc:title></cc:Work></rdf:RDF></metadata><defs
     id="defs19" /><sodipodi:namedview
     pagecolor="#ffffff"
     bordercolor="#666666"
     borderopacity="1"
     objecttolerance="10"
     gridtolerance="10"
     guidetolerance="10"
     inkscape:pageopacity="0"
     inkscape:pageshadow="2"
     inkscape:window-width="1280"
     inkscape:window-height="1002"
     id="namedview17"
     showgrid="false"
     inkscape:zoom="1.6651145"
     inkscape:cx="70.865997"
     inkscape:cy="70.865997"
     inkscape:window-x="-8"
     inkscape:window-y="-8"
     inkscape:window-maximized="1"
     inkscape:current-layer="g3" /><g
     id="g3"><defs
       id="defs5"><rect
         id="SVGID_1_"
         width="141.732"
         height="141.732" /></defs><clipPath
       id="SVGID_2_"><use
         xlink:href="#SVGID_1_"
         overflow="visible"
         id="use9" /></clipPath><path
       clip-path="url(#SVGID_2_)"
       d="m 1.51,41.469 c 0.622,32.511 31.496,58.794 69.357,58.794 37.86,0 68.734,-26.283 69.356,-58.794 l -138.713,0 z"
       id="path11"
       inkscape:connector-curvature="0"
       transform="matrix(0.36527148,0,0,0.34322208,45.679,50.645182)"
       style="fill:none;stroke:#000000;stroke-width:5.43768501;stroke-miterlimit:4;stroke-dasharray:none" /><line
       clip-path="url(#SVGID_2_)"
       x1="0"
       y1="28.346"
       x2="141.732"
       y2="28.346"
       id="line13"
       stroke-width="2"
       stroke="#000000"
       fill="none" /><line
       clip-path="url(#SVGID_2_)"
       x1="0"
       y1="113.385"
       x2="141.732"
       y2="113.385"
       id="line15"
       stroke-width="2"
       stroke="#000000"
       fill="none" /><path
       style="fill:#000000;fill-opacity:1"
       d="m 17.93482,72.635951 c -0.824862,-0.443798 -1.647471,-1.35258 -2.131801,-2.355143 L 15.014368,68.6483 15.790119,68.487166 c 0.426663,-0.08867 1.385974,0.364272 2.131802,1.006399 1.92128,1.654184 6.169634,1.666078 8.229373,0.02304 1.428686,-1.13964 2.770066,-1.471508 2.770066,-0.685326 0,0.954583 -1.551106,3.059795 -2.80447,3.806334 -1.679181,1.000144 -6.321782,0.999209 -8.18207,-0.0019 z"
       id="path4421"
       inkscape:connector-curvature="0" /><path
       style="fill:#000000;fill-opacity:1"
       d="m 3.0137452,69.74424 c 0,-1.228872 1.6199807,-3.522696 3.0292189,-4.289255 1.8289687,-0.994852 5.6942359,-0.956675 7.6168019,0.07528 1.460008,0.783647 3.171374,3.123909 3.171374,4.336801 0,0.802875 -1.595684,0.693133 -1.976372,-0.135921 -0.38783,-0.844609 -1.982785,-1.73369 -3.925922,-2.188448 -1.8224372,-0.426507 -4.6570198,0.496578 -5.6725112,1.84725 -0.8837662,1.175486 -2.2425896,1.39017 -2.2425896,0.354336 z"
       id="path4423"
       inkscape:connector-curvature="0" /><path
       style="fill:#000000;fill-opacity:1"
       d="m 27.610734,68.919755 c 1.401374,-4.897956 9.975088,-5.841233 12.632587,-1.389823 0.863628,1.446603 1.010436,2.897388 0.293192,2.897388 -0.261286,0 -1.197157,-0.638522 -2.079712,-1.41895 -1.387495,-1.226925 -1.957213,-1.41894 -4.209988,-1.41894 -2.252773,0 -2.82249,0.192015 -4.209986,1.41894 -0.882554,0.780428 -1.886521,1.41895 -2.231035,1.41895 -0.598402,0 -0.607117,-0.06737 -0.195058,-1.507565 z"
       id="path4425"
       inkscape:connector-curvature="0" /><path
       style="fill:#000000;fill-opacity:1"
       d="m 17.767729,79.919547 c -0.824863,-0.443799 -1.64747,-1.35259 -2.131801,-2.355154 l -0.788651,-1.632507 0.775751,-0.161125 c 0.426663,-0.08867 1.385975,0.364263 2.131801,1.0064 1.921281,1.654174 6.169635,1.666077 8.229374,0.02303 1.428686,-1.139649 2.770065,-1.471498 2.770065,-0.685316 0,0.954574 -1.551104,3.059785 -2.804468,3.806315 -1.679182,1.000163 -6.321783,0.999218 -8.182071,-0.0019 z"
       id="path4421-7"
       inkscape:connector-curvature="0" /><path
       style="fill:#000000;fill-opacity:1"
       d="m 2.8466548,77.027826 c 0,-1.228872 1.6199798,-3.522687 3.029219,-4.289245 1.8289687,-0.994853 5.6942352,-0.956685 7.6168002,0.07528 1.46001,0.783638 3.171375,3.123909 3.171375,4.336791 0,0.802876 -1.595683,0.693143 -1.976371,-0.13591 -0.387831,-0.84461 -1.982785,-1.733691 -3.925922,-2.188448 -1.8224376,-0.426508 -4.657021,0.496578 -5.6725115,1.84725 -0.8837671,1.175475 -2.2425897,1.39017 -2.2425897,0.354325 z"
       id="path4423-4"
       inkscape:connector-curvature="0" /><path
       style="fill:#000000;fill-opacity:1"
       d="m 27.443643,76.20335 c 1.401373,-4.897965 9.975089,-5.841233 12.632587,-1.389823 0.863629,1.446603 1.010436,2.897379 0.293192,2.897379 -0.261287,0 -1.197157,-0.638522 -2.079712,-1.41895 -1.387496,-1.226925 -1.957212,-1.418941 -4.209986,-1.418941 -2.252776,0 -2.822493,0.192016 -4.209989,1.418941 -0.882554,0.780428 -1.886519,1.41895 -2.231034,1.41895 -0.598402,0 -0.607117,-0.06737 -0.195058,-1.507556 z"
       id="path4425-7"
       inkscape:connector-curvature="0" /><path
       style="fill:#000000;fill-opacity:1"
       d="m 116.2351,73.236533 c -0.82486,-0.4438 -1.64747,-1.35258 -2.1318,-2.35515 l -0.78865,-1.63251 0.77575,-0.16113 c 0.42667,-0.0887 1.38598,0.36427 2.1318,1.0064 1.92127,1.65418 6.16964,1.66608 8.22938,0.023 1.42868,-1.13964 2.77006,-1.47151 2.77006,-0.68533 0,0.95459 -1.5511,3.0598 -2.80447,3.80634 -1.67918,1.00014 -6.32178,0.99921 -8.18207,-0.002 z"
       id="path4421-2"
       inkscape:connector-curvature="0" /><path
       style="fill:#000000;fill-opacity:1"
       d="m 101.31403,70.344813 c 0,-1.22887 1.61998,-3.52269 3.02921,-4.28925 1.82897,-0.99485 5.69424,-0.95668 7.6168,0.0753 1.46001,0.78365 3.17137,3.12391 3.17137,4.3368 0,0.80288 -1.59568,0.69313 -1.97637,-0.13592 -0.38783,-0.84461 -1.98278,-1.73369 -3.92592,-2.18845 -1.82244,-0.42651 -4.65702,0.49658 -5.67251,1.84725 -0.88377,1.17549 -2.24259,1.39017 -2.24259,0.35434 z"
       id="path4423-3"
       inkscape:connector-curvature="0" /><path
       style="fill:#000000;fill-opacity:1"
       d="m 125.91102,69.520333 c 1.40137,-4.89796 9.97509,-5.84123 12.63258,-1.38982 0.86363,1.4466 1.01044,2.89738 0.2932,2.89738 -0.26129,0 -1.19716,-0.63852 -2.07972,-1.41895 -1.38749,-1.22692 -1.95721,-1.41894 -4.20998,-1.41894 -2.25278,0 -2.82249,0.19202 -4.20999,1.41894 -0.88255,0.78043 -1.88652,1.41895 -2.23103,1.41895 -0.59841,0 -0.60712,-0.0674 -0.19506,-1.50756 z"
       id="path4425-2"
       inkscape:connector-curvature="0" /><path
       style="fill:#000000;fill-opacity:1"
       d="m 116.06801,80.520123 c -0.82487,-0.4438 -1.64747,-1.35259 -2.1318,-2.35515 l -0.78866,-1.63251 0.77576,-0.16112 c 0.42665,-0.0887 1.38598,0.36426 2.13179,1.0064 1.92128,1.65417 6.16965,1.66607 8.22939,0.023 1.42868,-1.13965 2.77006,-1.4715 2.77006,-0.68532 0,0.95457 -1.5511,3.05978 -2.80447,3.80631 -1.67918,1.00017 -6.32178,0.99922 -8.18207,-0.002 z"
       id="path4421-7-3"
       inkscape:connector-curvature="0" /><path
       style="fill:#000000;fill-opacity:1"
       d="m 101.14694,77.628403 c 0,-1.22887 1.61997,-3.52269 3.02921,-4.28924 1.82897,-0.99486 5.69424,-0.95669 7.6168,0.0753 1.46001,0.78363 3.17137,3.1239 3.17137,4.33679 0,0.80287 -1.59568,0.69314 -1.97637,-0.13591 -0.38783,-0.84461 -1.98278,-1.73369 -3.92592,-2.18845 -1.82244,-0.42651 -4.65702,0.49658 -5.67251,1.84725 -0.88377,1.17547 -2.24259,1.39017 -2.24259,0.35432 z"
       id="path4423-4-4"
       inkscape:connector-curvature="0" /><path
       style="fill:#000000;fill-opacity:1"
       d="m 125.74393,76.803923 c 1.40137,-4.89796 9.97509,-5.84123 12.63258,-1.38982 0.86363,1.4466 1.01044,2.89738 0.2932,2.89738 -0.26129,0 -1.19716,-0.63852 -2.07972,-1.41895 -1.38749,-1.22692 -1.95721,-1.41894 -4.20998,-1.41894 -2.25278,0 -2.8225,0.19202 -4.20999,1.41894 -0.88256,0.78043 -1.88652,1.41895 -2.23104,1.41895 -0.5984,0 -0.60711,-0.0674 -0.19505,-1.50756 z"
       id="path4425-7-6"
       inkscape:connector-curvature="0" /></g></svg>