<?xml version="1.0" encoding="UTF-8" standalone="no"?>
<!-- Generator: Adobe Illustrator 16.0.4, SVG Export Plug-In . SVG Version: 6.00 Build 0)  -->

<svg
   xmlns:dc="http://purl.org/dc/elements/1.1/"
   xmlns:cc="http://creativecommons.org/ns#"
   xmlns:rdf="http://www.w3.org/1999/02/22-rdf-syntax-ns#"
   xmlns:svg="http://www.w3.org/2000/svg"
   xmlns="http://www.w3.org/2000/svg"
   xmlns:xlink="http://www.w3.org/1999/xlink"
   xmlns:sodipodi="http://sodipodi.sourceforge.net/DTD/sodipodi-0.dtd"
   xmlns:inkscape="http://www.inkscape.org/namespaces/inkscape"
   version="1.1"
   id="Ebene_1"
   x="0px"
   y="0px"
   width="141.732px"
   height="141.732px"
   viewBox="0 0 141.732 141.732"
   enable-background="new 0 0 141.732 141.732"
   xml:space="preserve"
   inkscape:version="0.91 r13725"
   sodipodi:docname="Fuehrungsgruppe_Bereitschaft.svg"><metadata
     id="metadata33"><rdf:RDF><cc:Work
         rdf:about=""><dc:format>image/svg+xml</dc:format><dc:type
           rdf:resource="http://purl.org/dc/dcmitype/StillImage" /><dc:title></dc:title></cc:Work></rdf:RDF></metadata><defs
     id="defs31"><clipPath
       id="SVGID_4_"><use
         xlink:href="#SVGID_3_"
         overflow="visible"
         id="use37" /></clipPath><clipPath
       id="clipPath4189"><use
         xlink:href="#SVGID_3_"
         overflow="visible"
         id="use4191" /></clipPath><clipPath
       id="SVGID_4_-9"><use
         xlink:href="#SVGID_3_"
         overflow="visible"
         id="use37-8" /></clipPath><clipPath
       id="clipPath4189-4"><use
         xlink:href="#SVGID_3_"
         overflow="visible"
         id="use4191-6" /></clipPath><clipPath
       id="SVGID_4_-4"><use
         xlink:href="#SVGID_3_"
         overflow="visible"
         id="use37-83" /></clipPath><clipPath
       id="clipPath4205"><use
         xlink:href="#SVGID_3_"
         overflow="visible"
         id="use4207" /></clipPath><pattern
       y="0"
       x="0"
       height="6"
       width="6"
       patternUnits="userSpaceOnUse"
       id="EMFhbasepattern" /></defs><sodipodi:namedview
     pagecolor="#ffffff"
     bordercolor="#666666"
     borderopacity="1"
     objecttolerance="10"
     gridtolerance="10"
     guidetolerance="10"
     inkscape:pageopacity="0"
     inkscape:pageshadow="2"
     inkscape:window-width="1280"
     inkscape:window-height="1002"
     id="namedview29"
     showgrid="false"
     inkscape:zoom="1.6651145"
     inkscape:cx="70.865997"
     inkscape:cy="94.888369"
     inkscape:window-x="-8"
     inkscape:window-y="-8"
     inkscape:window-maximized="1"
     inkscape:current-layer="Ebene_1" /><rect
     x="5.2519999"
     y="42.748001"
     width="131.229"
     height="66.030998"
     id="rect3"
     style="fill:#c20e1a;fill-opacity:1" /><rect
     x="5.2519999"
     y="42.748001"
     width="131.229"
     height="66.030998"
     id="rect5"
     style="fill:none;stroke:#000000;stroke-width:2" /><g
     id="g17"><defs
       id="defs19"><rect
         id="SVGID_1_"
         width="141.732"
         height="141.732" /></defs><clipPath
       id="SVGID_2_"><use
         xlink:href="#SVGID_1_"
         overflow="visible"
         id="use23" /></clipPath><line
       clip-path="url(#SVGID_2_)"
       fill="none"
       stroke="#000000"
       stroke-width="2"
       x1="0"
       y1="28.346"
       x2="141.732"
       y2="28.346"
       id="line25" /><line
       clip-path="url(#SVGID_2_)"
       fill="none"
       stroke="#000000"
       stroke-width="2"
       x1="0"
       y1="113.385"
       x2="141.732"
       y2="113.385"
       id="line27" /></g><path
     clip-path="url(#SVGID_4_)"
     d="m 91.417,39.69 c 2.428,0 4.395,-1.967 4.395,-4.394 0,-2.426 -1.967,-4.393 -4.395,-4.393 -2.427,0 -4.394,1.967 -4.394,4.393 0,2.427 1.967,4.394 4.394,4.394"
     id="path39"
     inkscape:connector-curvature="0" /><path
     clip-path="url(#SVGID_4_)"
     d="m 50.315,39.69 c 2.427,0 4.394,-1.967 4.394,-4.394 0,-2.426 -1.967,-4.393 -4.394,-4.393 -2.427,0 -4.394,1.967 -4.394,4.393 0,2.427 1.967,4.394 4.394,4.394"
     id="path41"
     inkscape:connector-curvature="0" /><path
     clip-path="url(#SVGID_4_-9)"
     d="m 91.417,39.69 c 2.428,0 4.395,-1.967 4.395,-4.394 0,-2.426 -1.967,-4.393 -4.395,-4.393 -2.427,0 -4.394,1.967 -4.394,4.393 0,2.427 1.967,4.394 4.394,4.394"
     id="path39-9"
     inkscape:connector-curvature="0" /><path
     clip-path="url(#SVGID_4_-9)"
     d="m 50.315,39.69 c 2.427,0 4.394,-1.967 4.394,-4.394 0,-2.426 -1.967,-4.393 -4.394,-4.393 -2.427,0 -4.394,1.967 -4.394,4.393 0,2.427 1.967,4.394 4.394,4.394"
     id="path41-9"
     inkscape:connector-curvature="0" /><path
     clip-path="url(#SVGID_4_-4)"
     d="m 91.417,39.69 c 2.428,0 4.395,-1.967 4.395,-4.394 0,-2.426 -1.967,-4.393 -4.395,-4.393 -2.427,0 -4.394,1.967 -4.394,4.393 0,2.427 1.967,4.394 4.394,4.394"
     id="path39-1"
     inkscape:connector-curvature="0" /><path
     clip-path="url(#SVGID_4_-4)"
     d="m 50.315,39.69 c 2.427,0 4.394,-1.967 4.394,-4.394 0,-2.426 -1.967,-4.393 -4.394,-4.393 -2.427,0 -4.394,1.967 -4.394,4.393 0,2.427 1.967,4.394 4.394,4.394"
     id="path41-3"
     inkscape:connector-curvature="0" /><g
     id="g4225"
     transform="matrix(0.93166577,0,0,0.89541723,-133.62073,35.265248)"><path
       style="fill:#000000;fill-opacity:1;fill-rule:nonzero;stroke:none"
       d="m 243.69756,6.0427103 c 2.96036,0 5.3657,-2.5522189 5.3657,-5.69341503 0,-3.23922547 -2.40534,-5.79144627 -5.3657,-5.79144627 -2.96037,0 -5.45806,2.5522208 -5.45806,5.79144627 0,3.14119613 2.49769,5.69341503 5.45806,5.69341503 z"
       id="path4214"
       inkscape:connector-curvature="0" /><path
       style="fill:#000000;fill-opacity:1;fill-rule:nonzero;stroke:none"
       d="m 193.00141,6.0427103 c 2.96041,0 5.3657,-2.5522189 5.3657,-5.69341503 0,-3.23922547 -2.40529,-5.79144627 -5.3657,-5.79144627 -2.96037,0 -5.45805,2.5522208 -5.45805,5.79144627 0,3.14119613 2.49768,5.69341503 5.45805,5.69341503 z"
       id="path4216"
       inkscape:connector-curvature="0" /></g><text
     xml:space="preserve"
     style="font-style:normal;font-weight:normal;font-size:40px;line-height:125%;font-family:sans-serif;letter-spacing:0px;word-spacing:0px;fill:#000000;fill-opacity:1;stroke:none;stroke-width:1px;stroke-linecap:butt;stroke-linejoin:miter;stroke-opacity:1"
     x="32.027966"
     y="88.282219"
     id="text4229"
     sodipodi:linespacing="125%"><tspan
       sodipodi:role="line"
       id="tspan4231"
       x="32.027966"
       y="88.282219"
       style="font-style:normal;font-variant:normal;font-weight:bold;font-stretch:normal;font-family:sans-serif;-inkscape-font-specification:'sans-serif Bold'">Ber</tspan></text>
</svg>