<?xml version="1.0" encoding="utf-8"?>
<!-- Generator: Adobe Illustrator 16.0.4, SVG Export Plug-In . SVG Version: 6.00 Build 0)  -->
<!DOCTYPE svg PUBLIC "-//W3C//DTD SVG 1.1//EN" "http://www.w3.org/Graphics/SVG/1.1/DTD/svg11.dtd">
<svg version="1.1" id="Ebene_1" xmlns="http://www.w3.org/2000/svg" xmlns:xlink="http://www.w3.org/1999/xlink" x="0px" y="0px"
	 width="141.732px" height="141.732px" viewBox="0 0 141.732 141.732" enable-background="new 0 0 141.732 141.732"
	 xml:space="preserve">
<g>
	<defs>
		<rect id="SVGID_1_" width="141.732" height="141.732"/>
	</defs>
	<clipPath id="SVGID_2_">
		<use xlink:href="#SVGID_1_"  overflow="visible"/>
	</clipPath>
	<path clip-path="url(#SVGID_2_)" fill="#FFFFFF" d="M17.5,110.834c2.427,0,4.394-1.967,4.394-4.395
		c0-2.426-1.967-4.393-4.394-4.393s-4.394,1.967-4.394,4.393C13.106,108.868,15.073,110.834,17.5,110.834"/>
	<circle clip-path="url(#SVGID_2_)" fill="none" stroke="#000000" stroke-width="2" cx="17.5" cy="106.441" r="4.394"/>
	<path clip-path="url(#SVGID_2_)" fill="#FFFFFF" d="M124.232,110.834c2.427,0,4.394-1.967,4.394-4.395
		c0-2.426-1.967-4.393-4.394-4.393s-4.395,1.967-4.395,4.393C119.838,108.868,121.806,110.834,124.232,110.834"/>
	<circle clip-path="url(#SVGID_2_)" fill="none" stroke="#000000" stroke-width="2" cx="124.232" cy="106.441" r="4.394"/>
	<path clip-path="url(#SVGID_2_)" fill="#C20E1A" d="M0,29.764V99.78h141.732V29.764c-16.899,6.788-42.368,11.111-70.866,11.111
		C42.369,40.875,16.899,36.551,0,29.764"/>
</g>
<g>
	<path fill="#FFFFFF" d="M15.586,58.959c-1.034,1.034-2.508,1.496-4.137,1.496H5.794V44.79h5.655c1.628,0,3.103,0.462,4.137,1.496
		c1.76,1.76,1.584,3.917,1.584,6.271C17.17,54.911,17.346,57.199,15.586,58.959z M13.452,48.486
		c-0.528-0.638-1.232-0.968-2.289-0.968h-2.31v10.209h2.31c1.056,0,1.76-0.33,2.289-0.968c0.572-0.704,0.66-1.827,0.66-4.203
		C14.112,50.18,14.024,49.19,13.452,48.486z"/>
	<path fill="#FFFFFF" d="M22.317,55.615c0,1.474,0.902,2.553,2.508,2.553c1.254,0,1.87-0.353,2.596-1.079l1.738,1.694
		c-1.166,1.167-2.288,1.804-4.356,1.804c-2.707,0-5.303-1.232-5.303-5.875c0-3.741,2.024-5.853,4.995-5.853
		c3.19,0,4.995,2.333,4.995,5.479v1.276H22.317z M26.41,52.424c-0.308-0.682-0.946-1.188-1.915-1.188s-1.606,0.506-1.914,1.188
		c-0.176,0.418-0.242,0.726-0.264,1.232h4.356C26.651,53.15,26.585,52.842,26.41,52.424z"/>
	<path fill="#FFFFFF" d="M39.015,60.456l-2.816-4.775l-1.21,1.364v3.411h-2.86V44.79h2.86v8.889l3.806-4.687h3.455l-4.092,4.621
		l4.4,6.843H39.015z"/>
	<path fill="#FFFFFF" d="M52.193,59.179c-0.704,0.748-1.87,1.408-3.564,1.408s-2.838-0.66-3.542-1.408
		c-1.034-1.078-1.298-2.376-1.298-4.466c0-2.068,0.264-3.367,1.298-4.445c0.704-0.748,1.848-1.408,3.542-1.408
		s2.86,0.66,3.564,1.408c1.034,1.078,1.298,2.376,1.298,4.445C53.491,56.803,53.227,58.101,52.193,59.179z M49.971,51.94
		c-0.33-0.33-0.77-0.506-1.342-0.506s-0.99,0.176-1.32,0.506c-0.594,0.594-0.66,1.584-0.66,2.772c0,1.188,0.066,2.2,0.66,2.794
		c0.33,0.33,0.748,0.506,1.32,0.506s1.012-0.176,1.342-0.506c0.594-0.594,0.66-1.606,0.66-2.794
		C50.631,53.524,50.564,52.535,49.971,51.94z"/>
	<path fill="#FFFFFF" d="M62.885,60.456v-6.931c0-1.562-0.99-2.09-1.892-2.09c-0.902,0-1.914,0.528-1.914,2.09v6.931h-2.86V48.992
		h2.794v1.056c0.748-0.792,1.804-1.188,2.86-1.188c1.144,0,2.068,0.374,2.706,1.012c0.924,0.924,1.167,2.002,1.167,3.256v7.327
		H62.885z"/>
	<path fill="#FFFFFF" d="M68.516,55.505v-2.663h6.777v2.663H68.516z"/>
	<path fill="#FFFFFF" d="M84.489,54.559h-3.015v5.897h-3.059V44.79h6.073c3.234,0,5.171,2.222,5.171,4.884
		C89.66,52.336,87.724,54.559,84.489,54.559z M84.335,47.518h-2.86v4.291h2.86c1.386,0,2.267-0.858,2.267-2.134
		C86.602,48.398,85.721,47.518,84.335,47.518z"/>
</g>
<line fill="none" stroke="#FFFFFF" stroke-width="2" x1="97.511" y1="61.617" x2="123.56" y2="87.666"/>
<polygon fill="#FFFFFF" points="128.456,92.562 123.633,82.222 118.115,87.739 "/>
<g>
	<defs>
		<rect id="SVGID_3_" width="141.732" height="141.732"/>
	</defs>
	<clipPath id="SVGID_4_">
		<use xlink:href="#SVGID_3_"  overflow="visible"/>
	</clipPath>
	<path clip-path="url(#SVGID_4_)" fill="#FFFFFF" d="M94.969,70.598c2.979,0,5.394-2.415,5.394-5.394s-2.415-5.393-5.394-5.393
		c-2.979,0-5.395,2.414-5.395,5.393S91.989,70.598,94.969,70.598"/>
</g>
<line fill="none" stroke="#FFFFFF" stroke-width="2" x1="121.228" y1="61.617" x2="95.179" y2="87.666"/>
<polygon fill="#FFFFFF" points="90.282,92.562 95.104,82.222 100.622,87.739 "/>
<g>
	<defs>
		<rect id="SVGID_5_" width="141.732" height="141.732"/>
	</defs>
	<clipPath id="SVGID_6_">
		<use xlink:href="#SVGID_5_"  overflow="visible"/>
	</clipPath>
	<path clip-path="url(#SVGID_6_)" fill="#FFFFFF" d="M123.77,70.598c-2.979,0-5.395-2.415-5.395-5.394s2.415-5.393,5.395-5.393
		c2.979,0,5.394,2.414,5.394,5.393S126.748,70.598,123.77,70.598"/>
	<line clip-path="url(#SVGID_6_)" fill="none" stroke="#000000" stroke-width="2" x1="0" y1="28.346" x2="141.732" y2="28.346"/>
	<line clip-path="url(#SVGID_6_)" fill="none" stroke="#000000" stroke-width="2" x1="0" y1="113.385" x2="141.732" y2="113.385"/>
</g>
</svg>
