<?xml version="1.0" encoding="utf-8"?>
<!-- Generator: Adobe Illustrator 16.0.4, SVG Export Plug-In . SVG Version: 6.00 Build 0)  -->
<!DOCTYPE svg PUBLIC "-//W3C//DTD SVG 1.1//EN" "http://www.w3.org/Graphics/SVG/1.1/DTD/svg11.dtd">
<svg version="1.1" id="Ebene_1" xmlns="http://www.w3.org/2000/svg" xmlns:xlink="http://www.w3.org/1999/xlink" x="0px" y="0px"
	 width="141.732px" height="141.732px" viewBox="0 0 141.732 141.732" enable-background="new 0 0 141.732 141.732"
	 xml:space="preserve">
<g>
	<defs>
		<rect id="SVGID_1_" width="141.732" height="141.732"/>
	</defs>
	<clipPath id="SVGID_2_">
		<use xlink:href="#SVGID_1_"  overflow="visible"/>
	</clipPath>
	<path clip-path="url(#SVGID_2_)" fill="#FFFFFF" d="M17.5,110.834c2.427,0,4.394-1.967,4.394-4.395
		c0-2.426-1.967-4.393-4.394-4.393s-4.394,1.967-4.394,4.393C13.106,108.868,15.073,110.834,17.5,110.834"/>
	<circle clip-path="url(#SVGID_2_)" fill="none" stroke="#000000" stroke-width="2" cx="17.5" cy="106.441" r="4.394"/>
	<path clip-path="url(#SVGID_2_)" fill="#FFFFFF" d="M124.232,110.834c2.427,0,4.394-1.967,4.394-4.395
		c0-2.426-1.967-4.393-4.394-4.393s-4.395,1.967-4.395,4.393C119.838,108.868,121.806,110.834,124.232,110.834"/>
	<circle clip-path="url(#SVGID_2_)" fill="none" stroke="#000000" stroke-width="2" cx="124.232" cy="106.441" r="4.394"/>
	<path clip-path="url(#SVGID_2_)" fill="#C20E1A" d="M0,29.764V99.78h141.732V29.764c-16.899,6.788-42.368,11.111-70.866,11.111
		C42.369,40.875,16.899,36.551,0,29.764"/>
</g>
<g>
	<path fill="#FFFFFF" d="M15.586,58.96c-1.034,1.034-2.508,1.496-4.137,1.496H5.794V44.79h5.655c1.628,0,3.103,0.462,4.137,1.497
		c1.76,1.76,1.584,3.917,1.584,6.271C17.17,54.911,17.346,57.2,15.586,58.96z M13.452,48.486c-0.528-0.638-1.232-0.968-2.289-0.968
		h-2.31v10.209h2.31c1.056,0,1.76-0.33,2.289-0.968c0.572-0.704,0.66-1.826,0.66-4.202C14.112,50.181,14.024,49.19,13.452,48.486z"
		/>
	<path fill="#FFFFFF" d="M20.292,60.456V44.79h3.059v12.938h7.107v2.729H20.292z"/>
	<path fill="#FFFFFF" d="M42.052,60.456l-4.026-7.129l-2.024,2.42v4.708h-3.059V44.79h3.059v6.821l5.523-6.821h3.718l-5.193,6.227
		l5.567,9.439H42.052z"/>
</g>
<line fill="none" stroke="#FFFFFF" stroke-width="3.34" x1="64.063" y1="90.993" x2="102.175" y2="63.367"/>
<rect x="102.582" y="46.673" fill="none" stroke="#FFFFFF" stroke-width="3.34" width="17.123" height="17.123"/>
<g>
	<defs>
		<rect id="SVGID_3_" width="141.732" height="141.732"/>
	</defs>
	<clipPath id="SVGID_4_">
		<use xlink:href="#SVGID_3_"  overflow="visible"/>
	</clipPath>
	<line clip-path="url(#SVGID_4_)" fill="none" stroke="#000000" stroke-width="2" x1="0" y1="28.346" x2="141.732" y2="28.346"/>
	<line clip-path="url(#SVGID_4_)" fill="none" stroke="#000000" stroke-width="2" x1="0" y1="113.385" x2="141.732" y2="113.385"/>
</g>
</svg>
