<?xml version="1.0" encoding="UTF-8" standalone="no"?>
<!-- Generator: Adobe Illustrator 16.0.4, SVG Export Plug-In . SVG Version: 6.00 Build 0)  -->

<svg
   xmlns:dc="http://purl.org/dc/elements/1.1/"
   xmlns:cc="http://creativecommons.org/ns#"
   xmlns:rdf="http://www.w3.org/1999/02/22-rdf-syntax-ns#"
   xmlns:svg="http://www.w3.org/2000/svg"
   xmlns="http://www.w3.org/2000/svg"
   xmlns:xlink="http://www.w3.org/1999/xlink"
   xmlns:sodipodi="http://sodipodi.sourceforge.net/DTD/sodipodi-0.dtd"
   xmlns:inkscape="http://www.inkscape.org/namespaces/inkscape"
   version="1.1"
   id="Ebene_1"
   x="0px"
   y="0px"
   width="141.732px"
   height="141.732px"
   viewBox="0 0 141.732 141.732"
   enable-background="new 0 0 141.732 141.732"
   xml:space="preserve"
   inkscape:version="0.91 r13725"
   sodipodi:docname="FW_ELW1.svg"><metadata
     id="metadata47"><rdf:RDF><cc:Work
         rdf:about=""><dc:format>image/svg+xml</dc:format><dc:type
           rdf:resource="http://purl.org/dc/dcmitype/StillImage" /></cc:Work></rdf:RDF></metadata><defs
     id="defs45"><clipPath
       id="SVGID_2_-0"><use
         xlink:href="#SVGID_1_"
         overflow="visible"
         id="use11" /></clipPath><clipPath
       id="clipPath4165"><use
         xlink:href="#SVGID_1_"
         overflow="visible"
         id="use4167" /></clipPath><clipPath
       id="clipPath4169"><use
         xlink:href="#SVGID_1_"
         overflow="visible"
         id="use4171" /></clipPath></defs><sodipodi:namedview
     pagecolor="#ffffff"
     bordercolor="#666666"
     borderopacity="1"
     objecttolerance="10"
     gridtolerance="10"
     guidetolerance="10"
     inkscape:pageopacity="0"
     inkscape:pageshadow="2"
     inkscape:window-width="1280"
     inkscape:window-height="1002"
     id="namedview43"
     showgrid="false"
     inkscape:zoom="1.6651145"
     inkscape:cx="70.865997"
     inkscape:cy="70.865997"
     inkscape:window-x="1272"
     inkscape:window-y="-8"
     inkscape:window-maximized="1"
     inkscape:current-layer="Ebene_1" /><g
     id="g3"><defs
       id="defs5"><rect
         id="SVGID_1_"
         width="141.732"
         height="141.732" /></defs><clipPath
       id="SVGID_2_"><use
         xlink:href="#SVGID_1_"
         overflow="visible"
         id="use9" /></clipPath><path
       clip-path="url(#SVGID_2_)"
       fill="#FFFFFF"
       d="M17.5,110.834c2.427,0,4.394-1.967,4.394-4.395   c0-2.426-1.967-4.393-4.394-4.393s-4.394,1.967-4.394,4.393C13.106,108.868,15.073,110.834,17.5,110.834"
       id="path11" /><circle
       clip-path="url(#SVGID_2_)"
       fill="none"
       stroke="#000000"
       stroke-width="2"
       cx="17.5"
       cy="106.441"
       r="4.394"
       id="circle13" /><path
       clip-path="url(#SVGID_2_)"
       fill="#FFFFFF"
       d="M124.232,110.834c2.427,0,4.394-1.967,4.394-4.395   c0-2.426-1.967-4.393-4.394-4.393s-4.395,1.967-4.395,4.393C119.838,108.868,121.806,110.834,124.232,110.834"
       id="path15" /><circle
       clip-path="url(#SVGID_2_)"
       fill="none"
       stroke="#000000"
       stroke-width="2"
       cx="124.232"
       cy="106.441"
       r="4.394"
       id="circle17" /><path
       clip-path="url(#SVGID_2_)"
       fill="#C20E1A"
       d="M0,29.764V99.78h141.732V29.764c-16.899,6.788-42.368,11.111-70.866,11.111   C42.369,40.875,16.899,36.551,0,29.764"
       id="path19" /></g><g
     id="g21"><path
       fill="#FFFFFF"
       d="M5.794,60.456V44.79h10.32v2.728H8.853v3.675h6.183v2.728H8.853v3.807h7.261v2.729H5.794z"
       id="path23" /><path
       fill="#FFFFFF"
       d="M19.104,60.456V44.79h3.059v12.938h7.107v2.729H19.104z"
       id="path25" /><path
       fill="#FFFFFF"
       d="M44.252,60.456H41.7l-2.882-9.505l-2.882,9.505h-2.553L29.202,44.79h3.19l2.42,9.879l2.86-9.879h2.289   l2.86,9.879l2.442-9.879h3.19L44.252,60.456z"
       id="path27" /><path
       fill="#FFFFFF"
       d="M59.145,60.456V47.87l-3.19,2.772v-3.081l3.19-2.772h2.861v15.666H59.145z"
       id="path29" /></g><g
     id="g31"><defs
       id="defs33"><rect
         id="SVGID_3_"
         width="141.732"
         height="141.732" /></defs><clipPath
       id="SVGID_4_"><use
         xlink:href="#SVGID_3_"
         overflow="visible"
         id="use37" /></clipPath><line
       clip-path="url(#SVGID_4_)"
       fill="none"
       stroke="#000000"
       stroke-width="2"
       x1="0"
       y1="28.346"
       x2="141.732"
       y2="28.346"
       id="line39" /><line
       clip-path="url(#SVGID_4_)"
       fill="none"
       stroke="#000000"
       stroke-width="2"
       x1="0"
       y1="113.385"
       x2="141.732"
       y2="113.385"
       id="line41" /></g><g
     id="g4197"><line
       transform="matrix(0.99434853,0,0,1,0.53647,-5.212313)"
       id="line17"
       y2="70.848999"
       x2="140.66901"
       y1="70.848999"
       x1="-1.063"
       clip-path="url(#SVGID_2_-0)"
       style="fill:none;stroke:#ffffff;stroke-width:2.43000007" /><line
       transform="matrix(0.99434853,0,0,1,0.53647,-5.212313)"
       id="line19"
       y2="35.587002"
       x2="141.903"
       y1="70.788002"
       x1="106.702"
       clip-path="url(#SVGID_2_-0)"
       style="fill:none;stroke:#ffffff;stroke-width:2.43000007" /><line
       transform="matrix(0.99434853,0,0,1,0.53647,-5.212313)"
       id="line21"
       y2="70.911003"
       x2="106.702"
       y1="106.145"
       x1="141.937"
       clip-path="url(#SVGID_2_-0)"
       style="fill:none;stroke:#ffffff;stroke-width:2.43000007" /></g></svg>