<?xml version="1.0" encoding="utf-8"?>
<!-- Generator: Adobe Illustrator 16.0.4, SVG Export Plug-In . SVG Version: 6.00 Build 0)  -->
<!DOCTYPE svg PUBLIC "-//W3C//DTD SVG 1.1//EN" "http://www.w3.org/Graphics/SVG/1.1/DTD/svg11.dtd">
<svg version="1.1" id="Ebene_1" xmlns="http://www.w3.org/2000/svg" xmlns:xlink="http://www.w3.org/1999/xlink" x="0px" y="0px"
	 width="141.732px" height="141.732px" viewBox="0 0 141.732 141.732" enable-background="new 0 0 141.732 141.732"
	 xml:space="preserve">
<g>
	<defs>
		<rect id="SVGID_1_" width="141.732" height="141.732"/>
	</defs>
	<clipPath id="SVGID_2_">
		<use xlink:href="#SVGID_1_"  overflow="visible"/>
	</clipPath>
	<path clip-path="url(#SVGID_2_)" fill="#FFFFFF" d="M17.5,110.834c2.427,0,4.394-1.967,4.394-4.395
		c0-2.426-1.967-4.393-4.394-4.393s-4.394,1.967-4.394,4.393C13.106,108.868,15.073,110.834,17.5,110.834"/>
	<circle clip-path="url(#SVGID_2_)" fill="none" stroke="#000000" stroke-width="2" cx="17.5" cy="106.441" r="4.394"/>
	<path clip-path="url(#SVGID_2_)" fill="#FFFFFF" d="M124.232,110.834c2.427,0,4.394-1.967,4.394-4.395
		c0-2.426-1.967-4.393-4.394-4.393s-4.395,1.967-4.395,4.393C119.838,108.868,121.806,110.834,124.232,110.834"/>
	<circle clip-path="url(#SVGID_2_)" fill="none" stroke="#000000" stroke-width="2" cx="124.232" cy="106.441" r="4.394"/>
	<path clip-path="url(#SVGID_2_)" fill="#C20E1A" d="M0,29.764V99.78h141.732V29.764c-16.899,6.788-42.368,11.111-70.866,11.111
		C42.369,40.875,16.899,36.551,0,29.764"/>
</g>
<g>
	<path fill="#FFFFFF" d="M15.454,58.805c-1.254,1.298-2.75,1.782-4.423,1.782c-1.716,0-3.125-0.616-4.225-1.716
		c-1.584-1.584-1.54-3.543-1.54-6.249c0-2.707-0.044-4.665,1.54-6.249c1.1-1.1,2.464-1.716,4.225-1.716
		c3.63,0,5.479,2.376,5.897,5.017h-3.081c-0.352-1.474-1.254-2.288-2.816-2.288c-0.836,0-1.518,0.33-1.958,0.836
		c-0.594,0.66-0.749,1.386-0.749,4.401c0,3.014,0.154,3.762,0.749,4.422c0.44,0.506,1.122,0.814,1.958,0.814
		c0.924,0,1.672-0.33,2.178-0.88c0.506-0.572,0.704-1.276,0.704-2.09v-0.594h-2.882v-2.552h5.919v2.289
		C16.95,56.297,16.554,57.661,15.454,58.805z"/>
	<path fill="#FFFFFF" d="M33.208,60.456h-2.552l-2.882-9.505l-2.882,9.505h-2.553L18.158,44.79h3.19l2.42,9.879l2.86-9.879h2.289
		l2.86,9.879l2.442-9.879h3.19L33.208,60.456z"/>
	<path fill="#FFFFFF" d="M38.838,55.505v-2.663h6.777v2.663H38.838z"/>
	<path fill="#FFFFFF" d="M48.738,60.456V44.79h3.059v12.938h7.107v2.729H48.738z"/>
	<path fill="#FFFFFF" d="M65.019,60.456V47.87l-3.19,2.772v-3.081l3.19-2.772h2.861v15.666H65.019z"/>
</g>
<g>
	<defs>
		<rect id="SVGID_3_" width="141.732" height="141.732"/>
	</defs>
	<clipPath id="SVGID_4_">
		<use xlink:href="#SVGID_3_"  overflow="visible"/>
	</clipPath>
	<line clip-path="url(#SVGID_4_)" fill="none" stroke="#000000" stroke-width="2" x1="0" y1="28.346" x2="141.732" y2="28.346"/>
	<line clip-path="url(#SVGID_4_)" fill="none" stroke="#000000" stroke-width="2" x1="0" y1="113.385" x2="141.732" y2="113.385"/>
</g>
</svg>
