<?xml version="1.0" encoding="utf-8"?>
<!-- Generator: Adobe Illustrator 16.0.4, SVG Export Plug-In . SVG Version: 6.00 Build 0)  -->
<!DOCTYPE svg PUBLIC "-//W3C//DTD SVG 1.1//EN" "http://www.w3.org/Graphics/SVG/1.1/DTD/svg11.dtd">
<svg version="1.1" id="Ebene_1" xmlns="http://www.w3.org/2000/svg" xmlns:xlink="http://www.w3.org/1999/xlink" x="0px" y="0px"
	 width="141.732px" height="141.732px" viewBox="0 0 141.732 141.732" enable-background="new 0 0 141.732 141.732"
	 xml:space="preserve">
<rect y="43.37" fill="#C20E1A" width="141.732" height="70.016"/>
<g>
	<defs>
		<rect id="SVGID_1_" width="141.732" height="141.732"/>
	</defs>
	<clipPath id="SVGID_2_">
		<use xlink:href="#SVGID_1_"  overflow="visible"/>
	</clipPath>
	<path clip-path="url(#SVGID_2_)" d="M91.417,40.69c2.428,0,4.395-1.967,4.395-4.394c0-2.426-1.967-4.393-4.395-4.393
		c-2.427,0-4.394,1.967-4.394,4.393C87.023,38.723,88.99,40.69,91.417,40.69"/>
	<path clip-path="url(#SVGID_2_)" d="M50.315,40.69c2.427,0,4.394-1.967,4.394-4.394c0-2.426-1.967-4.393-4.394-4.393
		c-2.427,0-4.394,1.967-4.394,4.393C45.921,38.723,47.888,40.69,50.315,40.69"/>
	<path clip-path="url(#SVGID_2_)" d="M70.866,40.69c2.427,0,4.394-1.967,4.394-4.394c0-2.426-1.967-4.393-4.394-4.393
		c-2.427,0-4.394,1.967-4.394,4.393C66.472,38.723,68.439,40.69,70.866,40.69"/>
	<line clip-path="url(#SVGID_2_)" fill="none" stroke="#FFFFFF" stroke-width="3" x1="0" y1="78.316" x2="142.651" y2="78.316"/>
	
		<line clip-path="url(#SVGID_2_)" fill="none" stroke="#FFFFFF" stroke-width="3" x1="101.436" y1="77.978" x2="142.771" y2="44.41"/>
	
		<line clip-path="url(#SVGID_2_)" fill="none" stroke="#FFFFFF" stroke-width="3" x1="142.771" y1="112.221" x2="101.435" y2="78.653"/>
	<line clip-path="url(#SVGID_2_)" fill="none" stroke="#000000" stroke-width="2" x1="0" y1="28.346" x2="141.732" y2="28.346"/>
	<line clip-path="url(#SVGID_2_)" fill="none" stroke="#000000" stroke-width="2" x1="0" y1="113.385" x2="141.732" y2="113.385"/>
</g>
<g>
	<path fill="#FFFFFF" d="M16.32,67.204H9.763V51.538h6.293c3.059,0,4.841,1.716,4.841,4.4c0,1.738-1.144,2.86-1.937,3.234
		c0.946,0.44,2.156,1.43,2.156,3.521C21.117,65.62,19.115,67.204,16.32,67.204z M15.814,54.266h-2.992v3.609h2.992
		c1.298,0,2.024-0.727,2.024-1.805S17.112,54.266,15.814,54.266z M16.012,60.625h-3.19v3.851h3.19c1.386,0,2.046-0.88,2.046-1.936
		S17.398,60.625,16.012,60.625z"/>
	<path fill="#FFFFFF" d="M27.297,54.266v3.851h6.183v2.729h-6.183v6.359h-3.059V51.538h10.32v2.728H27.297z"/>
</g>
</svg>
