<?xml version="1.0" encoding="UTF-8" standalone="no"?>
<!-- Generator: Adobe Illustrator 16.0.4, SVG Export Plug-In . SVG Version: 6.00 Build 0)  -->

<svg
   xmlns:dc="http://purl.org/dc/elements/1.1/"
   xmlns:cc="http://creativecommons.org/ns#"
   xmlns:rdf="http://www.w3.org/1999/02/22-rdf-syntax-ns#"
   xmlns:svg="http://www.w3.org/2000/svg"
   xmlns="http://www.w3.org/2000/svg"
   xmlns:xlink="http://www.w3.org/1999/xlink"
   xmlns:sodipodi="http://sodipodi.sourceforge.net/DTD/sodipodi-0.dtd"
   xmlns:inkscape="http://www.inkscape.org/namespaces/inkscape"
   version="1.1"
   id="Ebene_1"
   x="0px"
   y="0px"
   width="141.732px"
   height="141.732px"
   viewBox="0 0 141.732 141.732"
   enable-background="new 0 0 141.732 141.732"
   xml:space="preserve"
   inkscape:version="0.91 r13725"
   sodipodi:docname="FW_LG_Taucher.svg"><metadata
     id="metadata31"><rdf:RDF><cc:Work
         rdf:about=""><dc:format>image/svg+xml</dc:format><dc:type
           rdf:resource="http://purl.org/dc/dcmitype/StillImage" /><dc:title></dc:title></cc:Work></rdf:RDF></metadata><defs
     id="defs29"><clipPath
       id="SVGID_4_-0"><rect
         y="0"
         x="0"
         id="use27"
         width="141.73199"
         height="141.73199" /></clipPath><defs
       id="defs7"><rect
         height="141.732"
         width="141.732"
         id="SVGID_1_" /></defs><clipPath
       id="SVGID_2_"><use
         id="use11"
         overflow="visible"
         xlink:href="#SVGID_1_" /></clipPath></defs><sodipodi:namedview
     pagecolor="#ffffff"
     bordercolor="#666666"
     borderopacity="1"
     objecttolerance="10"
     gridtolerance="10"
     guidetolerance="10"
     inkscape:pageopacity="0"
     inkscape:pageshadow="2"
     inkscape:window-width="1280"
     inkscape:window-height="1002"
     id="namedview27"
     showgrid="false"
     inkscape:zoom="1.6651145"
     inkscape:cx="92.313768"
     inkscape:cy="70.865997"
     inkscape:window-x="1272"
     inkscape:window-y="-8"
     inkscape:window-maximized="1"
     inkscape:current-layer="Ebene_1" /><rect
     y="43.37"
     fill="#C20E1A"
     width="141.732"
     height="70.016"
     id="rect3" /><path
     inkscape:connector-curvature="0"
     id="path13"
     d="m 91.417,40.69 c 2.428,0 4.395,-1.967 4.395,-4.394 0,-2.426 -1.967,-4.393 -4.395,-4.393 -2.427,0 -4.394,1.967 -4.394,4.393 0,2.427 1.967,4.394 4.394,4.394"
     clip-path="url(#SVGID_2_)" /><path
     inkscape:connector-curvature="0"
     id="path15"
     d="m 50.315,40.69 c 2.427,0 4.394,-1.967 4.394,-4.394 0,-2.426 -1.967,-4.393 -4.394,-4.393 -2.427,0 -4.394,1.967 -4.394,4.393 0,2.427 1.967,4.394 4.394,4.394"
     clip-path="url(#SVGID_2_)" /><line
     style="fill:none;stroke:#000000;stroke-width:2"
     id="line23"
     y2="28.346001"
     x2="141.73199"
     y1="28.346001"
     x1="0"
     clip-path="url(#SVGID_2_)" /><line
     style="fill:none;stroke:#000000;stroke-width:2"
     id="line25"
     y2="113.385"
     x2="141.73199"
     y1="113.385"
     x1="0"
     clip-path="url(#SVGID_2_)" /><path
     style="fill:#ffffff;fill-opacity:1;stroke:#ffffff;stroke-width:0.78847313;stroke-opacity:1"
     d="m 64.638144,57.306324 c -1.310043,-0.510723 -2.61651,-1.556572 -3.385724,-2.710333 l -1.252546,-1.878706 1.232051,-0.185429 c 0.67763,-0.101987 2.201214,0.419194 3.385733,1.158176 3.051386,1.903648 9.798636,1.917336 13.069919,0.02652 2.26904,-1.311521 4.39943,-1.693433 4.39943,-0.788681 0,1.098543 -2.463475,3.521252 -4.454067,4.38037 -2.666888,1.150994 -10.040273,1.149912 -12.994796,-0.0019 z"
     id="path4421"
     inkscape:connector-curvature="0" /><path
     style="fill:#ffffff;fill-opacity:1;stroke:#ffffff;stroke-width:0.78847313;stroke-opacity:1"
     d="m 40.940456,53.978505 c 0,-1.414204 2.572857,-4.053971 4.811014,-4.936122 2.904773,-1.144907 9.043601,-1.100963 12.097029,0.08657 2.318781,0.901829 5.036778,3.595032 5.036778,4.990844 0,0.923959 -2.534267,0.797675 -3.138871,-0.15641 -0.615962,-0.971991 -3.149071,-1.995162 -6.235161,-2.518499 -2.894405,-0.490828 -7.396296,0.571467 -9.009103,2.125846 -1.403599,1.352752 -3.561686,1.599825 -3.561686,0.407768 z"
     id="path4423"
     inkscape:connector-curvature="0" /><path
     style="fill:#ffffff;fill-opacity:1;stroke:#ffffff;stroke-width:0.78847313;stroke-opacity:1"
     d="m 80.005466,53.029684 c 2.225663,-5.63665 15.842464,-6.722182 20.063104,-1.599439 1.37162,1.664779 1.60478,3.33436 0.46565,3.33436 -0.41497,0 -1.901328,-0.734825 -3.303003,-1.632946 -2.203625,-1.411967 -3.108451,-1.632946 -6.686312,-1.632946 -3.577862,0 -4.482687,0.220979 -6.686312,1.632946 -1.401675,0.898121 -2.996179,1.632946 -3.543342,1.632946 -0.95038,0 -0.96422,-0.07753 -0.309785,-1.734921 z"
     id="path4425"
     inkscape:connector-curvature="0" /><path
     style="fill:#ffffff;fill-opacity:1;stroke:#ffffff;stroke-width:0.78847313;stroke-opacity:1"
     d="M 64.372773,65.688381 C 63.062729,65.177658 61.756254,64.131809 60.98704,62.978047 l -1.252537,-1.878705 1.23205,-0.185429 c 0.677631,-0.101987 2.201206,0.419193 3.385733,1.158175 3.051386,1.903649 9.798636,1.917337 13.06992,0.02652 2.269039,-1.311521 4.399421,-1.693433 4.399421,-0.788681 0,1.098543 -2.463467,3.521253 -4.454066,4.38037 -2.66688,1.150995 -10.040274,1.149912 -12.994788,-0.0019 z"
     id="path4421-7"
     inkscape:connector-curvature="0" /><path
     style="fill:#ffffff;fill-opacity:1;stroke:#ffffff;stroke-width:0.78847313;stroke-opacity:1"
     d="m 40.675082,62.360562 c 0,-1.414204 2.572857,-4.053971 4.811013,-4.936126 2.904774,-1.144899 9.043605,-1.100963 12.097024,0.08658 2.31879,0.901827 5.036786,3.595031 5.036786,4.990842 0,0.92396 -2.534266,0.797676 -3.138879,-0.15641 -0.615953,-0.971991 -3.149062,-1.995162 -6.235161,-2.518499 -2.894396,-0.490828 -7.396291,0.571467 -9.009097,2.125846 -1.4036,1.352752 -3.561686,1.599826 -3.561686,0.407768 z"
     id="path4423-4"
     inkscape:connector-curvature="0" /><path
     style="fill:#ffffff;fill-opacity:1;stroke:#ffffff;stroke-width:0.78847313;stroke-opacity:1"
     d="m 79.740087,61.41174 c 2.225671,-5.636648 15.842464,-6.722184 20.063114,-1.599438 1.371619,1.664779 1.604779,3.334359 0.465639,3.334359 -0.414972,0 -1.901319,-0.734825 -3.302995,-1.632946 -2.203625,-1.411967 -3.10845,-1.632945 -6.686312,-1.632945 -3.577869,0 -4.482694,0.220978 -6.686319,1.632945 -1.401676,0.898121 -2.996171,1.632946 -3.543334,1.632946 -0.95038,0 -0.964228,-0.07753 -0.309793,-1.734921 z"
     id="path4425-7"
     inkscape:connector-curvature="0" /><rect
     style="fill:none;fill-opacity:1;stroke:#ffffff;stroke-width:2.91152024;stroke-miterlimit:4;stroke-dasharray:none;stroke-opacity:1"
     id="rect4223"
     width="26.145342"
     height="26.172859"
     x="-126.98206"
     y="-28.019871"
     ry="0"
     transform="matrix(-0.71508651,-0.69903596,0.73097355,-0.6824058,0,0)" /></svg>