<?xml version="1.0" encoding="utf-8"?>
<!-- Generator: Adobe Illustrator 16.0.4, SVG Export Plug-In . SVG Version: 6.00 Build 0)  -->
<!DOCTYPE svg PUBLIC "-//W3C//DTD SVG 1.1//EN" "http://www.w3.org/Graphics/SVG/1.1/DTD/svg11.dtd">
<svg version="1.1" id="Ebene_1" xmlns="http://www.w3.org/2000/svg" xmlns:xlink="http://www.w3.org/1999/xlink" x="0px" y="0px"
	 width="141.732px" height="141.732px" viewBox="0 0 141.732 141.732" enable-background="new 0 0 141.732 141.732"
	 xml:space="preserve">
<g>
	<defs>
		<rect id="SVGID_1_" width="141.732" height="141.732"/>
	</defs>
	<clipPath id="SVGID_2_">
		<use xlink:href="#SVGID_1_"  overflow="visible"/>
	</clipPath>
	<path clip-path="url(#SVGID_2_)" fill="#FFFFFF" d="M17.5,110.834c2.427,0,4.394-1.967,4.394-4.395
		c0-2.426-1.967-4.393-4.394-4.393s-4.394,1.967-4.394,4.393C13.106,108.868,15.073,110.834,17.5,110.834"/>
	<circle clip-path="url(#SVGID_2_)" fill="none" stroke="#000000" stroke-width="2" cx="17.5" cy="106.441" r="4.394"/>
	<path clip-path="url(#SVGID_2_)" fill="#FFFFFF" d="M124.232,110.834c2.427,0,4.394-1.967,4.394-4.395
		c0-2.426-1.967-4.393-4.394-4.393s-4.395,1.967-4.395,4.393C119.838,108.868,121.806,110.834,124.232,110.834"/>
	<circle clip-path="url(#SVGID_2_)" fill="none" stroke="#000000" stroke-width="2" cx="124.232" cy="106.441" r="4.394"/>
	<path clip-path="url(#SVGID_2_)" fill="#C20E1A" d="M0,29.764V99.78h141.732V29.764c-16.899,6.788-42.368,11.111-70.866,11.111
		C42.369,40.875,16.899,36.551,0,29.764"/>
</g>
<g>
	<path fill="#FFFFFF" d="M5.794,60.456V44.79h3.059v12.938h7.107v2.729H5.794z"/>
	<path fill="#FFFFFF" d="M21.503,47.518v3.851h6.183v2.729h-6.183v6.359h-3.059V44.79h10.319v2.728H21.503z"/>
	<path fill="#FFFFFF" d="M35.055,60.456V47.87l-3.19,2.772v-3.081l3.19-2.772h2.861v15.666H35.055z"/>
	<path fill="#FFFFFF" d="M47.485,60.587c-2.772,0-4.885-1.738-4.885-4.84c0-1.43,0.616-2.75,1.32-4.181l3.3-6.777h3.125
		l-3.256,6.469c0.374-0.154,0.792-0.198,1.166-0.198c2.112,0,4.115,1.738,4.115,4.643C52.37,58.783,50.257,60.587,47.485,60.587z
		 M47.485,53.437c-1.166,0-2.024,0.836-2.024,2.289c0,1.452,0.858,2.288,2.024,2.288s2.024-0.836,2.024-2.288
		C49.509,54.339,48.695,53.437,47.485,53.437z"/>
	<path fill="#FFFFFF" d="M54.789,55.505v-2.663h6.777v2.663H54.789z"/>
	<path fill="#FFFFFF" d="M70.673,47.518v12.938h-3.059V47.518h-4.092V44.79h11.244v2.728H70.673z"/>
	<path fill="#FFFFFF" d="M81.562,60.587c-2.376,0-4.181-0.506-5.721-2.068l1.98-1.98c0.99,0.99,2.332,1.32,3.784,1.32
		c1.805,0,2.772-0.682,2.772-1.937c0-0.55-0.154-1.012-0.483-1.32c-0.309-0.286-0.66-0.44-1.387-0.55l-1.893-0.264
		c-1.342-0.198-2.332-0.616-3.036-1.298c-0.748-0.748-1.122-1.76-1.122-3.08c0-2.794,2.068-4.753,5.457-4.753
		c2.156,0,3.718,0.528,5.061,1.826l-1.937,1.915c-0.99-0.946-2.178-1.078-3.212-1.078c-1.629,0-2.421,0.902-2.421,1.98
		c0,0.396,0.132,0.814,0.462,1.123c0.309,0.286,0.814,0.528,1.452,0.616l1.849,0.264c1.431,0.198,2.332,0.594,2.992,1.21
		c0.836,0.792,1.21,1.937,1.21,3.323C87.371,58.872,84.841,60.587,81.562,60.587z"/>
</g>
<g>
	<defs>
		<rect id="SVGID_3_" width="141.732" height="141.732"/>
	</defs>
	<clipPath id="SVGID_4_">
		<use xlink:href="#SVGID_3_"  overflow="visible"/>
	</clipPath>
	<line clip-path="url(#SVGID_4_)" fill="none" stroke="#FFFFFF" stroke-width="2.43" x1="0" y1="64.755" x2="141.732" y2="64.755"/>
	
		<line clip-path="url(#SVGID_4_)" fill="none" stroke="#FFFFFF" stroke-width="2.43" x1="107.766" y1="64.693" x2="142.966" y2="29.492"/>
	
		<line clip-path="url(#SVGID_4_)" fill="none" stroke="#FFFFFF" stroke-width="2.43" x1="142.999" y1="100.05" x2="107.765" y2="64.816"/>
	<line clip-path="url(#SVGID_4_)" fill="none" stroke="#000000" stroke-width="2" x1="0" y1="28.346" x2="141.732" y2="28.346"/>
	<line clip-path="url(#SVGID_4_)" fill="none" stroke="#000000" stroke-width="2" x1="0" y1="113.385" x2="141.732" y2="113.385"/>
</g>
</svg>
