<?xml version="1.0" encoding="UTF-8" standalone="no"?>
<!-- Generator: Adobe Illustrator 16.0.4, SVG Export Plug-In . SVG Version: 6.00 Build 0)  -->

<svg
   xmlns:dc="http://purl.org/dc/elements/1.1/"
   xmlns:cc="http://creativecommons.org/ns#"
   xmlns:rdf="http://www.w3.org/1999/02/22-rdf-syntax-ns#"
   xmlns:svg="http://www.w3.org/2000/svg"
   xmlns="http://www.w3.org/2000/svg"
   xmlns:xlink="http://www.w3.org/1999/xlink"
   xmlns:sodipodi="http://sodipodi.sourceforge.net/DTD/sodipodi-0.dtd"
   xmlns:inkscape="http://www.inkscape.org/namespaces/inkscape"
   version="1.1"
   id="Ebene_1"
   x="0px"
   y="0px"
   width="141.732px"
   height="141.732px"
   viewBox="0 0 141.732 141.732"
   enable-background="new 0 0 141.732 141.732"
   xml:space="preserve"
   inkscape:version="0.91 r13725"
   sodipodi:docname="FW_LG_ABC-Erkundung.svg"><metadata
     id="metadata31"><rdf:RDF><cc:Work
         rdf:about=""><dc:format>image/svg+xml</dc:format><dc:type
           rdf:resource="http://purl.org/dc/dcmitype/StillImage" /><dc:title></dc:title></cc:Work></rdf:RDF></metadata><defs
     id="defs29"><clipPath
       id="SVGID_4_-0"><use
         height="100%"
         width="100%"
         y="0"
         x="0"
         style="overflow:visible"
         xlink:href="#SVGID_3_-4"
         overflow="visible"
         id="use27" /></clipPath><defs
       id="defs7"><rect
         height="141.732"
         width="141.732"
         id="SVGID_1_" /></defs><clipPath
       id="SVGID_2_"><use
         id="use11"
         overflow="visible"
         xlink:href="#SVGID_1_" /></clipPath></defs><sodipodi:namedview
     pagecolor="#ffffff"
     bordercolor="#666666"
     borderopacity="1"
     objecttolerance="10"
     gridtolerance="10"
     guidetolerance="10"
     inkscape:pageopacity="0"
     inkscape:pageshadow="2"
     inkscape:window-width="1280"
     inkscape:window-height="1002"
     id="namedview27"
     showgrid="false"
     inkscape:zoom="1.6651145"
     inkscape:cx="70.865997"
     inkscape:cy="70.865997"
     inkscape:window-x="-8"
     inkscape:window-y="-8"
     inkscape:window-maximized="1"
     inkscape:current-layer="Ebene_1" /><rect
     y="43.37"
     fill="#C20E1A"
     width="141.732"
     height="70.016"
     id="rect3" /><path
     inkscape:connector-curvature="0"
     id="path13"
     d="m 91.417,40.69 c 2.428,0 4.395,-1.967 4.395,-4.394 0,-2.426 -1.967,-4.393 -4.395,-4.393 -2.427,0 -4.394,1.967 -4.394,4.393 0,2.427 1.967,4.394 4.394,4.394"
     clip-path="url(#SVGID_2_)" /><path
     inkscape:connector-curvature="0"
     id="path15"
     d="m 50.315,40.69 c 2.427,0 4.394,-1.967 4.394,-4.394 0,-2.426 -1.967,-4.393 -4.394,-4.393 -2.427,0 -4.394,1.967 -4.394,4.393 0,2.427 1.967,4.394 4.394,4.394"
     clip-path="url(#SVGID_2_)" /><line
     style="fill:none;stroke:#000000;stroke-width:2"
     id="line23"
     y2="28.346001"
     x2="141.73199"
     y1="28.346001"
     x1="0"
     clip-path="url(#SVGID_2_)" /><line
     style="fill:none;stroke:#000000;stroke-width:2"
     id="line25"
     y2="113.385"
     x2="141.73199"
     y1="113.385"
     x1="0"
     clip-path="url(#SVGID_2_)" /><g
     transform="translate(42.639709,39.053494)"
     id="g4212"
     style="fill:#ffffff;fill-opacity:1;stroke:#ffffff;stroke-opacity:1"><line
       id="line19-6"
       y2="66.196007"
       x2="57.725037"
       y1="16.887009"
       x1="8.4150372"
       style="fill:#ffffff;fill-opacity:1;stroke:#ffffff;stroke-width:3;stroke-opacity:1" /><g
       style="fill:#ffffff;fill-opacity:1;stroke:#ffffff;stroke-opacity:1"
       id="g21"
       transform="translate(-43.460961,-38.689)"><defs
         id="defs23"><rect
           height="141.73199"
           width="141.73199"
           id="SVGID_3_-4"
           x="0"
           y="0" /></defs><clipPath
         id="clipPath4202"><use
           id="use4204"
           overflow="visible"
           xlink:href="#SVGID_3_-4"
           style="overflow:visible"
           x="0"
           y="0"
           width="100%"
           height="100%" /></clipPath><path
         id="path29"
         d="m 48.294,70.056 c 4.669,0 8.455,-3.785 8.455,-8.455 0,-4.669 -3.786,-8.454 -8.455,-8.454 -4.669,0 -8.455,3.785 -8.455,8.454 0,4.67 3.786,8.455 8.455,8.455"
         clip-path="url(#SVGID_4_-0)"
         inkscape:connector-curvature="0"
         style="fill:#ffffff;fill-opacity:1;stroke:#ffffff;stroke-opacity:1" /></g><line
       id="line31"
       y2="66.196007"
       x2="-2.914959"
       y1="16.887009"
       x1="46.394043"
       style="fill:#ffffff;fill-opacity:1;stroke:#ffffff;stroke-width:3;stroke-opacity:1" /><path
       inkscape:connector-curvature="0"
       id="path4485"
       d="M 1.068242,29.98126 C -4.733047,27.12335 -4.588263,18.52621 1.308278,15.72812 4.584667,14.17337 7.849767,14.76114 10.465125,17.3765 16.984134,23.89551 9.390682,34.08119 1.068242,29.98126 Z"
       style="fill:#ffffff;fill-opacity:1;stroke:#ffffff;stroke-width:0.36093614;stroke-miterlimit:4;stroke-dasharray:none;stroke-opacity:1" /><path
       inkscape:connector-curvature="0"
       id="path4485-0"
       d="m 47.418409,29.66548 c -5.801289,-2.85791 -5.656505,-11.45505 0.240036,-14.25314 3.276389,-1.55475 6.541489,-0.96698 9.156847,1.64838 6.519009,6.51901 -1.074443,16.70469 -9.396883,12.60476 z"
       style="fill:#ffffff;fill-opacity:1;stroke:#ffffff;stroke-width:0.36093614;stroke-miterlimit:4;stroke-dasharray:none;stroke-opacity:1" /><path
       inkscape:connector-curvature="0"
       id="path4502"
       d="M -2.60806,66.05701 C -3.326787,65.191 -1.737215,63.39254 11.101967,50.54533 l 14.523014,-14.53209 -6.00898,-5.98643 c -4.948127,-4.92956 -6.008979,-6.30477 -6.008979,-7.78958 0,-1.70911 0.360234,-1.44394 6.90716,5.08441 l 6.90716,6.88757 8.14182,-8.09848 c 6.804422,-6.76821 8.073099,-7.80253 7.723465,-6.29681 -0.648792,2.79409 -0.962792,3.19672 -7.722012,9.90161 L 29.215331,36.01378 43.738075,50.5456 C 56.577016,63.39257 58.166558,65.191 57.447833,66.05701 56.724928,66.92806 55.016237,65.41901 42.027366,52.43825 L 27.419886,37.8399 12.812407,52.43825 C -0.176465,65.41901 -1.885158,66.92806 -2.60806,66.05701 Z"
       style="fill:#ffffff;fill-opacity:1;stroke:#ffffff;stroke-width:0.66100001;stroke-miterlimit:4;stroke-dasharray:none;stroke-opacity:1" /><path
       inkscape:connector-curvature="0"
       id="path4506"
       d="M 72.06712,27.823554 -18.016779,56.049841"
       style="fill:#ffffff;fill-rule:evenodd;stroke:#ffffff;stroke-width:2.0999999;stroke-linecap:butt;stroke-linejoin:miter;stroke-miterlimit:4;stroke-dasharray:none;stroke-opacity:1;fill-opacity:1" /></g></svg>