<?xml version="1.0" encoding="utf-8"?>
<!-- Generator: Adobe Illustrator 16.0.4, SVG Export Plug-In . SVG Version: 6.00 Build 0)  -->
<!DOCTYPE svg PUBLIC "-//W3C//DTD SVG 1.1//EN" "http://www.w3.org/Graphics/SVG/1.1/DTD/svg11.dtd">
<svg version="1.1" id="Ebene_1" xmlns="http://www.w3.org/2000/svg" xmlns:xlink="http://www.w3.org/1999/xlink" x="0px" y="0px"
	 width="141.732px" height="141.732px" viewBox="0 0 141.732 141.732" enable-background="new 0 0 141.732 141.732"
	 xml:space="preserve">
<g>
	<defs>
		<rect id="SVGID_1_" width="141.732" height="141.732"/>
	</defs>
	<clipPath id="SVGID_2_">
		<use xlink:href="#SVGID_1_"  overflow="visible"/>
	</clipPath>
	<path clip-path="url(#SVGID_2_)" fill="#FFFFFF" d="M17.5,110.834c2.427,0,4.394-1.967,4.394-4.395
		c0-2.426-1.967-4.393-4.394-4.393s-4.394,1.967-4.394,4.393C13.106,108.868,15.073,110.834,17.5,110.834"/>
	<circle clip-path="url(#SVGID_2_)" fill="none" stroke="#000000" stroke-width="2" cx="17.5" cy="106.441" r="4.394"/>
	<path clip-path="url(#SVGID_2_)" fill="#FFFFFF" d="M124.232,110.834c2.427,0,4.394-1.967,4.394-4.395
		c0-2.426-1.967-4.393-4.394-4.393s-4.395,1.967-4.395,4.393C119.838,108.868,121.806,110.834,124.232,110.834"/>
	<circle clip-path="url(#SVGID_2_)" fill="none" stroke="#000000" stroke-width="2" cx="124.232" cy="106.441" r="4.394"/>
	<path clip-path="url(#SVGID_2_)" fill="#C20E1A" d="M0,29.764V99.78h141.732V29.764c-16.899,6.788-42.368,11.111-70.866,11.111
		C42.369,40.875,16.899,36.551,0,29.764"/>
	<line clip-path="url(#SVGID_2_)" fill="none" stroke="#FFFFFF" stroke-width="2.43" x1="0" y1="64.755" x2="141.732" y2="64.755"/>
	
		<line clip-path="url(#SVGID_2_)" fill="none" stroke="#FFFFFF" stroke-width="2.43" x1="107.766" y1="64.693" x2="142.966" y2="29.492"/>
	
		<line clip-path="url(#SVGID_2_)" fill="none" stroke="#FFFFFF" stroke-width="2.43" x1="142.999" y1="100.05" x2="107.765" y2="64.816"/>
	<line clip-path="url(#SVGID_2_)" fill="none" stroke="#000000" stroke-width="2" x1="0" y1="28.346" x2="141.732" y2="28.346"/>
	<line clip-path="url(#SVGID_2_)" fill="none" stroke="#000000" stroke-width="2" x1="0" y1="113.385" x2="141.732" y2="113.385"/>
</g>
</svg>
