<?xml version="1.0" encoding="utf-8"?>
<!-- Generator: Adobe Illustrator 16.0.4, SVG Export Plug-In . SVG Version: 6.00 Build 0)  -->
<!DOCTYPE svg PUBLIC "-//W3C//DTD SVG 1.1//EN" "http://www.w3.org/Graphics/SVG/1.1/DTD/svg11.dtd">
<svg version="1.1" id="Ebene_1" xmlns="http://www.w3.org/2000/svg" xmlns:xlink="http://www.w3.org/1999/xlink" x="0px" y="0px"
	 width="141.732px" height="141.732px" viewBox="0 0 141.732 141.732" enable-background="new 0 0 141.732 141.732"
	 xml:space="preserve">
<g>
	<defs>
		<rect id="SVGID_1_" width="141.732" height="141.732"/>
	</defs>
	<clipPath id="SVGID_2_">
		<use xlink:href="#SVGID_1_"  overflow="visible"/>
	</clipPath>
	<path clip-path="url(#SVGID_2_)" fill="#FFFFFF" d="M17.5,110.834c2.427,0,4.394-1.967,4.394-4.395
		c0-2.426-1.967-4.393-4.394-4.393s-4.394,1.967-4.394,4.393C13.106,108.868,15.073,110.834,17.5,110.834"/>
	<circle clip-path="url(#SVGID_2_)" fill="none" stroke="#000000" stroke-width="2" cx="17.5" cy="106.441" r="4.394"/>
	<path clip-path="url(#SVGID_2_)" fill="#FFFFFF" d="M124.232,110.834c2.427,0,4.394-1.967,4.394-4.395
		c0-2.426-1.967-4.393-4.394-4.393s-4.395,1.967-4.395,4.393C119.838,108.868,121.806,110.834,124.232,110.834"/>
	<circle clip-path="url(#SVGID_2_)" fill="none" stroke="#000000" stroke-width="2" cx="124.232" cy="106.441" r="4.394"/>
	<path clip-path="url(#SVGID_2_)" fill="#C20E1A" d="M0,29.764V99.78h141.732V29.764c-16.899,6.788-42.368,11.111-70.866,11.111
		C42.369,40.875,16.899,36.551,0,29.764"/>
</g>
<g>
	<path fill="#FFFFFF" d="M16.928,60.456v-9.131l-2.993,5.941h-2.068l-3.014-5.941v9.131H5.794V44.79h3.015l4.092,8.471l4.071-8.471
		h3.014v15.666H16.928z"/>
	<path fill="#FFFFFF" d="M29.621,47.518v12.938h-3.059V47.518H22.47V44.79h11.244v2.728H29.621z"/>
	<path fill="#FFFFFF" d="M39.257,47.518v3.851h6.183v2.729h-6.183v6.359h-3.059V44.79h10.319v2.728H39.257z"/>
</g>
<g>
	<defs>
		<rect id="SVGID_3_" width="141.732" height="141.732"/>
	</defs>
	<clipPath id="SVGID_4_">
		<use xlink:href="#SVGID_3_"  overflow="visible"/>
	</clipPath>
	<line clip-path="url(#SVGID_4_)" fill="none" stroke="#000000" stroke-width="2" x1="0" y1="28.346" x2="141.732" y2="28.346"/>
	<line clip-path="url(#SVGID_4_)" fill="none" stroke="#000000" stroke-width="2" x1="0" y1="113.385" x2="141.732" y2="113.385"/>
</g>
</svg>
