<?xml version="1.0" encoding="utf-8"?>
<!-- Generator: Adobe Illustrator 16.0.4, SVG Export Plug-In . SVG Version: 6.00 Build 0)  -->
<!DOCTYPE svg PUBLIC "-//W3C//DTD SVG 1.1//EN" "http://www.w3.org/Graphics/SVG/1.1/DTD/svg11.dtd">
<svg version="1.1" id="Ebene_1" xmlns="http://www.w3.org/2000/svg" xmlns:xlink="http://www.w3.org/1999/xlink" x="0px" y="0px"
	 width="141.732px" height="141.732px" viewBox="0 0 141.732 141.732" enable-background="new 0 0 141.732 141.732"
	 xml:space="preserve">
<g>
	<defs>
		<rect id="SVGID_1_" width="141.732" height="141.732"/>
	</defs>
	<clipPath id="SVGID_2_">
		<use xlink:href="#SVGID_1_"  overflow="visible"/>
	</clipPath>
	<path clip-path="url(#SVGID_2_)" fill="#FFFFFF" d="M17.5,110.834c2.427,0,4.394-1.967,4.394-4.395
		c0-2.426-1.967-4.393-4.394-4.393s-4.394,1.967-4.394,4.393C13.106,108.868,15.073,110.834,17.5,110.834"/>
	<circle clip-path="url(#SVGID_2_)" fill="none" stroke="#000000" stroke-width="2" cx="17.5" cy="106.441" r="4.394"/>
	<path clip-path="url(#SVGID_2_)" fill="#FFFFFF" d="M70.866,110.834c2.427,0,4.394-1.967,4.394-4.395
		c0-2.426-1.967-4.393-4.394-4.393c-2.427,0-4.394,1.967-4.394,4.393C66.472,108.868,68.439,110.834,70.866,110.834"/>
	<circle clip-path="url(#SVGID_2_)" fill="none" stroke="#000000" stroke-width="2" cx="70.866" cy="106.441" r="4.394"/>
	<path clip-path="url(#SVGID_2_)" fill="#FFFFFF" d="M124.232,110.834c2.427,0,4.394-1.967,4.394-4.395
		c0-2.426-1.967-4.393-4.394-4.393s-4.395,1.967-4.395,4.393C119.838,108.868,121.806,110.834,124.232,110.834"/>
	<circle clip-path="url(#SVGID_2_)" fill="none" stroke="#000000" stroke-width="2" cx="124.232" cy="106.441" r="4.394"/>
	<path clip-path="url(#SVGID_2_)" fill="#C20E1A" d="M0,29.764V99.78h141.732V29.764c-16.899,6.788-42.368,11.111-70.866,11.111
		C42.369,40.875,16.899,36.551,0,29.764"/>
</g>
<g>
	<path fill="#FFFFFF" d="M14.112,60.456l-3.059-6.249h-2.2v6.249H5.794V44.79h6.139c3.19,0,5.083,2.178,5.083,4.796
		c0,2.2-1.342,3.564-2.86,4.115l3.499,6.755H14.112z M11.735,47.518H8.853v4.137h2.882c1.342,0,2.222-0.858,2.222-2.068
		C13.958,48.376,13.078,47.518,11.735,47.518z"/>
	<path fill="#FFFFFF" d="M33.538,60.456h-2.552l-2.882-9.505l-2.883,9.505h-2.552L18.488,44.79h3.19l2.42,9.879l2.86-9.879h2.289
		l2.86,9.879l2.442-9.879h3.19L33.538,60.456z"/>
</g>
<rect x="42.553" y="69.632" fill="none" stroke="#FFFFFF" stroke-width="2" width="42.52" height="17.575"/>
<line fill="none" stroke="#FFFFFF" stroke-width="2" x1="41.969" y1="74.16" x2="22.776" y2="65.373"/>
<line fill="none" stroke="#FFFFFF" stroke-width="2" x1="41.969" y1="82.679" x2="22.776" y2="91.466"/>
<g>
	<defs>
		<rect id="SVGID_3_" width="141.732" height="141.732"/>
	</defs>
	<clipPath id="SVGID_4_">
		<use xlink:href="#SVGID_3_"  overflow="visible"/>
	</clipPath>
	<path clip-path="url(#SVGID_4_)" fill="none" stroke="#FFFFFF" stroke-width="2" d="M85.282,75.404c0,0,7.237-5.886,15.549-1.744
		c8.312,4.142,7.508,9.591,18.501,9.155"/>
	<path clip-path="url(#SVGID_4_)" fill="none" stroke="#FFFFFF" stroke-width="2" d="M85.282,79.77c0,0,7.237-5.886,15.549-1.743
		c8.312,4.142,7.508,9.591,18.501,9.154"/>
	<line clip-path="url(#SVGID_4_)" fill="none" stroke="#000000" stroke-width="2" x1="0" y1="28.346" x2="141.732" y2="28.346"/>
	<line clip-path="url(#SVGID_4_)" fill="none" stroke="#000000" stroke-width="2" x1="0" y1="113.385" x2="141.732" y2="113.385"/>
</g>
</svg>
