<?xml version="1.0" encoding="utf-8"?>
<!-- Generator: Adobe Illustrator 16.0.4, SVG Export Plug-In . SVG Version: 6.00 Build 0)  -->
<!DOCTYPE svg PUBLIC "-//W3C//DTD SVG 1.1//EN" "http://www.w3.org/Graphics/SVG/1.1/DTD/svg11.dtd">
<svg version="1.1" id="Ebene_1" xmlns="http://www.w3.org/2000/svg" xmlns:xlink="http://www.w3.org/1999/xlink" x="0px" y="0px"
	 width="141.732px" height="141.732px" viewBox="0 0 141.732 141.732" enable-background="new 0 0 141.732 141.732"
	 xml:space="preserve">
<g>
	<defs>
		<rect id="SVGID_1_" width="141.732" height="141.732"/>
	</defs>
	<clipPath id="SVGID_2_">
		<use xlink:href="#SVGID_1_"  overflow="visible"/>
	</clipPath>
	<path clip-path="url(#SVGID_2_)" fill="#FFFFFF" d="M17.5,110.834c2.427,0,4.394-1.967,4.394-4.395
		c0-2.426-1.967-4.393-4.394-4.393s-4.394,1.967-4.394,4.393C13.106,108.868,15.073,110.834,17.5,110.834"/>
	<circle clip-path="url(#SVGID_2_)" fill="none" stroke="#000000" stroke-width="2" cx="17.5" cy="106.441" r="4.394"/>
	<path clip-path="url(#SVGID_2_)" fill="#FFFFFF" d="M70.866,110.834c2.427,0,4.394-1.967,4.394-4.395
		c0-2.426-1.967-4.393-4.394-4.393c-2.427,0-4.394,1.967-4.394,4.393C66.472,108.868,68.439,110.834,70.866,110.834"/>
	<circle clip-path="url(#SVGID_2_)" fill="none" stroke="#000000" stroke-width="2" cx="70.866" cy="106.441" r="4.394"/>
	<path clip-path="url(#SVGID_2_)" fill="#FFFFFF" d="M124.232,110.834c2.427,0,4.394-1.967,4.394-4.395
		c0-2.426-1.967-4.393-4.394-4.393s-4.395,1.967-4.395,4.393C119.838,108.868,121.806,110.834,124.232,110.834"/>
	<circle clip-path="url(#SVGID_2_)" fill="none" stroke="#000000" stroke-width="2" cx="124.232" cy="106.441" r="4.394"/>
	<path clip-path="url(#SVGID_2_)" fill="#C20E1A" d="M0,29.764V99.78h141.732V29.764c-16.899,6.788-42.368,11.111-70.866,11.111
		C42.369,40.875,16.899,36.551,0,29.764"/>
</g>
<g>
	<path fill="#FFFFFF" d="M10.107,60.587c-2.376,0-4.18-0.506-5.721-2.068l1.98-1.98c0.99,0.99,2.332,1.32,3.785,1.32
		c1.804,0,2.772-0.682,2.772-1.937c0-0.55-0.154-1.012-0.484-1.32c-0.308-0.286-0.66-0.44-1.386-0.55l-1.892-0.264
		c-1.342-0.198-2.333-0.616-3.037-1.298c-0.748-0.748-1.122-1.76-1.122-3.08c0-2.794,2.068-4.753,5.457-4.753
		c2.157,0,3.719,0.528,5.061,1.826l-1.937,1.915c-0.99-0.946-2.178-1.078-3.212-1.078c-1.628,0-2.42,0.902-2.42,1.98
		c0,0.396,0.132,0.814,0.462,1.123c0.308,0.286,0.814,0.528,1.452,0.616l1.848,0.264c1.43,0.198,2.333,0.594,2.993,1.21
		c0.836,0.792,1.21,1.937,1.21,3.323C15.916,58.872,13.386,60.587,10.107,60.587z"/>
	<path fill="#FFFFFF" d="M32.152,60.456H29.6l-2.882-9.505l-2.883,9.505h-2.552L17.102,44.79h3.19l2.42,9.879l2.86-9.879h2.289
		l2.86,9.879l2.442-9.879h3.19L32.152,60.456z"/>
	<path fill="#FFFFFF" d="M37.782,60.456v-2.574l5.853-6.799c0.572-0.682,0.814-1.166,0.814-1.892c0-1.166-0.682-1.958-1.893-1.958
		c-0.946,0-1.914,0.484-1.914,2.002h-2.86c0-2.86,2.09-4.577,4.774-4.577c2.772,0,4.753,1.738,4.753,4.555
		c0,1.518-0.594,2.333-1.672,3.586l-4.378,5.083h6.051v2.574H37.782z"/>
	<path fill="#FFFFFF" d="M54.415,60.587c-2.552,0-4.775-1.672-4.775-4.665v-6.601c0-2.992,2.223-4.665,4.775-4.665
		s4.752,1.672,4.752,4.665v6.601C59.167,58.916,56.967,60.587,54.415,60.587z M56.307,49.366c0-1.32-0.77-2.134-1.892-2.134
		S52.5,48.046,52.5,49.366v6.535c0,1.32,0.792,2.112,1.914,2.112s1.892-0.792,1.892-2.112V49.366z"/>
	<path fill="#FFFFFF" d="M66.361,60.587c-2.552,0-4.775-1.672-4.775-4.665v-6.601c0-2.992,2.223-4.665,4.775-4.665
		s4.752,1.672,4.752,4.665v6.601C71.113,58.916,68.913,60.587,66.361,60.587z M68.253,49.366c0-1.32-0.77-2.134-1.892-2.134
		s-1.914,0.814-1.914,2.134v6.535c0,1.32,0.792,2.112,1.914,2.112s1.892-0.792,1.892-2.112V49.366z"/>
	<path fill="#FFFFFF" d="M78.307,60.587c-2.552,0-4.774-1.672-4.774-4.665v-6.601c0-2.992,2.223-4.665,4.774-4.665
		c2.553,0,4.753,1.672,4.753,4.665v6.601C83.06,58.916,80.859,60.587,78.307,60.587z M80.199,49.366c0-1.32-0.77-2.134-1.893-2.134
		c-1.122,0-1.914,0.814-1.914,2.134v6.535c0,1.32,0.792,2.112,1.914,2.112c1.123,0,1.893-0.792,1.893-2.112V49.366z"/>
</g>
<g>
	<defs>
		<rect id="SVGID_3_" width="141.732" height="141.732"/>
	</defs>
	<clipPath id="SVGID_4_">
		<use xlink:href="#SVGID_3_"  overflow="visible"/>
	</clipPath>
	<line clip-path="url(#SVGID_4_)" fill="none" stroke="#FFFFFF" stroke-width="2.43" x1="0" y1="64.755" x2="141.732" y2="64.755"/>
	
		<line clip-path="url(#SVGID_4_)" fill="none" stroke="#FFFFFF" stroke-width="2.43" x1="107.766" y1="64.693" x2="142.966" y2="29.492"/>
	
		<line clip-path="url(#SVGID_4_)" fill="none" stroke="#FFFFFF" stroke-width="2.43" x1="142.999" y1="100.05" x2="107.765" y2="64.816"/>
	<path clip-path="url(#SVGID_4_)" fill="none" stroke="#FFFFFF" stroke-width="3.957" d="M31.374,83.654
		c0-2.874-5.692-5.203-12.713-5.203c-7.022,0-12.714,2.329-12.714,5.203"/>
	<path clip-path="url(#SVGID_4_)" fill="none" stroke="#FFFFFF" stroke-width="3.957" d="M82.228,83.654
		c0-2.874-5.691-5.203-12.712-5.203c-7.022,0-12.714,2.329-12.714,5.203"/>
	<path clip-path="url(#SVGID_4_)" fill="none" stroke="#FFFFFF" stroke-width="3.957" d="M31.374,83.654
		c0,2.874,5.692,5.204,12.713,5.204c7.022,0,12.714-2.33,12.714-5.204"/>
	<line clip-path="url(#SVGID_4_)" fill="none" stroke="#000000" stroke-width="2" x1="0" y1="28.346" x2="141.732" y2="28.346"/>
	<line clip-path="url(#SVGID_4_)" fill="none" stroke="#000000" stroke-width="2" x1="0" y1="113.385" x2="141.732" y2="113.385"/>
</g>
</svg>
