<?xml version="1.0" encoding="utf-8"?>
<!-- Generator: Adobe Illustrator 16.0.4, SVG Export Plug-In . SVG Version: 6.00 Build 0)  -->
<!DOCTYPE svg PUBLIC "-//W3C//DTD SVG 1.1//EN" "http://www.w3.org/Graphics/SVG/1.1/DTD/svg11.dtd">
<svg version="1.1" id="Ebene_1" xmlns="http://www.w3.org/2000/svg" xmlns:xlink="http://www.w3.org/1999/xlink" x="0px" y="0px"
	 width="141.732px" height="141.732px" viewBox="0 0 141.732 141.732" enable-background="new 0 0 141.732 141.732"
	 xml:space="preserve">
<g>
	<defs>
		<rect id="SVGID_1_" width="141.732" height="141.732"/>
	</defs>
	<clipPath id="SVGID_2_">
		<use xlink:href="#SVGID_1_"  overflow="visible"/>
	</clipPath>
	<path clip-path="url(#SVGID_2_)" fill="#FFFFFF" d="M17.5,110.834c2.427,0,4.394-1.967,4.394-4.396
		c0-2.425-1.967-4.392-4.394-4.392s-4.394,1.967-4.394,4.392C13.106,108.868,15.073,110.834,17.5,110.834"/>
	<circle clip-path="url(#SVGID_2_)" fill="none" stroke="#1D1D1B" stroke-width="2" cx="17.5" cy="106.441" r="4.394"/>
	<path clip-path="url(#SVGID_2_)" fill="#FFFFFF" d="M124.232,110.834c2.427,0,4.394-1.967,4.394-4.396
		c0-2.425-1.967-4.392-4.394-4.392s-4.396,1.967-4.396,4.392C119.837,108.868,121.806,110.834,124.232,110.834"/>
	<circle clip-path="url(#SVGID_2_)" fill="none" stroke="#1D1D1B" stroke-width="2" cx="124.232" cy="106.441" r="4.394"/>
	<path clip-path="url(#SVGID_2_)" fill="#E30613" d="M0,29.764V99.78h141.732V29.764c-16.899,6.788-42.368,11.111-70.866,11.111
		C42.369,40.875,16.899,36.552,0,29.764"/>
</g>
<polygon fill="#FFFFFF" points="11.779,47.518 11.779,60.456 8.72,60.456 8.72,47.518 4.628,47.518 4.628,44.79 15.872,44.79 
	15.872,47.518 "/>
<g>
	<defs>
		<rect id="SVGID_3_" width="141.732" height="141.732"/>
	</defs>
	<clipPath id="SVGID_4_">
		<use xlink:href="#SVGID_3_"  overflow="visible"/>
	</clipPath>
	<path clip-path="url(#SVGID_4_)" fill="#FFFFFF" d="M22.669,60.587c-2.376,0-4.18-0.506-5.721-2.068l1.981-1.98
		c0.99,0.99,2.332,1.32,3.784,1.32c1.805,0,2.772-0.682,2.772-1.937c0-0.549-0.153-1.012-0.483-1.32
		c-0.309-0.286-0.661-0.44-1.387-0.55l-1.892-0.264c-1.342-0.198-2.332-0.616-3.036-1.298c-0.748-0.748-1.122-1.76-1.122-3.08
		c0-2.795,2.068-4.753,5.456-4.753c2.157,0,3.719,0.528,5.061,1.826l-1.936,1.915c-0.991-0.947-2.179-1.079-3.213-1.079
		c-1.628,0-2.42,0.902-2.42,1.98c0,0.396,0.132,0.815,0.462,1.123c0.308,0.286,0.814,0.528,1.452,0.616l1.848,0.264
		c1.431,0.198,2.333,0.594,2.993,1.21c0.836,0.792,1.21,1.936,1.21,3.323C28.478,58.872,25.948,60.587,22.669,60.587"/>
	<polygon clip-path="url(#SVGID_4_)" fill="#FFFFFF" points="34.417,47.518 34.417,51.369 40.6,51.369 40.6,54.097 34.417,54.097 
		34.417,60.456 31.358,60.456 31.358,44.79 41.678,44.79 41.678,47.518 	"/>
	<rect x="43.81" y="52.842" clip-path="url(#SVGID_4_)" fill="#FFFFFF" width="6.777" height="2.663"/>
	<polygon clip-path="url(#SVGID_4_)" fill="#FFFFFF" points="67.066,60.456 64.514,60.456 61.631,50.951 58.749,60.456 
		56.196,60.456 52.016,44.79 55.206,44.79 57.627,54.668 60.487,44.79 62.775,44.79 65.636,54.668 68.078,44.79 71.269,44.79 	"/>
</g>
<g>
	<defs>
		<rect id="SVGID_5_" width="141.732" height="141.732"/>
	</defs>
	<clipPath id="SVGID_6_">
		<use xlink:href="#SVGID_5_"  overflow="visible"/>
	</clipPath>
	<line clip-path="url(#SVGID_6_)" fill="none" stroke="#FFFFFF" stroke-width="2.43" x1="0" y1="64.755" x2="141.732" y2="64.755"/>
	
		<line clip-path="url(#SVGID_6_)" fill="none" stroke="#FFFFFF" stroke-width="2.43" x1="107.766" y1="64.693" x2="142.966" y2="29.492"/>
	
		<line clip-path="url(#SVGID_6_)" fill="none" stroke="#FFFFFF" stroke-width="2.43" x1="142.999" y1="100.05" x2="107.765" y2="64.816"/>
	<line clip-path="url(#SVGID_6_)" fill="none" stroke="#1D1D1B" stroke-width="2" x1="0" y1="28.346" x2="141.732" y2="28.346"/>
	<line clip-path="url(#SVGID_6_)" fill="none" stroke="#1D1D1B" stroke-width="2" x1="0" y1="113.385" x2="141.732" y2="113.385"/>
</g>
</svg>
