<?xml version="1.0" encoding="UTF-8" standalone="no"?>
<!-- Generator: Adobe Illustrator 16.0.4, SVG Export Plug-In . SVG Version: 6.00 Build 0)  -->

<svg
   xmlns:dc="http://purl.org/dc/elements/1.1/"
   xmlns:cc="http://creativecommons.org/ns#"
   xmlns:rdf="http://www.w3.org/1999/02/22-rdf-syntax-ns#"
   xmlns:svg="http://www.w3.org/2000/svg"
   xmlns="http://www.w3.org/2000/svg"
   xmlns:xlink="http://www.w3.org/1999/xlink"
   xmlns:sodipodi="http://sodipodi.sourceforge.net/DTD/sodipodi-0.dtd"
   xmlns:inkscape="http://www.inkscape.org/namespaces/inkscape"
   version="1.1"
   id="Ebene_1"
   x="0px"
   y="0px"
   width="141.732px"
   height="141.732px"
   viewBox="0 0 141.732 141.732"
   enable-background="new 0 0 141.732 141.732"
   xml:space="preserve"
   inkscape:version="0.91 r13725"
   sodipodi:docname="Gefahr_Wassereinbruch.svg"><metadata
     id="metadata27"><rdf:RDF><cc:Work
         rdf:about=""><dc:format>image/svg+xml</dc:format><dc:type
           rdf:resource="http://purl.org/dc/dcmitype/StillImage" /><dc:title></dc:title></cc:Work></rdf:RDF></metadata><defs
     id="defs25" /><sodipodi:namedview
     pagecolor="#ffffff"
     bordercolor="#666666"
     borderopacity="1"
     objecttolerance="10"
     gridtolerance="10"
     guidetolerance="10"
     inkscape:pageopacity="0"
     inkscape:pageshadow="2"
     inkscape:window-width="1280"
     inkscape:window-height="1002"
     id="namedview23"
     showgrid="false"
     inkscape:snap-text-baseline="true"
     inkscape:zoom="1.6651145"
     inkscape:cx="70.865997"
     inkscape:cy="70.865997"
     inkscape:window-x="-8"
     inkscape:window-y="-8"
     inkscape:window-maximized="1"
     inkscape:current-layer="Ebene_1" /><g
     id="g3"><defs
       id="defs5"><rect
         id="SVGID_1_"
         width="141.732"
         height="141.732" /></defs><clipPath
       id="SVGID_2_"><use
         xlink:href="#SVGID_1_"
         overflow="visible"
         id="use9" /></clipPath><line
       clip-path="url(#SVGID_2_)"
       fill="none"
       stroke="#000000"
       stroke-width="2"
       x1="0"
       y1="28.346"
       x2="141.732"
       y2="28.346"
       id="line11" /><line
       clip-path="url(#SVGID_2_)"
       fill="none"
       stroke="#000000"
       stroke-width="2"
       x1="0"
       y1="113.385"
       x2="141.732"
       y2="113.385"
       id="line13" /></g><polygon
     fill="none"
     stroke="#C20E1A"
     stroke-width="2"
     stroke-miterlimit="10"
     points="109.415,37.982 70.866,104.75   32.318,37.982 "
     id="polygon15"
     style="stroke:#0000ff;stroke-opacity:1" /><g
     id="g4197"
     transform="matrix(0.58572333,0,0,0.54605182,-57.426428,69.55105)"><path
       inkscape:connector-curvature="0"
       id="path4421"
       d="m 211.32833,-25.871247 c -1.62999,-0.660261 -3.25552,-2.012329 -4.21259,-3.503906 l -1.55843,-2.428782 1.53294,-0.239721 c 0.84311,-0.131848 2.73878,0.541931 4.21259,1.497284 3.79658,2.461027 12.19163,2.478723 16.26182,0.03428 2.82319,-1.695528 5.47385,-2.189262 5.47385,-1.019603 0,1.420191 -3.0651,4.552257 -5.54183,5.66292 -3.31819,1.488 -12.49229,1.486601 -16.16835,-0.0025 z"
       style="fill:#0000ff;fill-opacity:1" /><path
       inkscape:connector-curvature="0"
       id="path4423"
       d="m 181.84323,-30.173435 c 0,-1.828276 3.20119,-5.240954 5.98595,-6.3814 3.61417,-1.480121 11.25221,-1.42332 15.05134,0.111927 2.88508,1.165878 6.26686,4.647638 6.26686,6.452136 0,1.19449 -3.15319,1.031231 -3.90545,-0.202206 -0.76638,-1.256585 -3.91813,-2.579335 -7.7579,-3.255903 -3.60127,-0.63454 -9.2026,0.73879 -11.20929,2.748283 -1.74638,1.748832 -4.43151,2.068247 -4.43151,0.527161 z"
       style="fill:#0000ff;fill-opacity:1" /><path
       inkscape:connector-curvature="0"
       id="path4425"
       d="m 230.44862,-31.400067 c 2.76921,-7.287032 19.71148,-8.690408 24.96288,-2.067746 1.70659,2.152217 1.99669,4.310644 0.57937,4.310644 -0.51632,0 -2.36567,-0.949979 -4.10966,-2.111065 -2.74179,-1.825384 -3.86759,-2.111065 -8.31923,-2.111065 -4.45164,0 -5.57744,0.285681 -8.31923,2.111065 -1.74399,1.161086 -3.7279,2.111065 -4.40868,2.111065 -1.18249,0 -1.19971,-0.100224 -0.38545,-2.242898 z"
       style="fill:#0000ff;fill-opacity:1" /><path
       inkscape:connector-curvature="0"
       id="path4421-7"
       d="m 210.99814,-15.034965 c -1.62998,-0.66026 -3.25551,-2.012329 -4.21259,-3.503907 l -1.55843,-2.428781 1.53294,-0.239721 c 0.84312,-0.131849 2.73879,0.54193 4.21259,1.497283 3.79659,2.461028 12.19164,2.478724 16.26183,0.03428 2.82318,-1.695529 5.47384,-2.189262 5.47384,-1.019604 0,1.420191 -3.06509,4.552259 -5.54183,5.662922 -3.31818,1.488 -12.49229,1.4866 -16.16835,-0.0025 z"
       style="fill:#0000ff;fill-opacity:1" /><path
       inkscape:connector-curvature="0"
       id="path4423-4"
       d="m 181.51305,-19.337153 c 0,-1.828276 3.20119,-5.240954 5.98595,-6.3814 3.61417,-1.48012 11.25221,-1.42332 15.05133,0.111927 2.88508,1.165877 6.26686,4.647638 6.26686,6.452136 0,1.19449 -3.15318,1.031231 -3.90545,-0.202207 -0.76638,-1.256585 -3.91812,-2.579335 -7.7579,-3.255903 -3.60126,-0.63454 -9.2026,0.73879 -11.20928,2.748283 -1.74638,1.748832 -4.43151,2.068248 -4.43151,0.527161 z"
       style="fill:#0000ff;fill-opacity:1" /><path
       inkscape:connector-curvature="0"
       id="path4425-7"
       d="m 230.11843,-20.563786 c 2.76922,-7.287031 19.71148,-8.690407 24.96289,-2.067746 1.70659,2.152218 1.99669,4.310644 0.57937,4.310644 -0.51633,0 -2.36567,-0.949979 -4.10966,-2.111065 -2.74179,-1.825384 -3.86759,-2.111064 -8.31923,-2.111064 -4.45164,0 -5.57745,0.28568 -8.31924,2.111064 -1.74398,1.161086 -3.72789,2.111065 -4.40868,2.111065 -1.18248,0 -1.1997,-0.100224 -0.38545,-2.242898 z"
       style="fill:#0000ff;fill-opacity:1" /></g></svg>