<?xml version="1.0" encoding="utf-8"?>
<!-- Generator: Adobe Illustrator 16.0.4, SVG Export Plug-In . SVG Version: 6.00 Build 0)  -->
<!DOCTYPE svg PUBLIC "-//W3C//DTD SVG 1.1//EN" "http://www.w3.org/Graphics/SVG/1.1/DTD/svg11.dtd">
<svg version="1.1" id="Ebene_1" xmlns="http://www.w3.org/2000/svg" xmlns:xlink="http://www.w3.org/1999/xlink" x="0px" y="0px"
	 width="141.732px" height="141.732px" viewBox="0 0 141.732 141.732" enable-background="new 0 0 141.732 141.732"
	 xml:space="preserve">
<g>
	<defs>
		<rect id="SVGID_1_" width="141.732" height="141.732"/>
	</defs>
	<clipPath id="SVGID_2_">
		<use xlink:href="#SVGID_1_"  overflow="visible"/>
	</clipPath>
	<line clip-path="url(#SVGID_2_)" fill="none" stroke="#000000" stroke-width="2" x1="0" y1="28.346" x2="141.732" y2="28.346"/>
	<line clip-path="url(#SVGID_2_)" fill="none" stroke="#000000" stroke-width="2" x1="0" y1="113.385" x2="141.732" y2="113.385"/>
</g>
<polygon fill="none" stroke="#C20E1A" stroke-width="2" stroke-miterlimit="10" points="109.415,37.982 70.866,104.75 
	32.318,37.982 "/>
<g>
	<path fill="#C20E1A" d="M68.234,68.717c-1.708,1.764-3.612,2.24-5.796,2.24c-2.324,0-4.088-0.784-5.544-2.24
		c-2.1-2.1-2.016-4.9-2.016-7.896c0-2.996-0.084-5.796,2.016-7.896c1.456-1.456,3.136-2.24,5.544-2.24
		c5.124,0,7.308,3.332,7.784,6.608h-4.928c-0.392-1.512-1.176-2.24-2.856-2.24c-0.896,0-1.568,0.392-1.932,0.868
		c-0.448,0.588-0.728,1.26-0.728,4.9c0,3.64,0.28,4.34,0.728,4.928c0.364,0.476,1.036,0.84,1.932,0.84
		c1.036,0,1.736-0.308,2.184-0.784c0.56-0.56,0.756-1.372,0.756-2.128v-0.28h-2.94v-4.088h7.812v2.772
		C70.25,65.301,69.746,67.177,68.234,68.717z"/>
	<path fill="#C20E1A" d="M79.322,70.957c-3.052,0-5.544-0.56-7.561-2.632l3.137-3.136c1.035,1.036,2.855,1.4,4.451,1.4
		c1.933,0,2.856-0.644,2.856-1.792c0-0.476-0.112-0.868-0.392-1.176c-0.252-0.252-0.673-0.448-1.316-0.532l-2.408-0.336
		c-1.764-0.252-3.107-0.84-4.004-1.764c-0.924-0.952-1.372-2.296-1.372-4.004c0-3.64,2.744-6.3,7.28-6.3
		c2.855,0,5.012,0.672,6.72,2.38l-3.08,3.08c-1.26-1.26-2.912-1.176-3.779-1.176c-1.708,0-2.408,0.98-2.408,1.848
		c0,0.252,0.084,0.616,0.392,0.924c0.252,0.252,0.672,0.504,1.372,0.588l2.408,0.336c1.792,0.252,3.08,0.812,3.92,1.652
		c1.063,1.036,1.484,2.52,1.484,4.368C87.022,68.745,83.522,70.957,79.322,70.957z"/>
</g>
</svg>
