<?xml version="1.0" encoding="utf-8"?>
<!-- Generator: Adobe Illustrator 16.0.4, SVG Export Plug-In . SVG Version: 6.00 Build 0)  -->
<!DOCTYPE svg PUBLIC "-//W3C//DTD SVG 1.1//EN" "http://www.w3.org/Graphics/SVG/1.1/DTD/svg11.dtd">
<svg version="1.1" id="Ebene_1" xmlns="http://www.w3.org/2000/svg" xmlns:xlink="http://www.w3.org/1999/xlink" x="0px" y="0px"
	 width="141.732px" height="141.732px" viewBox="0 0 141.732 141.732" enable-background="new 0 0 141.732 141.732"
	 xml:space="preserve">
<rect x="5.252" y="32.748" fill="#FFED00" width="131.229" height="66.031"/>
<rect x="5.252" y="32.748" fill="none" stroke="#000000" stroke-width="2" width="131.229" height="66.031"/>
<rect x="4.252" y="98.503" width="2" height="10.771"/>
<g>
	<path d="M39.883,78.21l-5.74-10.221l-2.101,2.416v7.806h-6.056V53.288h6.056v8.821l7.211-8.821h7.491l-8.506,10.081l8.786,14.842
		H39.883z"/>
	<path d="M58.327,78.21v-1.54c-1.155,1.155-2.205,1.715-4.2,1.715c-1.891,0-3.466-0.63-4.516-1.68
		c-1.085-1.085-1.645-2.66-1.645-4.411c0-2.835,1.925-5.46,6.405-5.46h3.815v-0.49c0-1.715-0.84-2.345-2.835-2.345
		c-1.47,0-2.101,0.35-3.01,1.26l-3.571-3.57c1.925-1.925,3.676-2.521,6.861-2.521c5.391,0,8.296,2.24,8.296,6.826V78.21H58.327z
		 M58.187,70.65h-2.905c-1.12,0-1.82,0.63-1.82,1.505c0,0.84,0.63,1.575,1.89,1.575c1.12,0,1.645-0.105,2.275-0.7
		c0.42-0.385,0.56-0.979,0.56-1.89V70.65z"/>
	<path d="M74.217,78.21c-4.166,0-5.846-2.976-5.846-5.565v-8.121h-1.715v-4.41h1.715v-5.391h5.74v5.391h2.976v4.41h-2.976v7.701
		c0,0.734,0.386,1.155,1.155,1.155h1.82v4.83H74.217z"/>
	<path d="M88.111,78.42c-3.815,0-6.931-0.7-9.451-3.29l3.921-3.921c1.295,1.295,3.57,1.75,5.565,1.75c2.415,0,3.57-0.805,3.57-2.24
		c0-0.595-0.14-1.085-0.49-1.47c-0.314-0.315-0.84-0.56-1.646-0.665l-3.01-0.42c-2.205-0.315-3.886-1.05-5.006-2.206
		c-1.155-1.19-1.715-2.87-1.715-5.005c0-4.55,3.431-7.876,9.101-7.876c3.57,0,6.266,0.84,8.401,2.976l-3.851,3.85
		c-1.575-1.575-3.641-1.47-4.726-1.47c-2.135,0-3.011,1.225-3.011,2.31c0,0.315,0.105,0.77,0.49,1.155
		c0.315,0.315,0.841,0.63,1.716,0.735l3.01,0.42c2.24,0.315,3.851,1.015,4.9,2.065c1.33,1.295,1.855,3.15,1.855,5.46
		C97.737,75.655,93.362,78.42,88.111,78.42z"/>
	<path d="M101.761,78.21V53.288h6.125V72.75h10.467v5.461H101.761z"/>
</g>
<g>
	<defs>
		<rect id="SVGID_1_" width="141.732" height="141.732"/>
	</defs>
	<clipPath id="SVGID_2_">
		<use xlink:href="#SVGID_1_"  overflow="visible"/>
	</clipPath>
	<line clip-path="url(#SVGID_2_)" fill="none" stroke="#000000" stroke-width="2" x1="0" y1="28.346" x2="141.732" y2="28.346"/>
	<line clip-path="url(#SVGID_2_)" fill="none" stroke="#000000" stroke-width="2" x1="0" y1="113.385" x2="141.732" y2="113.385"/>
</g>
</svg>
