<?xml version="1.0" encoding="utf-8"?>
<!-- Generator: Adobe Illustrator 16.0.4, SVG Export Plug-In . SVG Version: 6.00 Build 0)  -->
<!DOCTYPE svg PUBLIC "-//W3C//DTD SVG 1.1//EN" "http://www.w3.org/Graphics/SVG/1.1/DTD/svg11.dtd">
<svg version="1.1" id="Ebene_1" xmlns="http://www.w3.org/2000/svg" xmlns:xlink="http://www.w3.org/1999/xlink" x="0px" y="0px"
	 width="141.732px" height="141.732px" viewBox="0 0 141.732 141.732" enable-background="new 0 0 141.732 141.732"
	 xml:space="preserve">
<rect x="5.252" y="32.748" fill="#FFED00" width="131.229" height="66.031"/>
<rect x="5.252" y="32.748" fill="none" stroke="#000000" stroke-width="2" width="131.229" height="66.031"/>
<rect x="4.252" y="98.503" width="2" height="10.771"/>
<g>
	<path d="M55.353,78.21l-5.74-10.221l-2.101,2.416v7.806h-6.056V53.288h6.056v8.821l7.211-8.821h7.491l-8.506,10.081l8.786,14.842
		H55.353z"/>
	<path d="M65.011,78.21V53.288h16.942v5.461H71.137v4.166h9.241v5.46h-9.241v4.375h10.816v5.461H65.011z"/>
	<path d="M86.291,78.21V53.288h6.125V72.75h10.467v5.461H86.291z"/>
</g>
<g>
	<defs>
		<rect id="SVGID_1_" width="141.732" height="141.732"/>
	</defs>
	<clipPath id="SVGID_2_">
		<use xlink:href="#SVGID_1_"  overflow="visible"/>
	</clipPath>
	<line clip-path="url(#SVGID_2_)" fill="none" stroke="#000000" stroke-width="2" x1="0" y1="28.346" x2="141.732" y2="28.346"/>
	<line clip-path="url(#SVGID_2_)" fill="none" stroke="#000000" stroke-width="2" x1="0" y1="113.385" x2="141.732" y2="113.385"/>
</g>
</svg>
