<?xml version="1.0" encoding="utf-8"?>
<!-- Generator: Adobe Illustrator 16.0.4, SVG Export Plug-In . SVG Version: 6.00 Build 0)  -->
<!DOCTYPE svg PUBLIC "-//W3C//DTD SVG 1.1//EN" "http://www.w3.org/Graphics/SVG/1.1/DTD/svg11.dtd">
<svg version="1.1" id="Ebene_1" xmlns="http://www.w3.org/2000/svg" xmlns:xlink="http://www.w3.org/1999/xlink" x="0px" y="0px"
	 width="141.732px" height="141.732px" viewBox="0 0 141.732 141.732" enable-background="new 0 0 141.732 141.732"
	 xml:space="preserve">
<g>
	<defs>
		<rect id="SVGID_1_" width="141.732" height="141.732"/>
	</defs>
	<clipPath id="SVGID_2_">
		<use xlink:href="#SVGID_1_"  overflow="visible"/>
	</clipPath>
	<line clip-path="url(#SVGID_2_)" fill="none" stroke="#000000" stroke-width="2" x1="0" y1="28.346" x2="141.732" y2="28.346"/>
	<line clip-path="url(#SVGID_2_)" fill="none" stroke="#000000" stroke-width="2" x1="0" y1="113.385" x2="141.732" y2="113.385"/>
</g>
<rect x="43.512" y="43.511" transform="matrix(-0.7071 -0.7071 0.7071 -0.7071 70.8663 171.0855)" fill="#FFED00" width="54.709" height="54.71"/>
<rect x="43.512" y="43.511" transform="matrix(-0.7071 -0.7071 0.7071 -0.7071 70.8663 171.0855)" fill="none" stroke="#000000" stroke-width="2" width="54.709" height="54.71"/>
<polygon points="85.456,46.771 70.867,32.182 56.275,46.771 "/>
<g>
	<path d="M45.876,80.852V60.916h4.9v15.568h8.372v4.368H45.876z"/>
	<path d="M73.288,80.852l-6.384-10.024v10.024h-4.9V60.916h4.284l6.384,10.024V60.916h4.9v19.936H73.288z"/>
	<path d="M92.748,80.852l-0.924-2.968h-6.133l-0.979,2.968h-5.124l7.252-19.936h3.78l7.252,19.936H92.748z M88.855,68.476
		l-1.792,5.32h3.473L88.855,68.476z"/>
</g>
</svg>
