<?xml version="1.0" encoding="UTF-8" standalone="no"?>
<!-- Generator: Adobe Illustrator 16.0.4, SVG Export Plug-In . SVG Version: 6.00 Build 0)  -->

<svg
   xmlns:dc="http://purl.org/dc/elements/1.1/"
   xmlns:cc="http://creativecommons.org/ns#"
   xmlns:rdf="http://www.w3.org/1999/02/22-rdf-syntax-ns#"
   xmlns:svg="http://www.w3.org/2000/svg"
   xmlns="http://www.w3.org/2000/svg"
   xmlns:xlink="http://www.w3.org/1999/xlink"
   xmlns:sodipodi="http://sodipodi.sourceforge.net/DTD/sodipodi-0.dtd"
   xmlns:inkscape="http://www.inkscape.org/namespaces/inkscape"
   version="1.1"
   id="Ebene_1"
   x="0px"
   y="0px"
   width="141.732px"
   height="141.732px"
   viewBox="0 0 141.732 141.732"
   enable-background="new 0 0 141.732 141.732"
   xml:space="preserve"
   inkscape:version="0.91 r13725"
   sodipodi:docname="LNA_Landkreis.svg"><metadata
     id="metadata33"><rdf:RDF><cc:Work
         rdf:about=""><dc:format>image/svg+xml</dc:format><dc:type
           rdf:resource="http://purl.org/dc/dcmitype/StillImage" /><dc:title></dc:title></cc:Work></rdf:RDF></metadata><defs
     id="defs31" /><sodipodi:namedview
     pagecolor="#ffffff"
     bordercolor="#666666"
     borderopacity="1"
     objecttolerance="10"
     gridtolerance="10"
     guidetolerance="10"
     inkscape:pageopacity="0"
     inkscape:pageshadow="2"
     inkscape:window-width="1280"
     inkscape:window-height="1002"
     id="namedview29"
     showgrid="false"
     inkscape:zoom="1.6651145"
     inkscape:cx="70.865997"
     inkscape:cy="70.865997"
     inkscape:window-x="-8"
     inkscape:window-y="-8"
     inkscape:window-maximized="1"
     inkscape:current-layer="Ebene_1" /><g
     id="g3"><defs
       id="defs5"><rect
         id="SVGID_1_"
         width="141.732"
         height="141.732" /></defs><clipPath
       id="SVGID_2_"><use
         xlink:href="#SVGID_1_"
         overflow="visible"
         id="use9" /></clipPath><line
       clip-path="url(#SVGID_2_)"
       fill="none"
       stroke="#000000"
       stroke-width="2"
       x1="0"
       y1="28.346"
       x2="141.732"
       y2="28.346"
       id="line11" /><line
       clip-path="url(#SVGID_2_)"
       fill="none"
       stroke="#000000"
       stroke-width="2"
       x1="0"
       y1="113.385"
       x2="141.732"
       y2="113.385"
       id="line13" /></g><rect
     x="43.512"
     y="43.511"
     transform="matrix(-0.7071 -0.7071 0.7071 -0.7071 70.8663 171.0855)"
     fill="#FFED00"
     width="54.709"
     height="54.71"
     id="rect15" /><rect
     x="43.512"
     y="43.511"
     transform="matrix(-0.7071 -0.7071 0.7071 -0.7071 70.8663 171.0855)"
     fill="none"
     stroke="#000000"
     stroke-width="2"
     width="54.709"
     height="54.71"
     id="rect17" /><polygon
     points="85.456,46.771 70.867,32.182 56.275,46.771 "
     id="polygon19" /><g
     id="g21"><path
       d="M45.876,80.852V60.916h4.9v15.568h8.372v4.368H45.876z"
       id="path23" /><path
       d="M73.288,80.852l-6.384-10.024v10.024h-4.9V60.916h4.284l6.384,10.024V60.916h4.9v19.936H73.288z"
       id="path25" /><path
       d="M92.748,80.852l-0.924-2.968h-6.133l-0.979,2.968h-5.124l7.252-19.936h3.78l7.252,19.936H92.748z M88.855,68.476   l-1.792,5.32h3.473L88.855,68.476z"
       id="path27" /></g><path
     sodipodi:type="star"
     style="fill:#000000;fill-opacity:1"
     id="path4161"
     sodipodi:sides="5"
     sodipodi:cx="44.762806"
     sodipodi:cy="38.845138"
     sodipodi:r1="9.0083895"
     sodipodi:r2="4.5041947"
     sodipodi:arg1="0.92729522"
     sodipodi:arg2="1.5556137"
     inkscape:flatsided="false"
     inkscape:rounded="0"
     inkscape:randomized="0"
     d="m 50.16784,46.05185 -5.336651,-2.703036 -5.252126,2.863813 0.921624,-5.91074 -4.346644,-4.110102 5.906246,-0.950002 2.565752,-5.403996 2.728636,5.323607 5.932366,0.770248 -4.219856,4.240173 z"
     inkscape:transform-center-x="0.04226281"
     inkscape:transform-center-y="-0.81993122" /><path
     sodipodi:type="star"
     style="fill:#000000;fill-opacity:1"
     id="path4161-7"
     sodipodi:sides="5"
     sodipodi:cx="95.852608"
     sodipodi:cy="39.064506"
     sodipodi:r1="9.0083895"
     sodipodi:r2="4.5041947"
     sodipodi:arg1="0.92729522"
     sodipodi:arg2="1.5556137"
     inkscape:flatsided="false"
     inkscape:rounded="0"
     inkscape:randomized="0"
     d="m 101.25764,46.271218 -5.336649,-2.703036 -5.252126,2.863813 0.921624,-5.91074 -4.346644,-4.110102 5.906246,-0.950002 2.565751,-5.403996 2.728637,5.323607 5.932371,0.770248 -4.21986,4.240173 z"
     inkscape:transform-center-x="0.04226281"
     inkscape:transform-center-y="-0.81993122" /></svg>