<?xml version="1.0" encoding="utf-8"?>
<!-- Generator: Adobe Illustrator 16.0.4, SVG Export Plug-In . SVG Version: 6.00 Build 0)  -->
<!DOCTYPE svg PUBLIC "-//W3C//DTD SVG 1.1//EN" "http://www.w3.org/Graphics/SVG/1.1/DTD/svg11.dtd">
<svg version="1.1" id="Ebene_1" xmlns="http://www.w3.org/2000/svg" xmlns:xlink="http://www.w3.org/1999/xlink" x="0px" y="0px"
	 width="141.732px" height="141.732px" viewBox="0 0 141.732 141.732" enable-background="new 0 0 141.732 141.732"
	 xml:space="preserve">
<g>
	<defs>
		<rect id="SVGID_1_" width="141.732" height="141.732"/>
	</defs>
	<clipPath id="SVGID_2_">
		<use xlink:href="#SVGID_1_"  overflow="visible"/>
	</clipPath>
	<path clip-path="url(#SVGID_2_)" fill="#FFED00" d="M70.866,110.075c20.352,0,36.85-16.498,36.85-36.851
		c0-20.352-16.498-36.851-36.85-36.851c-20.352,0-36.85,16.499-36.85,36.851C34.016,93.577,50.514,110.075,70.866,110.075"/>
	<circle clip-path="url(#SVGID_2_)" fill="none" stroke="#000000" stroke-width="2" cx="70.866" cy="73.224" r="36.851"/>
</g>
<polyline fill="none" stroke="#000000" stroke-width="2" points="14.25,47.712 70.867,31.696 127.482,47.712 "/>
<g>
	<defs>
		<rect id="SVGID_3_" width="141.732" height="141.732"/>
	</defs>
	<clipPath id="SVGID_4_">
		<use xlink:href="#SVGID_3_"  overflow="visible"/>
	</clipPath>
	<path clip-path="url(#SVGID_4_)" d="M98.109,48.472c-6.741-7.415-16.433-12.098-27.243-12.098
		c-10.811,0-20.503,4.683-27.244,12.098H98.109z"/>
</g>
<g>
	<path d="M46.577,85.297V60.375h6.125v19.462h10.466v5.461H46.577z"/>
	<path d="M72.652,85.297c-4.166,0-5.846-2.976-5.846-5.565v-8.121h-1.715v-4.41h1.715V61.81h5.74v5.391h2.976v4.41h-2.976v7.701
		c0,0.734,0.386,1.155,1.155,1.155h1.82v4.83H72.652z"/>
	<path d="M86.547,85.507c-3.815,0-6.931-0.7-9.451-3.29l3.921-3.921c1.295,1.295,3.57,1.75,5.565,1.75c2.415,0,3.57-0.805,3.57-2.24
		c0-0.595-0.14-1.085-0.49-1.47c-0.314-0.315-0.84-0.56-1.646-0.665l-3.01-0.42c-2.205-0.315-3.886-1.05-5.006-2.205
		c-1.155-1.19-1.715-2.871-1.715-5.006c0-4.55,3.431-7.876,9.101-7.876c3.57,0,6.266,0.84,8.401,2.976l-3.851,3.85
		c-1.575-1.575-3.641-1.47-4.726-1.47c-2.135,0-3.011,1.225-3.011,2.31c0,0.315,0.105,0.77,0.49,1.155
		c0.315,0.315,0.841,0.63,1.716,0.735l3.01,0.42c2.24,0.315,3.851,1.015,4.9,2.065c1.33,1.296,1.855,3.15,1.855,5.461
		C96.173,82.742,91.798,85.507,86.547,85.507z"/>
</g>
<g>
	<defs>
		<rect id="SVGID_5_" width="141.732" height="141.732"/>
	</defs>
	<clipPath id="SVGID_6_">
		<use xlink:href="#SVGID_5_"  overflow="visible"/>
	</clipPath>
	<line clip-path="url(#SVGID_6_)" fill="none" stroke="#000000" stroke-width="2" x1="0" y1="28.346" x2="141.732" y2="28.346"/>
	<line clip-path="url(#SVGID_6_)" fill="none" stroke="#000000" stroke-width="2" x1="0" y1="113.385" x2="141.732" y2="113.385"/>
</g>
</svg>
