<?xml version="1.0" encoding="utf-8"?>
<!-- Generator: Adobe Illustrator 16.0.4, SVG Export Plug-In . SVG Version: 6.00 Build 0)  -->
<!DOCTYPE svg PUBLIC "-//W3C//DTD SVG 1.1//EN" "http://www.w3.org/Graphics/SVG/1.1/DTD/svg11.dtd">
<svg version="1.1" id="Ebene_1" xmlns="http://www.w3.org/2000/svg" xmlns:xlink="http://www.w3.org/1999/xlink" x="0px" y="0px"
	 width="141.732px" height="141.732px" viewBox="0 0 141.732 141.732" enable-background="new 0 0 141.732 141.732"
	 xml:space="preserve">
<rect x="5.252" y="32.748" fill="#FFED00" width="131.229" height="66.031"/>
<rect x="5.252" y="32.748" fill="none" stroke="#000000" stroke-width="2" width="131.229" height="66.031"/>
<rect x="4.252" y="98.503" width="2" height="10.771"/>
<g>
	<path d="M41.964,78.21V53.288h6.125V72.75h10.466v5.461H41.964z"/>
	<path d="M72.1,78.21v-1.54c-1.155,1.155-2.871,1.75-4.376,1.75c-1.785,0-3.22-0.595-4.235-1.61c-1.61-1.61-1.89-3.396-1.89-5.39
		V59.378h5.741V70.65c0,2.17,1.54,2.59,2.31,2.59s2.31-0.42,2.31-2.59V59.378H77.7V78.21H72.1z"/>
	<path d="M96.285,78.21l-5.741-10.221l-2.1,2.416v7.806h-6.056V53.288h6.056v8.821l7.211-8.821h7.49L94.64,63.369l8.786,14.842
		H96.285z"/>
</g>
<g>
	<defs>
		<rect id="SVGID_1_" width="141.732" height="141.732"/>
	</defs>
	<clipPath id="SVGID_2_">
		<use xlink:href="#SVGID_1_"  overflow="visible"/>
	</clipPath>
	<line clip-path="url(#SVGID_2_)" fill="none" stroke="#000000" stroke-width="2" x1="0" y1="28.346" x2="141.732" y2="28.346"/>
	<line clip-path="url(#SVGID_2_)" fill="none" stroke="#000000" stroke-width="2" x1="0" y1="113.385" x2="141.732" y2="113.385"/>
</g>
</svg>
