<?xml version="1.0" encoding="utf-8"?>
<!-- Generator: Adobe Illustrator 16.0.4, SVG Export Plug-In . SVG Version: 6.00 Build 0)  -->
<!DOCTYPE svg PUBLIC "-//W3C//DTD SVG 1.1//EN" "http://www.w3.org/Graphics/SVG/1.1/DTD/svg11.dtd">
<svg version="1.1" id="Ebene_1" xmlns="http://www.w3.org/2000/svg" xmlns:xlink="http://www.w3.org/1999/xlink" x="0px" y="0px"
	 width="141.732px" height="141.732px" viewBox="0 0 141.732 141.732" enable-background="new 0 0 141.732 141.732"
	 xml:space="preserve">
<g>
	<defs>
		<rect id="SVGID_1_" width="141.732" height="141.732"/>
	</defs>
	<clipPath id="SVGID_2_">
		<use xlink:href="#SVGID_1_"  overflow="visible"/>
	</clipPath>
	<line clip-path="url(#SVGID_2_)" fill="none" stroke="#000000" stroke-width="2" x1="0" y1="28.346" x2="141.732" y2="28.346"/>
	<line clip-path="url(#SVGID_2_)" fill="none" stroke="#000000" stroke-width="2" x1="0" y1="113.385" x2="141.732" y2="113.385"/>
</g>
<rect x="43.512" y="43.511" transform="matrix(-0.7071 -0.7071 0.7071 -0.7071 70.8663 171.0855)" fill="#FFED00" width="54.709" height="54.71"/>
<rect x="43.512" y="43.511" transform="matrix(-0.7071 -0.7071 0.7071 -0.7071 70.8663 171.0855)" fill="none" stroke="#000000" stroke-width="2" width="54.709" height="54.71"/>
<polygon points="85.456,46.771 70.867,32.182 56.275,46.771 "/>
<g>
	<path d="M56.774,78.78c-1.339,1.456-2.885,2.24-5.125,2.24s-3.786-0.784-5.125-2.24c-1.932-2.1-1.854-4.899-1.854-7.896
		s-0.077-5.796,1.854-7.896c1.339-1.456,2.885-2.24,5.125-2.24s3.786,0.784,5.125,2.24c1.932,2.1,1.854,4.9,1.854,7.896
		S58.706,76.68,56.774,78.78z M53.452,65.984c-0.335-0.476-0.979-0.868-1.803-0.868s-1.468,0.392-1.803,0.868
		c-0.412,0.588-0.669,1.26-0.669,4.9c0,3.64,0.257,4.284,0.669,4.872c0.335,0.476,0.979,0.896,1.803,0.896s1.468-0.42,1.803-0.896
		c0.412-0.588,0.669-1.232,0.669-4.872C54.122,67.244,53.864,66.572,53.452,65.984z"/>
	<path d="M68.161,70.548c-0.412-0.448-0.798-0.784-1.52-0.784c-0.567,0-1.7,0.364-1.7,2.072v9.016h-4.225V65.788h4.121v1.232
		c0.618-0.672,1.829-1.4,3.271-1.4c1.365,0,2.292,0.364,3.245,1.4L68.161,70.548z"/>
	<path d="M76.43,85.892c-2.163,0-3.786-0.42-5.202-1.96l2.627-2.856c0.644,0.7,1.417,0.952,2.37,0.952
		c1.776,0,2.24-1.315,2.24-2.296V78.64c-0.772,0.84-1.7,1.26-2.987,1.26c-1.34,0-2.447-0.476-3.246-1.344
		c-1.262-1.372-1.288-3.052-1.288-5.796s0.026-4.424,1.288-5.796c0.799-0.868,1.933-1.344,3.271-1.344
		c1.417,0,2.241,0.476,3.091,1.4v-1.232h4.096V79.76C82.689,83.316,80.217,85.892,76.43,85.892z M76.816,69.764
		c-1.545,0-1.648,1.456-1.648,2.996s0.104,2.996,1.648,2.996c1.546,0,1.648-1.456,1.648-2.996S78.362,69.764,76.816,69.764z"/>
	<path d="M85.395,80.852V60.916h4.508v15.568h7.701v4.368H85.395z"/>
</g>
</svg>
