<?xml version="1.0" encoding="UTF-8" standalone="no"?>
<!-- Generator: Adobe Illustrator 16.0.4, SVG Export Plug-In . SVG Version: 6.00 Build 0)  -->

<svg
   xmlns:dc="http://purl.org/dc/elements/1.1/"
   xmlns:cc="http://creativecommons.org/ns#"
   xmlns:rdf="http://www.w3.org/1999/02/22-rdf-syntax-ns#"
   xmlns:svg="http://www.w3.org/2000/svg"
   xmlns="http://www.w3.org/2000/svg"
   xmlns:xlink="http://www.w3.org/1999/xlink"
   xmlns:sodipodi="http://sodipodi.sourceforge.net/DTD/sodipodi-0.dtd"
   xmlns:inkscape="http://www.inkscape.org/namespaces/inkscape"
   version="1.1"
   id="Ebene_1"
   x="0px"
   y="0px"
   width="141.732px"
   height="141.732px"
   viewBox="0 0 141.732 141.732"
   enable-background="new 0 0 141.732 141.732"
   xml:space="preserve"
   inkscape:version="0.91 r13725"
   sodipodi:docname="RD_Einsatzeinheit.svg"><metadata
     id="metadata39"><rdf:RDF><cc:Work
         rdf:about=""><dc:format>image/svg+xml</dc:format><dc:type
           rdf:resource="http://purl.org/dc/dcmitype/StillImage" /><dc:title></dc:title></cc:Work></rdf:RDF></metadata><defs
     id="defs37"><clipPath
       id="SVGID_4_"><rect
         height="141.73199"
         width="141.73199"
         id="use35"
         x="0"
         y="0" /></clipPath><clipPath
       id="SVGID_6_"><rect
         height="141.73199"
         width="141.73199"
         id="use49"
         x="0"
         y="0" /></clipPath><clipPath
       id="clipPath4239"><rect
         height="141.73199"
         width="141.73199"
         id="use4241"
         x="0"
         y="0" /></clipPath><clipPath
       id="SVGID_2_-3"><use
         height="100%"
         width="100%"
         y="0"
         x="0"
         style="overflow:visible"
         id="use9"
         overflow="visible"
         xlink:href="#SVGID_1_" /></clipPath><clipPath
       id="clipPath4183"><use
         height="100%"
         width="100%"
         y="0"
         x="0"
         style="overflow:visible"
         id="use4185"
         overflow="visible"
         xlink:href="#SVGID_1_" /></clipPath></defs><sodipodi:namedview
     pagecolor="#ffffff"
     bordercolor="#666666"
     borderopacity="1"
     objecttolerance="10"
     gridtolerance="10"
     guidetolerance="10"
     inkscape:pageopacity="0"
     inkscape:pageshadow="2"
     inkscape:window-width="1280"
     inkscape:window-height="1002"
     id="namedview35"
     showgrid="false"
     inkscape:zoom="2.92"
     inkscape:cx="24.867896"
     inkscape:cy="70.865997"
     inkscape:window-x="-8"
     inkscape:window-y="-8"
     inkscape:window-maximized="1"
     inkscape:current-layer="Ebene_1" /><g
     id="g5"><defs
       id="defs7"><rect
         id="SVGID_1_"
         width="141.732"
         height="141.732" /></defs><clipPath
       id="SVGID_2_"><use
         xlink:href="#SVGID_1_"
         overflow="visible"
         id="use11" /></clipPath><path
       clip-path="url(#SVGID_2_)"
       d="M91.417,40.69c2.428,0,4.395-1.967,4.395-4.394c0-2.426-1.967-4.393-4.395-4.393   c-2.427,0-4.394,1.967-4.394,4.393C87.023,38.723,88.99,40.69,91.417,40.69"
       id="path13" /><path
       clip-path="url(#SVGID_2_)"
       d="M50.315,40.69c2.427,0,4.394-1.967,4.394-4.394c0-2.426-1.967-4.393-4.394-4.393   c-2.427,0-4.394,1.967-4.394,4.393C45.921,38.723,47.888,40.69,50.315,40.69"
       id="path15" /><path
       clip-path="url(#SVGID_2_)"
       d="M70.866,40.69c2.427,0,4.394-1.967,4.394-4.394c0-2.426-1.967-4.393-4.394-4.393   c-2.427,0-4.394,1.967-4.394,4.393C66.472,38.723,68.439,40.69,70.866,40.69"
       id="path17" /><line
       clip-path="url(#SVGID_2_)"
       fill="none"
       stroke="#FFFFFF"
       stroke-width="3"
       x1="0"
       y1="78.316"
       x2="142.651"
       y2="78.316"
       id="line19" /><line
       clip-path="url(#SVGID_2_)"
       fill="none"
       stroke="#FFFFFF"
       stroke-width="3"
       x1="101.436"
       y1="77.978"
       x2="142.771"
       y2="44.41"
       id="line21" /><line
       clip-path="url(#SVGID_2_)"
       fill="none"
       stroke="#FFFFFF"
       stroke-width="3"
       x1="142.771"
       y1="112.221"
       x2="101.435"
       y2="78.653"
       id="line23" /><line
       clip-path="url(#SVGID_2_)"
       fill="none"
       stroke="#000000"
       stroke-width="2"
       x1="0"
       y1="28.346"
       x2="141.732"
       y2="28.346"
       id="line25" /><line
       clip-path="url(#SVGID_2_)"
       fill="none"
       stroke="#000000"
       stroke-width="2"
       x1="0"
       y1="113.385"
       x2="141.732"
       y2="113.385"
       id="line27" /></g><g
     id="g4222"
     transform="matrix(1.0049389,0,0,1,187.09387,-16.816938)"><rect
       x="1"
       y="44.369999"
       clip-path="url(#SVGID_2_-3)"
       width="139.73199"
       height="69.015999"
       id="rect11"
       style="fill:none;stroke:#000000;stroke-width:2"
       transform="translate(-186.17338,16.610926)" /><line
       clip-path="url(#SVGID_2_-3)"
       x1="0"
       y1="78.876999"
       x2="141.73199"
       y2="78.876999"
       id="line17"
       style="fill:none;stroke:#000000;stroke-width:2"
       transform="translate(-186.17338,16.610926)" /><line
       id="line19-6"
       y2="59.980927"
       x2="-115.30739"
       y1="130.99693"
       x1="-115.30739"
       style="fill:none;stroke:#000000;stroke-width:2" /></g><path
     style="fill:none;fill-rule:evenodd;stroke:#000000;stroke-width:2.5;stroke-linecap:butt;stroke-linejoin:miter;stroke-opacity:1;stroke-miterlimit:4;stroke-dasharray:none"
     d="M 1.0273973,113.30734 71.232877,44.129255 141.43836,113.30734"
     id="path5326"
     inkscape:connector-curvature="0" /></svg>