<?xml version="1.0" encoding="utf-8"?>
<!-- Generator: Adobe Illustrator 16.0.4, SVG Export Plug-In . SVG Version: 6.00 Build 0)  -->
<!DOCTYPE svg PUBLIC "-//W3C//DTD SVG 1.1//EN" "http://www.w3.org/Graphics/SVG/1.1/DTD/svg11.dtd">
<svg version="1.1" id="Ebene_1" xmlns="http://www.w3.org/2000/svg" xmlns:xlink="http://www.w3.org/1999/xlink" x="0px" y="0px"
	 width="141.732px" height="141.732px" viewBox="0 0 141.732 141.732" enable-background="new 0 0 141.732 141.732"
	 xml:space="preserve">
<g>
	<defs>
		<rect id="SVGID_1_" width="141.732" height="141.732"/>
	</defs>
	<clipPath id="SVGID_2_">
		<use xlink:href="#SVGID_1_"  overflow="visible"/>
	</clipPath>
	
		<rect x="1" y="44.37" clip-path="url(#SVGID_2_)" fill="none" stroke="#000000" stroke-width="2" width="139.732" height="69.016"/>
	<line clip-path="url(#SVGID_2_)" fill="none" stroke="#000000" stroke-width="2" x1="0" y1="28.346" x2="141.732" y2="28.346"/>
	<line clip-path="url(#SVGID_2_)" fill="none" stroke="#000000" stroke-width="2" x1="0" y1="113.385" x2="141.732" y2="113.385"/>
	<line clip-path="url(#SVGID_2_)" fill="none" stroke="#000000" stroke-width="2" x1="0" y1="78.877" x2="141.732" y2="78.877"/>
</g>
<line fill="none" stroke="#000000" stroke-width="2" x1="70.866" y1="114.386" x2="70.866" y2="43.37"/>
<g>
	<path d="M17.854,70.638l-3.059-6.249h-2.2v6.249H9.537V54.972h6.139c3.19,0,5.083,2.178,5.083,4.796c0,2.2-1.342,3.564-2.86,4.115
		l3.499,6.755H17.854z M15.478,57.7h-2.882v4.137h2.882c1.342,0,2.222-0.858,2.222-2.068C17.7,58.559,16.82,57.7,15.478,57.7z"/>
	<path d="M25.949,65.797c0,1.474,0.902,2.553,2.508,2.553c1.254,0,1.87-0.353,2.596-1.079l1.738,1.694
		c-1.166,1.167-2.288,1.804-4.356,1.804c-2.707,0-5.303-1.232-5.303-5.875c0-3.741,2.024-5.853,4.995-5.853
		c3.19,0,4.995,2.333,4.995,5.479v1.276H25.949z M30.042,62.607c-0.308-0.682-0.946-1.188-1.915-1.188s-1.606,0.506-1.914,1.188
		c-0.176,0.418-0.242,0.726-0.264,1.232h4.356C30.284,63.333,30.218,63.025,30.042,62.607z"/>
	<path d="M39.347,70.638c-2.333,0-3.323-1.65-3.323-3.278v-5.677h-1.21v-2.179h1.21v-3.388h2.86v3.388h2.024v2.179h-2.024v5.5
		c0,0.66,0.308,1.034,0.99,1.034h1.034v2.42H39.347z"/>
	<path d="M47.091,70.638c-2.333,0-3.323-1.65-3.323-3.278v-5.677h-1.21v-2.179h1.21v-3.388h2.86v3.388h2.024v2.179h-2.024v5.5
		c0,0.66,0.308,1.034,0.99,1.034h1.034v2.42H47.091z"/>
	<path d="M61.26,69.142c-1.034,1.034-2.508,1.496-4.137,1.496h-5.655V54.972h5.655c1.628,0,3.103,0.462,4.137,1.496
		c1.76,1.76,1.584,3.917,1.584,6.271C62.844,65.093,63.02,67.382,61.26,69.142z M59.125,58.668
		c-0.528-0.638-1.232-0.968-2.289-0.968h-2.31V67.91h2.31c1.056,0,1.76-0.33,2.289-0.968c0.572-0.704,0.66-1.827,0.66-4.203
		C59.786,60.363,59.698,59.373,59.125,58.668z"/>
</g>
</svg>
