<?xml version="1.0" encoding="utf-8"?>
<!-- Generator: Adobe Illustrator 16.0.4, SVG Export Plug-In . SVG Version: 6.00 Build 0)  -->
<!DOCTYPE svg PUBLIC "-//W3C//DTD SVG 1.1//EN" "http://www.w3.org/Graphics/SVG/1.1/DTD/svg11.dtd">
<svg version="1.1" id="Ebene_1" xmlns="http://www.w3.org/2000/svg" xmlns:xlink="http://www.w3.org/1999/xlink" x="0px" y="0px"
	 width="141.732px" height="141.732px" viewBox="0 0 141.732 141.732" enable-background="new 0 0 141.732 141.732"
	 xml:space="preserve">
<g>
	<defs>
		<rect id="SVGID_1_" width="141.732" height="141.732"/>
	</defs>
	<clipPath id="SVGID_2_">
		<use xlink:href="#SVGID_1_"  overflow="visible"/>
	</clipPath>
	
		<rect x="1" y="44.37" clip-path="url(#SVGID_2_)" fill="none" stroke="#000000" stroke-width="2" width="139.732" height="69.016"/>
	<path clip-path="url(#SVGID_2_)" d="M91.417,40.69c2.428,0,4.395-1.967,4.395-4.394c0-2.426-1.967-4.393-4.395-4.393
		c-2.427,0-4.394,1.967-4.394,4.393C87.023,38.723,88.99,40.69,91.417,40.69"/>
	<path clip-path="url(#SVGID_2_)" d="M50.315,40.69c2.427,0,4.394-1.967,4.394-4.394c0-2.426-1.967-4.393-4.394-4.393
		c-2.427,0-4.394,1.967-4.394,4.393C45.921,38.723,47.888,40.69,50.315,40.69"/>
	<line clip-path="url(#SVGID_2_)" fill="none" stroke="#000000" stroke-width="2" x1="0" y1="28.346" x2="141.732" y2="28.346"/>
	<line clip-path="url(#SVGID_2_)" fill="none" stroke="#000000" stroke-width="2" x1="0" y1="113.385" x2="141.732" y2="113.385"/>
	<line clip-path="url(#SVGID_2_)" fill="none" stroke="#000000" stroke-width="2" x1="0" y1="78.877" x2="141.732" y2="78.877"/>
</g>
<line fill="none" stroke="#000000" stroke-width="2" x1="70.866" y1="114.386" x2="70.866" y2="43.37"/>
<g>
	<path d="M21.78,70.77c-2.376,0-4.18-0.506-5.721-2.068l1.98-1.98c0.99,0.99,2.332,1.32,3.785,1.32c1.804,0,2.772-0.682,2.772-1.937
		c0-0.55-0.154-1.012-0.484-1.32c-0.308-0.286-0.66-0.44-1.386-0.55l-1.892-0.264c-1.342-0.198-2.333-0.616-3.037-1.298
		c-0.748-0.748-1.122-1.76-1.122-3.08c0-2.794,2.068-4.753,5.457-4.753c2.157,0,3.719,0.528,5.061,1.826l-1.937,1.915
		c-0.99-0.946-2.178-1.078-3.212-1.078c-1.628,0-2.42,0.902-2.42,1.98c0,0.396,0.132,0.814,0.462,1.123
		c0.308,0.286,0.814,0.528,1.452,0.616l1.848,0.264c1.43,0.198,2.333,0.594,2.992,1.21c0.836,0.792,1.21,1.937,1.21,3.323
		C27.589,69.054,25.059,70.77,21.78,70.77z"/>
	<path d="M30.47,70.638V54.972h10.319V57.7h-7.261v3.675h6.183v2.728h-6.183v3.807h7.261v2.729H30.47z"/>
	<path d="M53.439,68.988c-1.254,1.298-2.75,1.782-4.423,1.782c-1.716,0-3.125-0.616-4.225-1.716c-1.584-1.584-1.54-3.543-1.54-6.249
		c0-2.707-0.044-4.665,1.54-6.249c1.1-1.1,2.464-1.716,4.225-1.716c3.63,0,5.479,2.376,5.897,5.017h-3.081
		c-0.352-1.474-1.254-2.288-2.816-2.288c-0.836,0-1.518,0.33-1.958,0.836c-0.594,0.66-0.748,1.386-0.748,4.401
		c0,3.014,0.154,3.762,0.748,4.422c0.44,0.506,1.123,0.814,1.958,0.814c0.924,0,1.672-0.33,2.178-0.88
		c0.506-0.572,0.704-1.276,0.704-2.09v-0.594h-2.882v-2.552h5.919v2.289C54.935,66.479,54.539,67.844,53.439,68.988z"/>
</g>
</svg>
