<?xml version="1.0" encoding="utf-8"?>
<!-- Generator: Adobe Illustrator 16.0.4, SVG Export Plug-In . SVG Version: 6.00 Build 0)  -->
<!DOCTYPE svg PUBLIC "-//W3C//DTD SVG 1.1//EN" "http://www.w3.org/Graphics/SVG/1.1/DTD/svg11.dtd">
<svg version="1.1" id="Ebene_1" xmlns="http://www.w3.org/2000/svg" xmlns:xlink="http://www.w3.org/1999/xlink" x="0px" y="0px"
	 width="141.732px" height="141.732px" viewBox="0 0 141.732 141.732" enable-background="new 0 0 141.732 141.732"
	 xml:space="preserve">
<g>
	<defs>
		<rect id="SVGID_1_" width="141.732" height="141.732"/>
	</defs>
	<clipPath id="SVGID_2_">
		<use xlink:href="#SVGID_1_"  overflow="visible"/>
	</clipPath>
	
		<rect x="1" y="44.37" clip-path="url(#SVGID_2_)" fill="none" stroke="#000000" stroke-width="2" width="139.732" height="69.016"/>
	<path clip-path="url(#SVGID_2_)" fill="none" stroke="#000000" stroke-width="2" d="M2.411,113.385h136.911
		c-22.817-22.866-45.638-45.734-68.455-68.6C48.049,67.651,25.229,90.519,2.411,113.385z"/>
	<path clip-path="url(#SVGID_2_)" d="M91.417,40.69c2.428,0,4.395-1.967,4.395-4.394c0-2.426-1.967-4.393-4.395-4.393
		c-2.427,0-4.394,1.967-4.394,4.393C87.023,38.723,88.99,40.69,91.417,40.69"/>
	<path clip-path="url(#SVGID_2_)" d="M50.315,40.69c2.427,0,4.394-1.967,4.394-4.394c0-2.426-1.967-4.393-4.394-4.393
		c-2.427,0-4.394,1.967-4.394,4.393C45.921,38.723,47.888,40.69,50.315,40.69"/>
	<path clip-path="url(#SVGID_2_)" fill="none" stroke="#000000" stroke-width="2" d="M84.198,77.97
		c-2.87-2.896-6.835-4.688-11.214-4.688c-8.758,0-15.858,7.165-15.858,16.004c0,8.838,7.1,16.003,15.858,16.003
		c4.38,0,8.344-1.791,11.214-4.687L72.985,89.287L84.198,77.97z"/>
	<line clip-path="url(#SVGID_2_)" fill="none" stroke="#000000" stroke-width="2" x1="0" y1="28.346" x2="141.732" y2="28.346"/>
	<line clip-path="url(#SVGID_2_)" fill="none" stroke="#000000" stroke-width="2" x1="0" y1="113.385" x2="141.732" y2="113.385"/>
</g>
</svg>
