<?xml version="1.0" encoding="UTF-8" standalone="no"?>
<!-- Generator: Adobe Illustrator 16.0.4, SVG Export Plug-In . SVG Version: 6.00 Build 0)  -->

<svg
   xmlns:dc="http://purl.org/dc/elements/1.1/"
   xmlns:cc="http://creativecommons.org/ns#"
   xmlns:rdf="http://www.w3.org/1999/02/22-rdf-syntax-ns#"
   xmlns:svg="http://www.w3.org/2000/svg"
   xmlns="http://www.w3.org/2000/svg"
   xmlns:xlink="http://www.w3.org/1999/xlink"
   xmlns:sodipodi="http://sodipodi.sourceforge.net/DTD/sodipodi-0.dtd"
   xmlns:inkscape="http://www.inkscape.org/namespaces/inkscape"
   version="1.1"
   id="Ebene_1"
   x="0px"
   y="0px"
   width="141.732px"
   height="141.732px"
   viewBox="0 0 141.732 141.732"
   enable-background="new 0 0 141.732 141.732"
   xml:space="preserve"
   sodipodi:docname="THW_FüKW_Führungskraftwagen.svg"
   inkscape:version="0.92.1 r15371"><metadata
     id="metadata329"><rdf:RDF><cc:Work
         rdf:about=""><dc:format>image/svg+xml</dc:format><dc:type
           rdf:resource="http://purl.org/dc/dcmitype/StillImage" /><dc:title></dc:title></cc:Work></rdf:RDF></metadata><defs
     id="defs327"><rect
       height="141.732"
       width="141.732"
       id="SVGID_1_-3" /><rect
       height="141.732"
       width="141.732"
       id="SVGID_3_-2" /></defs><sodipodi:namedview
     pagecolor="#ffffff"
     bordercolor="#666666"
     borderopacity="1"
     objecttolerance="10"
     gridtolerance="10"
     guidetolerance="10"
     inkscape:pageopacity="0"
     inkscape:pageshadow="2"
     inkscape:window-width="1618"
     inkscape:window-height="1027"
     id="namedview325"
     showgrid="false"
     inkscape:zoom="1.6651145"
     inkscape:cx="68.76404"
     inkscape:cy="70.865997"
     inkscape:window-x="-8"
     inkscape:window-y="-8"
     inkscape:window-maximized="1"
     inkscape:current-layer="g353" /><g
     id="g294"><path
       fill="#FFFFFF"
       d="M15.454,58.805c-1.254,1.298-2.75,1.782-4.423,1.782c-1.716,0-3.125-0.616-4.225-1.716   c-1.584-1.584-1.54-3.543-1.54-6.249c0-2.707-0.044-4.665,1.54-6.249c1.1-1.1,2.464-1.716,4.225-1.716   c3.63,0,5.479,2.376,5.897,5.017h-3.081c-0.352-1.474-1.254-2.288-2.816-2.288c-0.836,0-1.518,0.33-1.958,0.836   c-0.594,0.66-0.749,1.386-0.749,4.401c0,3.014,0.154,3.762,0.749,4.422c0.44,0.506,1.122,0.814,1.958,0.814   c0.924,0,1.672-0.33,2.178-0.88c0.506-0.572,0.704-1.276,0.704-2.09v-0.594h-2.882v-2.552h5.919v2.289   C16.95,56.297,16.554,57.661,15.454,58.805z"
       id="path286" /><path
       fill="#FFFFFF"
       d="M33.208,60.456h-2.552l-2.882-9.505l-2.882,9.505h-2.553L18.158,44.79h3.19l2.42,9.879l2.86-9.879h2.289   l2.86,9.879l2.442-9.879h3.19L33.208,60.456z"
       id="path288" /><path
       fill="#FFFFFF"
       d="M38.838,55.505v-2.663h6.777v2.663H38.838z"
       id="path290" /><path
       fill="#FFFFFF"
       d="M58.398,58.805c-1.254,1.298-2.75,1.782-4.423,1.782c-1.716,0-3.125-0.616-4.225-1.716   c-1.584-1.584-1.54-3.543-1.54-6.249c0-2.707-0.044-4.665,1.54-6.249c1.1-1.1,2.464-1.716,4.225-1.716   c3.63,0,5.479,2.376,5.897,5.017h-3.081c-0.352-1.474-1.254-2.288-2.816-2.288c-0.836,0-1.518,0.33-1.958,0.836   c-0.594,0.66-0.748,1.386-0.748,4.401c0,3.014,0.154,3.762,0.748,4.422c0.44,0.506,1.123,0.814,1.958,0.814   c0.924,0,1.672-0.33,2.178-0.88c0.506-0.572,0.704-1.276,0.704-2.09v-0.594h-2.882v-2.552h5.919v2.289   C59.894,56.297,59.498,57.661,58.398,58.805z"
       id="path292" /></g><line
     fill="none"
     stroke="#FFFFFF"
     stroke-width="2"
     x1="85.463"
     y1="54.53"
     x2="116.408"
     y2="85.475"
     id="line296" /><g
     id="g306"><defs
       id="defs299"><rect
         id="SVGID_3_"
         width="141.732"
         height="141.732" /></defs><clipPath
       id="SVGID_4_"><use
         xlink:href="#SVGID_3_"
         overflow="visible"
         id="use301" /></clipPath><path
       clip-path="url(#SVGID_4_)"
       fill="#FFFFFF"
       d="M82.921,63.511c2.979,0,5.395-2.415,5.395-5.394s-2.415-5.393-5.395-5.393   c-2.979,0-5.394,2.414-5.394,5.393S79.942,63.511,82.921,63.511"
       id="path304" /></g><line
     fill="none"
     stroke="#FFFFFF"
     stroke-width="2"
     x1="109.18"
     y1="54.53"
     x2="78.235"
     y2="85.475"
     id="line308" /><g
     id="g322"><defs
       id="defs311"><rect
         id="SVGID_5_"
         width="141.732"
         height="141.732" /></defs><clipPath
       id="SVGID_6_"><use
         xlink:href="#SVGID_5_"
         overflow="visible"
         id="use313" /></clipPath><path
       clip-path="url(#SVGID_6_)"
       fill="#FFFFFF"
       d="M111.722,63.511c-2.979,0-5.394-2.415-5.394-5.394s2.415-5.393,5.394-5.393   c2.979,0,5.395,2.414,5.395,5.393S114.701,63.511,111.722,63.511"
       id="path316" /><line
       clip-path="url(#SVGID_6_)"
       fill="none"
       stroke="#000000"
       stroke-width="2"
       x1="0"
       y1="28.346"
       x2="141.732"
       y2="28.346"
       id="line318" /><line
       clip-path="url(#SVGID_6_)"
       fill="none"
       stroke="#000000"
       stroke-width="2"
       x1="0"
       y1="113.385"
       x2="141.732"
       y2="113.385"
       id="line320" /></g><g
     id="g422"
     transform="translate(0.24563,1.06179)"><g
       id="g353"><defs
         id="defs332"><rect
           height="141.73199"
           width="141.73199"
           id="rect392"
           x="0"
           y="0" /></defs><clipPath
         id="SVGID_2_-3"><use
           id="use334"
           overflow="visible"
           xlink:href="#SVGID_1_-3"
           style="overflow:visible"
           x="0"
           y="0"
           width="100%"
           height="100%" /></clipPath><path
         id="path337"
         d="M 0,29.764 V 99.78 H 141.732 V 29.764 C 124.833,36.552 99.364,40.875 70.866,40.875 42.369,40.875 16.899,36.552 0,29.764"
         clip-path="url(#SVGID_2_-3)"
         inkscape:connector-curvature="0"
         style="fill:#27509b" /><path
         id="path339"
         d="M 5.668,94.109 V 37.806 c 17.735,5.648 40.687,8.738 65.198,8.738 24.511,0 47.462,-3.09 65.196,-8.738 V 94.109 Z M 2.834,96.944 H 138.897 V 33.862 c -17.7,6.282 -42.178,9.847 -68.031,9.847 -25.854,0 -50.332,-3.565 -68.032,-9.847 z"
         clip-path="url(#SVGID_2_-3)"
         inkscape:connector-curvature="0"
         style="fill:#ffffff" /><path
         id="path341"
         d="m 17.5,110.834 c 2.427,0 4.394,-1.967 4.394,-4.395 0,-2.426 -1.967,-4.393 -4.394,-4.393 -2.427,0 -4.394,1.967 -4.394,4.393 0,2.429 1.967,4.395 4.394,4.395"
         clip-path="url(#SVGID_2_-3)"
         inkscape:connector-curvature="0"
         style="fill:#ffffff" /><circle
         id="circle343"
         r="4.3940001"
         cy="106.441"
         cx="17.5"
         clip-path="url(#SVGID_2_-3)"
         style="fill:none;stroke:#000000;stroke-width:2" /><path
         id="path345"
         d="m 70.866,110.834 c 2.427,0 4.394,-1.967 4.394,-4.395 0,-2.426 -1.967,-4.393 -4.394,-4.393 -2.427,0 -4.394,1.967 -4.394,4.393 0,2.429 1.967,4.395 4.394,4.395"
         clip-path="url(#SVGID_2_-3)"
         inkscape:connector-curvature="0"
         style="fill:#ffffff" /><path
         id="path349"
         d="m 124.232,110.834 c 2.427,0 4.394,-1.967 4.394,-4.395 0,-2.426 -1.967,-4.393 -4.394,-4.393 -2.427,0 -4.395,1.967 -4.395,4.393 10e-4,2.429 1.969,4.395 4.395,4.395"
         clip-path="url(#SVGID_2_-3)"
         inkscape:connector-curvature="0"
         style="fill:#ffffff" /><circle
         id="circle351"
         r="4.3940001"
         cy="106.441"
         cx="124.232"
         clip-path="url(#SVGID_2_-3)"
         style="fill:none;stroke:#000000;stroke-width:2" /><text
         xml:space="preserve"
         style="font-style:normal;font-weight:normal;font-size:40px;line-height:1.25;font-family:sans-serif;letter-spacing:0px;word-spacing:0px;fill:#ffffff;fill-opacity:1;stroke:none"
         x="10.343742"
         y="78.033058"
         id="text440"><tspan
           sodipodi:role="line"
           id="tspan438"
           x="10.343742"
           y="78.033058"
           style="font-size:29.33333397px;fill:#ffffff;fill-opacity:1">FüKW </tspan></text>
<text
         xml:space="preserve"
         style="font-style:normal;font-weight:normal;font-size:40px;line-height:1.25;font-family:sans-serif;letter-spacing:0px;word-spacing:0px;fill:#ffffff;fill-opacity:1;stroke:none;"
         x="100.77954"
         y="85.234177"
         id="text444"><tspan
           sodipodi:role="line"
           id="tspan442"
           x="100.77954"
           y="85.234177"
           style="font-size:10.66666698px;fill:#ffffff;fill-opacity:1;">THW</tspan></text>
</g><g
       id="g381"><defs
         id="defs372"><rect
           height="141.73199"
           width="141.73199"
           id="rect414"
           x="0"
           y="0" /></defs><clipPath
         id="SVGID_4_-6"><use
           id="use374"
           overflow="visible"
           xlink:href="#SVGID_3_-2"
           style="overflow:visible"
           x="0"
           y="0"
           width="100%"
           height="100%" /></clipPath><line
         id="line377"
         y2="28.346001"
         x2="141.73199"
         y1="28.346001"
         x1="0"
         clip-path="url(#SVGID_4_-6)"
         style="fill:none;stroke:#000000;stroke-width:2" /><line
         id="line379"
         y2="113.385"
         x2="141.73199"
         y1="113.385"
         x1="0"
         clip-path="url(#SVGID_4_-6)"
         style="fill:none;stroke:#000000;stroke-width:2" /></g><text
       xml:space="preserve"
       style="font-style:normal;font-weight:normal;font-size:40px;line-height:1.25;font-family:sans-serif;letter-spacing:0px;word-spacing:0px;fill:#000000;fill-opacity:1;stroke:none"
       x="79.586998"
       y="73.531998"
       id="text428"><tspan
         sodipodi:role="line"
         id="tspan426"
         x="79.586998"
         y="108.92262" /></text>
<text
       xml:space="preserve"
       style="font-style:normal;font-weight:normal;font-size:40px;line-height:1.25;font-family:sans-serif;letter-spacing:0px;word-spacing:0px;fill:#000000;fill-opacity:1;stroke:none"
       x="86.549004"
       y="80.416"
       id="text432"><tspan
         sodipodi:role="line"
         id="tspan430"
         x="86.549004"
         y="80.416"> </tspan></text>
</g></svg>