<?xml version="1.0" encoding="utf-8"?>
<!-- Generator: Adobe Illustrator 16.0.4, SVG Export Plug-In . SVG Version: 6.00 Build 0)  -->
<!DOCTYPE svg PUBLIC "-//W3C//DTD SVG 1.1//EN" "http://www.w3.org/Graphics/SVG/1.1/DTD/svg11.dtd">
<svg version="1.1" id="Ebene_1" xmlns="http://www.w3.org/2000/svg" xmlns:xlink="http://www.w3.org/1999/xlink" x="0px" y="0px"
	 width="141.732px" height="141.732px" viewBox="0 0 141.732 141.732" enable-background="new 0 0 141.732 141.732"
	 xml:space="preserve">
<rect x="1.5" y="29.847" fill="#27509B" width="138.732" height="82.039"/>
<g>
	<defs>
		<rect id="SVGID_1_" width="141.732" height="141.732"/>
	</defs>
	<clipPath id="SVGID_2_">
		<use xlink:href="#SVGID_1_"  overflow="visible"/>
	</clipPath>
	
		<rect x="1.5" y="29.847" clip-path="url(#SVGID_2_)" fill="none" stroke="#27509B" stroke-width="3" width="138.732" height="82.039"/>
</g>
<polygon fill="#27509B" points="4.252,34.016 4.252,107.716 4.252,109.133 5.669,109.133 136.063,109.133 137.48,109.133 
	137.48,107.716 137.48,34.016 137.48,32.599 136.063,32.599 5.669,32.599 4.252,32.599 "/>
<g>
	<defs>
		<rect id="SVGID_3_" width="141.732" height="141.732"/>
	</defs>
	<clipPath id="SVGID_4_">
		<use xlink:href="#SVGID_3_"  overflow="visible"/>
	</clipPath>
	<polygon clip-path="url(#SVGID_4_)" fill="none" stroke="#FFFFFF" stroke-width="2.835" points="4.252,34.016 4.252,107.716 
		4.252,109.133 5.669,109.133 136.063,109.133 137.48,109.133 137.48,107.716 137.48,34.016 137.48,32.599 136.063,32.599 
		5.669,32.599 4.252,32.599 	"/>
</g>
<g>
	<path fill="#FFFFFF" d="M110.149,103.119v1.763h-3.706v-1.763h0.828v-5.014h-0.792v1.163h-1.535v-2.914h6.74v2.914h-1.523v-1.163
		h-0.791v5.014H110.149z"/>
	<path fill="#FFFFFF" d="M113.404,98.105h-0.828v-1.751h3.694v1.751h-0.768v1.547h2.507v-1.547h-0.779v-1.751h3.705v1.751h-0.839
		v5.014h0.839v1.763h-3.705v-1.763h0.779v-1.716h-2.507v1.716h0.779v1.763h-3.706v-1.763h0.828V98.105z"/>
	<path fill="#FFFFFF" d="M123.999,104.881l-1.822-6.776h-0.66v-1.751h3.442v1.751h-0.708l0.84,3.479l1.224-5.229h1.847l1.211,5.361
		l0.852-3.61h-0.72v-1.751h3.442v1.751h-0.659l-1.823,6.776h-1.919l-1.308-5.301l-1.319,5.301H123.999z"/>
</g>
<g>
	<defs>
		<rect id="SVGID_5_" width="141.732" height="141.732"/>
	</defs>
	<clipPath id="SVGID_6_">
		<use xlink:href="#SVGID_5_"  overflow="visible"/>
	</clipPath>
	<line clip-path="url(#SVGID_6_)" fill="none" stroke="#000000" stroke-width="2" x1="0" y1="28.346" x2="141.732" y2="28.346"/>
	<line clip-path="url(#SVGID_6_)" fill="none" stroke="#000000" stroke-width="2" x1="0" y1="113.385" x2="141.732" y2="113.385"/>
</g>
</svg>
