<?xml version="1.0" encoding="UTF-8" standalone="no"?>
<!-- Generator: Adobe Illustrator 16.0.4, SVG Export Plug-In . SVG Version: 6.00 Build 0)  -->

<svg
   xmlns:dc="http://purl.org/dc/elements/1.1/"
   xmlns:cc="http://creativecommons.org/ns#"
   xmlns:rdf="http://www.w3.org/1999/02/22-rdf-syntax-ns#"
   xmlns:svg="http://www.w3.org/2000/svg"
   xmlns="http://www.w3.org/2000/svg"
   xmlns:xlink="http://www.w3.org/1999/xlink"
   xmlns:sodipodi="http://sodipodi.sourceforge.net/DTD/sodipodi-0.dtd"
   xmlns:inkscape="http://www.inkscape.org/namespaces/inkscape"
   version="1.1"
   id="Ebene_1"
   x="0px"
   y="0px"
   width="141.732px"
   height="141.732px"
   viewBox="0 0 141.732 141.732"
   enable-background="new 0 0 141.732 141.732"
   xml:space="preserve"
   sodipodi:docname="THW_Anhaenger_FuFe_Funk und Fernmeldeanhänger.svg"
   inkscape:version="0.92.1 r15371"><metadata
     id="metadata1339"><rdf:RDF><cc:Work
         rdf:about=""><dc:format>image/svg+xml</dc:format><dc:type
           rdf:resource="http://purl.org/dc/dcmitype/StillImage" /><dc:title></dc:title></cc:Work></rdf:RDF></metadata><defs
     id="defs1337" /><sodipodi:namedview
     pagecolor="#ffffff"
     bordercolor="#666666"
     borderopacity="1"
     objecttolerance="10"
     gridtolerance="10"
     guidetolerance="10"
     inkscape:pageopacity="0"
     inkscape:pageshadow="2"
     inkscape:window-width="1618"
     inkscape:window-height="1027"
     id="namedview1335"
     showgrid="false"
     inkscape:snap-text-baseline="false"
     inkscape:snap-page="true"
     inkscape:snap-midpoints="true"
     inkscape:snap-smooth-nodes="true"
     inkscape:object-nodes="false"
     inkscape:snap-intersection-paths="true"
     inkscape:snap-nodes="false"
     inkscape:zoom="5.856123"
     inkscape:cx="70.865997"
     inkscape:cy="84.863524"
     inkscape:window-x="-8"
     inkscape:window-y="-8"
     inkscape:window-maximized="1"
     inkscape:current-layer="Ebene_1" /><g
     id="g1304"><defs
       id="defs1295"><rect
         id="SVGID_1_"
         width="141.732"
         height="141.732" /></defs><clipPath
       id="SVGID_2_"><use
         xlink:href="#SVGID_1_"
         overflow="visible"
         id="use1297" /></clipPath><path
       clip-path="url(#SVGID_2_)"
       fill="#27509B"
       d="M12.756,37.93l-0.001,68.936h123.307l0.001-68.936   c-16.84,5.569-38.534,8.615-61.653,8.615C51.292,46.544,29.597,43.499,12.756,37.93"
       id="path1300" /><path
       clip-path="url(#SVGID_2_)"
       fill="#27509B"
       d="M138.897,109.7H9.921V33.934c16.825,6.237,40.01,9.776,64.489,9.776   s47.663-3.539,64.487-9.776V109.7z M7.087,73.985H2.834V72.5h4.253V73.985z M74.41,40.875c-27.073,0-51.269-4.323-67.323-11.111   v39.902H0v7.153h7.088l-0.001,35.716h134.646V29.764C125.679,36.552,101.481,40.875,74.41,40.875"
       id="path1302" /></g><g
     id="g1312"
     style="fill:#ffffff;fill-opacity:1"><path
       fill="#FFFFFF"
       d="M110.149,102.41v1.763h-3.706v-1.763h0.828v-5.014h-0.792v1.163h-1.535v-2.914h6.74v2.914h-1.523v-1.163   h-0.791v5.014H110.149z"
       id="path1306"
       style="fill:#ffffff;fill-opacity:1" /><path
       fill="#FFFFFF"
       d="M113.404,97.396h-0.828v-1.751h3.694v1.751h-0.768v1.547h2.507v-1.547h-0.779v-1.751h3.705v1.751h-0.839   v5.014h0.839v1.763h-3.705v-1.763h0.779v-1.716h-2.507v1.716h0.779v1.763h-3.706v-1.763h0.828V97.396z"
       id="path1308"
       style="fill:#ffffff;fill-opacity:1" /><path
       fill="#FFFFFF"
       d="M123.999,104.172l-1.822-6.776h-0.66v-1.751h3.442v1.751h-0.708l0.84,3.479l1.224-5.229h1.847l1.211,5.361   l0.852-3.61h-0.72v-1.751h3.442v1.751h-0.659l-1.823,6.776h-1.919l-1.308-5.301l-1.319,5.301H123.999z"
       id="path1310"
       style="fill:#ffffff;fill-opacity:1" /></g><g
     id="g1332"><defs
       id="defs1323"><rect
         id="SVGID_3_"
         width="141.732"
         height="141.732" /></defs><clipPath
       id="SVGID_4_"><use
         xlink:href="#SVGID_3_"
         overflow="visible"
         id="use1325" /></clipPath><line
       clip-path="url(#SVGID_4_)"
       fill="none"
       stroke="#000000"
       stroke-width="2"
       x1="0"
       y1="27.929"
       x2="141.732"
       y2="27.929"
       id="line1328" /><line
       clip-path="url(#SVGID_4_)"
       fill="none"
       stroke="#000000"
       stroke-width="2"
       x1="0"
       y1="113.385"
       x2="141.732"
       y2="113.385"
       id="line1330" /></g><text
     xml:space="preserve"
     style="font-style:normal;font-weight:normal;font-size:40px;line-height:1.25;font-family:sans-serif;letter-spacing:0px;word-spacing:0px;fill:#000000;fill-opacity:1;stroke:none"
     x="73.768944"
     y="70.012192"
     id="text1343"><tspan
       sodipodi:role="line"
       id="tspan1341"
       x="73.768944"
       y="70.012192"> </tspan></text>
<text
     xml:space="preserve"
     style="font-style:normal;font-weight:normal;font-size:40px;line-height:1.25;font-family:sans-serif;letter-spacing:0px;word-spacing:0px;fill:#000000;fill-opacity:1;stroke:none"
     x="17.588428"
     y="84.977867"
     id="text1347"><tspan
       sodipodi:role="line"
       id="tspan1345"
       x="17.588428"
       y="84.977867">FuFe</tspan></text>
<path
     style="fill:#ffffff;fill-opacity:0;stroke-width:0.17076144"
     d="M 21.515941,70.358624 V 55.843901 h 8.367311 8.36731 v 1.622234 1.622234 h -6.403554 -6.403554 v 4.354417 4.354416 h 5.720509 5.720508 v 1.622234 1.622234 h -5.720508 -5.720509 v 6.915838 6.915838 h -1.963756 -1.963757 z"
     id="path1349"
     inkscape:connector-curvature="0" /><path
     style="fill:#f9f9f9;fill-opacity:1;stroke-width:0.17076144"
     d="M 21.515941,70.358624 V 55.843901 h 8.367311 8.36731 v 1.622234 1.622234 h -6.403554 -6.403554 v 4.354417 4.354416 h 5.720509 5.720508 v 1.622234 1.622234 h -5.720508 -5.720509 v 6.915838 6.915838 h -1.963756 -1.963757 z"
     id="path5021"
     inkscape:connector-curvature="0" /><path
     style="fill:#f9f9f9;fill-opacity:1;stroke-width:0.17076144"
     d="m 48.410868,85.382156 c -3.910893,-0.417555 -5.988648,-2.89947 -6.410437,-7.657381 -0.08856,-0.999022 -0.161666,-4.678793 -0.162451,-8.177268 l -0.0014,-6.360864 h 1.792995 1.792995 l 0.0027,7.300052 c 0.002,5.466721 0.05967,7.542242 0.229654,8.264418 0.628104,2.668546 2.408272,3.91763 5.244451,3.679855 3.03574,-0.254507 5.10389,-2.249024 5.612469,-5.412648 0.100816,-0.627129 0.178995,-3.876882 0.179724,-7.470813 l 0.0013,-6.360864 h 1.707614 1.707615 v 10.843352 10.843351 h -1.707615 -1.707614 v -1.622233 c 0,-0.967649 -0.0689,-1.622234 -0.170762,-1.622234 -0.09392,0 -0.170761,0.07246 -0.170761,0.161028 0,0.08857 -0.428886,0.624276 -0.95308,1.190468 -1.752094,1.892471 -4.123366,2.707556 -6.987327,2.401781 z"
     id="path5023"
     inkscape:connector-curvature="0" /><path
     style="fill:#f9f9f9;fill-opacity:1;stroke-width:0.17076144"
     d="M 67.792291,70.358624 V 55.843901 h 8.367311 8.36731 v 1.622234 1.622234 h -6.403554 -6.403553 v 4.354417 4.354416 h 5.720508 5.720508 v 1.622234 1.622234 h -5.720508 -5.720508 v 6.915838 6.915838 h -1.963757 -1.963757 z"
     id="path5025"
     inkscape:connector-curvature="0" /><path
     style="fill:#f9f9f9;fill-opacity:1;stroke-width:0.17076144"
     d="m 96.669718,85.358725 c -4.741295,-0.41412 -8.181323,-3.293537 -9.352223,-7.828121 -0.425337,-1.647215 -0.377819,-5.291707 0.09205,-7.059611 0.567605,-2.135664 1.302686,-3.445421 2.751258,-4.90215 2.00176,-2.013032 4.193825,-2.884897 7.269932,-2.891519 3.004105,-0.0065 5.115265,0.793924 6.844755,2.595011 1.87586,1.953516 2.60095,3.872461 2.74456,7.263497 l 0.0958,2.262589 h -8.245468 -8.245459 l 0.100715,1.07853 c 0.268427,2.874517 1.892118,5.151356 4.362421,6.117253 1.184963,0.463325 4.356191,0.631198 6.128521,0.324421 1.26203,-0.218445 3.34414,-0.887201 4.36292,-1.401331 l 0.64662,-0.326317 -0.049,1.660341 -0.049,1.660341 -1.41033,0.475628 c -2.58232,0.870875 -5.360397,1.206198 -8.048177,0.971438 z m 6.853112,-14.186036 c -0.0958,-2.132912 -1.49118,-4.274448 -3.32512,-5.103286 -1.259694,-0.569311 -4.011759,-0.572553 -5.450229,-0.0064 -2.138244,0.841539 -3.564862,2.801456 -3.967283,5.450337 l -0.110567,0.727792 6.448591,-0.04475 6.448588,-0.04475 z"
     id="path5027"
     inkscape:connector-curvature="0" /></svg>