<?xml version="1.0" encoding="utf-8"?>
<!-- Generator: Adobe Illustrator 16.0.4, SVG Export Plug-In . SVG Version: 6.00 Build 0)  -->
<!DOCTYPE svg PUBLIC "-//W3C//DTD SVG 1.1//EN" "http://www.w3.org/Graphics/SVG/1.1/DTD/svg11.dtd">
<svg version="1.1" id="Ebene_1" xmlns="http://www.w3.org/2000/svg" xmlns:xlink="http://www.w3.org/1999/xlink" x="0px" y="0px"
	 width="141.732px" height="141.732px" viewBox="0 0 141.732 141.732" enable-background="new 0 0 141.732 141.732"
	 xml:space="preserve">
<rect y="42.246" fill="#27509B" width="141.732" height="71.14"/>
<polygon fill="#27509B" points="4.252,47.915 4.252,106.716 4.252,108.133 5.669,108.133 136.063,108.133 137.48,108.133 
	137.48,106.716 137.48,47.915 137.48,46.498 136.063,46.498 5.669,46.498 4.252,46.498 "/>
<g>
	<defs>
		<rect id="SVGID_1_" width="141.732" height="141.732"/>
	</defs>
	<clipPath id="SVGID_2_">
		<use xlink:href="#SVGID_1_"  overflow="visible"/>
	</clipPath>
	<polygon clip-path="url(#SVGID_2_)" fill="none" stroke="#FFFFFF" stroke-width="2.835" points="4.252,47.915 4.252,106.716 
		4.252,108.133 5.669,108.133 136.063,108.133 137.48,108.133 137.48,106.716 137.48,47.915 137.48,46.498 136.063,46.498 
		5.669,46.498 4.252,46.498 	"/>
</g>
<g>
	<path fill="#FFFFFF" d="M110.149,103.119v1.763h-3.706v-1.763h0.828v-5.014h-0.792v1.163h-1.535v-2.914h6.74v2.914h-1.523v-1.163
		h-0.791v5.014H110.149z"/>
	<path fill="#FFFFFF" d="M113.404,98.105h-0.828v-1.751h3.694v1.751h-0.768v1.547h2.507v-1.547h-0.779v-1.751h3.705v1.751h-0.839
		v5.014h0.839v1.763h-3.705v-1.763h0.779v-1.716h-2.507v1.716h0.779v1.763h-3.706v-1.763h0.828V98.105z"/>
	<path fill="#FFFFFF" d="M123.999,104.881l-1.822-6.776h-0.66v-1.751h3.442v1.751h-0.708l0.84,3.479l1.224-5.229h1.847l1.211,5.361
		l0.852-3.61h-0.72v-1.751h3.442v1.751h-0.659l-1.823,6.776h-1.919l-1.308-5.301l-1.319,5.301H123.999z"/>
</g>
<g>
	<path fill="#FFFFFF" d="M53.016,76.452v3.968h-8.341v-3.968h1.863V65.168h-1.782v2.618h-3.455v-6.559h15.17v6.559h-3.428v-2.618
		h-1.781v11.283H53.016z"/>
	<path fill="#FFFFFF" d="M68.515,74.238h4.184v6.182H58.365v-4.049l8.692-11.202h-3.752v2.051h-4.211v-5.992H72.51v3.941
		l-8.746,11.31h4.75V74.238z"/>
	<path fill="#FFFFFF" d="M74.97,74.94v-3.887h7.261v3.887H74.97z"/>
	<path fill="#FFFFFF" d="M92.086,76.452v3.968h-7.72v-3.968h1.862V65.168h-1.862v-3.941h7.72c2.213,0,3.968,0.027,5.426,1.053
		c1.646,1.134,2.645,3.131,2.645,5.317c0,2.646-1.35,4.859-3.59,5.939l2.376,2.915h1.809v3.968h-4.157l-5.642-6.883v2.915H92.086z
		 M91.87,70.081c2.349,0,3.481-0.647,3.481-2.294c0-1.728-0.998-2.24-3.266-2.24h-1.134v4.535H91.87z"/>
</g>
<g>
	<defs>
		<rect id="SVGID_3_" width="141.732" height="141.732"/>
	</defs>
	<clipPath id="SVGID_4_">
		<use xlink:href="#SVGID_3_"  overflow="visible"/>
	</clipPath>
	<path clip-path="url(#SVGID_4_)" d="M91.417,39.69c2.428,0,4.395-1.967,4.395-4.394c0-2.426-1.967-4.393-4.395-4.393
		c-2.427,0-4.394,1.967-4.394,4.393C87.023,37.723,88.99,39.69,91.417,39.69"/>
	<path clip-path="url(#SVGID_4_)" d="M50.315,39.69c2.427,0,4.394-1.967,4.394-4.394c0-2.426-1.967-4.393-4.394-4.393
		c-2.427,0-4.394,1.967-4.394,4.393C45.921,37.723,47.888,39.69,50.315,39.69"/>
	<path clip-path="url(#SVGID_4_)" d="M70.866,39.69c2.427,0,4.394-1.967,4.394-4.394c0-2.426-1.967-4.393-4.394-4.393
		c-2.427,0-4.394,1.967-4.394,4.393C66.472,37.723,68.439,39.69,70.866,39.69"/>
	<line clip-path="url(#SVGID_4_)" fill="none" stroke="#000000" stroke-width="2" x1="0" y1="28.346" x2="141.732" y2="28.346"/>
	<line clip-path="url(#SVGID_4_)" fill="none" stroke="#000000" stroke-width="2" x1="0" y1="113.385" x2="141.732" y2="113.385"/>
</g>
</svg>
