<?xml version="1.0" encoding="utf-8"?>
<!-- Generator: Adobe Illustrator 16.0.4, SVG Export Plug-In . SVG Version: 6.00 Build 0)  -->
<!DOCTYPE svg PUBLIC "-//W3C//DTD SVG 1.1//EN" "http://www.w3.org/Graphics/SVG/1.1/DTD/svg11.dtd">
<svg version="1.1" id="Ebene_1" xmlns="http://www.w3.org/2000/svg" xmlns:xlink="http://www.w3.org/1999/xlink" x="0px" y="0px"
	 width="141.732px" height="141.732px" viewBox="0 0 141.732 141.732" enable-background="new 0 0 141.732 141.732"
	 xml:space="preserve">
<g>
	<defs>
		<rect id="SVGID_1_" width="141.732" height="141.732"/>
	</defs>
	<clipPath id="SVGID_2_">
		<use xlink:href="#SVGID_1_"  overflow="visible"/>
	</clipPath>
	<path clip-path="url(#SVGID_2_)" fill="#27509B" d="M0,29.764V99.78h141.732V29.764c-16.899,6.788-42.368,11.111-70.866,11.111
		C42.369,40.875,16.899,36.552,0,29.764"/>
	<path clip-path="url(#SVGID_2_)" fill="#FFFFFF" d="M5.668,94.109V37.806c17.735,5.648,40.687,8.738,65.198,8.738
		s47.462-3.09,65.196-8.738v56.303H5.668z M2.834,96.944h136.063V33.862c-17.7,6.282-42.178,9.847-68.031,9.847
		c-25.854,0-50.332-3.565-68.032-9.847V96.944z"/>
	<path clip-path="url(#SVGID_2_)" fill="#FFFFFF" d="M17.5,110.834c2.427,0,4.394-1.967,4.394-4.395
		c0-2.426-1.967-4.393-4.394-4.393s-4.394,1.967-4.394,4.393C13.106,108.868,15.073,110.834,17.5,110.834"/>
	<circle clip-path="url(#SVGID_2_)" fill="none" stroke="#000000" stroke-width="2" cx="17.5" cy="106.441" r="4.394"/>
	<path clip-path="url(#SVGID_2_)" fill="#FFFFFF" d="M70.866,110.834c2.427,0,4.394-1.967,4.394-4.395
		c0-2.426-1.967-4.393-4.394-4.393c-2.427,0-4.394,1.967-4.394,4.393C66.472,108.868,68.439,110.834,70.866,110.834"/>
	<circle clip-path="url(#SVGID_2_)" fill="none" stroke="#000000" stroke-width="2" cx="70.866" cy="106.441" r="4.394"/>
	<path clip-path="url(#SVGID_2_)" fill="#FFFFFF" d="M124.232,110.834c2.427,0,4.394-1.967,4.394-4.395
		c0-2.426-1.967-4.393-4.394-4.393s-4.395,1.967-4.395,4.393C119.838,108.868,121.806,110.834,124.232,110.834"/>
	<circle clip-path="url(#SVGID_2_)" fill="none" stroke="#000000" stroke-width="2" cx="124.232" cy="106.441" r="4.394"/>
</g>
<g>
	<path fill="#FFFFFF" d="M11.628,76.448h1.863V65.165h-1.863v-3.941h8.422c3.914,0,5.938,1.701,5.938,4.724
		c0,1.998-0.729,3.266-2.402,4.103c2.213,0.675,3.293,2.105,3.293,4.427c0,1.809-0.647,3.401-1.862,4.508
		c-1.404,1.269-3.158,1.431-5.695,1.431h-7.693V76.448z M19.16,68.62c1.754,0,2.591-0.378,2.591-1.512
		c0-1.295-0.648-1.781-2.187-1.781h-1.512v3.293H19.16z M19.646,76.339c1.809,0,2.618-0.459,2.618-1.916
		c0-1.565-0.864-1.943-2.726-1.943h-1.485v3.859H19.646z"/>
	<path fill="#FFFFFF" d="M35.819,76.448v3.968h-7.72v-3.968h1.863V65.165h-1.863v-3.941h7.72c2.213,0,3.968,0.027,5.425,1.053
		c1.647,1.134,2.646,3.131,2.646,5.317c0,2.646-1.35,4.859-3.59,5.939l2.375,2.915h1.809v3.968h-4.157l-5.642-6.883v2.915H35.819z
		 M35.603,70.077c2.348,0,3.482-0.647,3.482-2.294c0-1.728-0.999-2.24-3.266-2.24h-1.134v4.535H35.603z"/>
	<path fill="#FFFFFF" d="M47.619,69.483h-1.809v-3.887h5.614v2.213c1.053-1.674,2.457-2.511,4.319-2.511
		c1.809,0,3.158,0.945,3.914,2.753c1.188-1.835,2.538-2.699,4.373-2.699c2.969,0,4.697,1.971,4.697,5.668v5.479h1.889v3.914h-6.073
		v-8.151c0-2.052-0.486-3.051-2.079-3.051c-1.35,0-2.294,1.107-2.294,3.051v4.237h1.89v3.914h-5.938v-8.151
		c0-2.052-0.513-3.051-2.105-3.051c-1.35,0-2.267,1.107-2.267,3.051v4.237h1.7v3.914h-7.72v-3.914h1.89V69.483z"/>
	<path fill="#FFFFFF" d="M90.221,80.416h-3.672V78.31c-1.511,1.728-3.319,2.456-5.776,2.456c-2.834,0-5.236-1.025-7.126-3.022
		c-1.809-1.917-2.726-4.292-2.726-7.126c0-2.646,1.026-5.075,2.916-6.937c1.89-1.836,4.265-2.808,6.964-2.808
		c2.268,0,4.022,0.621,5.452,2.052V61.25h3.51v6.316h-4.886c-0.945-1.431-2.295-2.187-3.914-2.187c-2.97,0-5.21,2.322-5.21,5.264
		c0,3.158,2.402,5.588,5.021,5.588c1.782,0,3.374-0.972,4.292-2.699h-5.479v-3.833h10.636V80.416z"/>
</g>
<line fill="none" stroke="#FFFFFF" stroke-width="2" x1="99.213" y1="73.701" x2="119.622" y2="73.701"/>
<line fill="none" stroke="#FFFFFF" stroke-width="2" x1="119.622" y1="64.842" x2="119.622" y2="76.535"/>
<line fill="none" stroke="#FFFFFF" stroke-width="2" x1="119.622" y1="76.535" x2="129.472" y2="81.141"/>
<g>
	<defs>
		<rect id="SVGID_3_" width="141.732" height="141.732"/>
	</defs>
	<clipPath id="SVGID_4_">
		<use xlink:href="#SVGID_3_"  overflow="visible"/>
	</clipPath>
	<line clip-path="url(#SVGID_4_)" fill="none" stroke="#000000" stroke-width="2" x1="0" y1="28.346" x2="141.732" y2="28.346"/>
	<line clip-path="url(#SVGID_4_)" fill="none" stroke="#000000" stroke-width="2" x1="0" y1="113.385" x2="141.732" y2="113.385"/>
</g>
</svg>
