<?xml version="1.0" encoding="utf-8"?>
<!-- Generator: Adobe Illustrator 16.0.4, SVG Export Plug-In . SVG Version: 6.00 Build 0)  -->
<!DOCTYPE svg PUBLIC "-//W3C//DTD SVG 1.1//EN" "http://www.w3.org/Graphics/SVG/1.1/DTD/svg11.dtd">
<svg version="1.1" id="Ebene_1" xmlns="http://www.w3.org/2000/svg" xmlns:xlink="http://www.w3.org/1999/xlink" x="0px" y="0px"
	 width="141.732px" height="141.732px" viewBox="0 0 141.732 141.732" enable-background="new 0 0 141.732 141.732"
	 xml:space="preserve">
<rect y="42.246" fill="#27509B" width="141.732" height="71.14"/>
<polygon fill="#27509B" points="4.252,47.915 4.252,106.716 4.252,108.133 5.669,108.133 136.063,108.133 137.48,108.133 
	137.48,106.716 137.48,47.915 137.48,46.498 136.063,46.498 5.669,46.498 4.252,46.498 "/>
<g>
	<defs>
		<rect id="SVGID_1_" width="141.732" height="141.732"/>
	</defs>
	<clipPath id="SVGID_2_">
		<use xlink:href="#SVGID_1_"  overflow="visible"/>
	</clipPath>
	<polygon clip-path="url(#SVGID_2_)" fill="none" stroke="#FFFFFF" stroke-width="2.835" points="4.252,47.915 4.252,106.716 
		4.252,108.133 5.669,108.133 136.063,108.133 137.48,108.133 137.48,106.716 137.48,47.915 137.48,46.498 136.063,46.498 
		5.669,46.498 4.252,46.498 	"/>
</g>
<g>
	<path fill="#FFFFFF" d="M110.149,103.119v1.763h-3.706v-1.763h0.828v-5.014h-0.792v1.163h-1.535v-2.914h6.74v2.914h-1.523v-1.163
		h-0.791v5.014H110.149z"/>
	<path fill="#FFFFFF" d="M113.404,98.105h-0.828v-1.751h3.694v1.751h-0.768v1.547h2.507v-1.547h-0.779v-1.751h3.705v1.751h-0.839
		v5.014h0.839v1.763h-3.705v-1.763h0.779v-1.716h-2.507v1.716h0.779v1.763h-3.706v-1.763h0.828V98.105z"/>
	<path fill="#FFFFFF" d="M123.999,104.881l-1.822-6.776h-0.66v-1.751h3.442v1.751h-0.708l0.84,3.479l1.224-5.229h1.847l1.211,5.361
		l0.852-3.61h-0.72v-1.751h3.442v1.751h-0.659l-1.823,6.776h-1.919l-1.308-5.301l-1.319,5.301H123.999z"/>
</g>
<g>
	<path fill="#FFFFFF" d="M34.233,76.452v3.968h-8.341v-3.968h1.863V65.168h-1.782v2.618h-3.455v-6.559h15.17v6.559H34.26v-2.618
		h-1.781v11.283H34.233z"/>
	<path fill="#FFFFFF" d="M49.732,74.238h4.184v6.182H39.583v-4.049l8.692-11.202h-3.752v2.051h-4.211v-5.992h13.416v3.941
		l-8.746,11.31h4.75V74.238z"/>
	<path fill="#FFFFFF" d="M56.188,74.94v-3.887h7.261v3.887H56.188z"/>
	<path fill="#FFFFFF" d="M71.225,76.452h1.593v3.968h-8.314v-3.968h1.863l4.319-11.283h-1.863v-3.941h7.207l5.83,15.224h1.863v3.968
		h-8.314v-3.968h1.566l-0.486-1.565h-4.724L71.225,76.452z M74.14,66.842l-1.322,4.346h2.672L74.14,66.842z"/>
	<path fill="#FFFFFF" d="M88.99,80.366h-3.725v-6.29h4.372c0.189,1.809,0.756,2.646,1.917,2.646c1.079,0,1.89-0.782,1.89-1.781
		c0-0.621-0.324-1.188-0.837-1.512c-0.891-0.54-2.024-0.81-3.212-1.322c-2.78-1.188-4.157-2.97-4.157-5.372
		c0-3.32,2.564-5.884,5.938-5.884c1.134,0,2.078,0.324,2.996,1.026v-0.54h3.536v5.479h-3.995c-0.216-1.323-0.891-2.024-1.862-2.024
		c-0.945,0-1.646,0.702-1.646,1.539c0,0.702,0.323,1.242,0.837,1.512c1.214,0.621,2.591,0.864,3.778,1.512
		c2.349,1.242,3.51,2.942,3.51,5.156c0,3.455-2.78,6.289-6.074,6.289c-1.133,0-2.186-0.351-3.266-1.053V80.366z"/>
	<path fill="#FFFFFF" d="M102.221,65.168h-1.862v-3.941h8.313v3.941h-1.728v3.482h5.642v-3.482h-1.755v-3.941h8.341v3.941h-1.89
		v11.283h1.89v3.968h-8.341v-3.968h1.755v-3.86h-5.642v3.86h1.755v3.968h-8.341v-3.968h1.862V65.168z"/>
</g>
<g>
	<defs>
		<rect id="SVGID_3_" width="141.732" height="141.732"/>
	</defs>
	<clipPath id="SVGID_4_">
		<use xlink:href="#SVGID_3_"  overflow="visible"/>
	</clipPath>
	<path clip-path="url(#SVGID_4_)" d="M91.417,39.69c2.428,0,4.395-1.967,4.395-4.394c0-2.426-1.967-4.393-4.395-4.393
		c-2.427,0-4.394,1.967-4.394,4.393C87.023,37.723,88.99,39.69,91.417,39.69"/>
	<path clip-path="url(#SVGID_4_)" d="M50.315,39.69c2.427,0,4.394-1.967,4.394-4.394c0-2.426-1.967-4.393-4.394-4.393
		c-2.427,0-4.394,1.967-4.394,4.393C45.921,37.723,47.888,39.69,50.315,39.69"/>
	<path clip-path="url(#SVGID_4_)" d="M70.866,39.69c2.427,0,4.394-1.967,4.394-4.394c0-2.426-1.967-4.393-4.394-4.393
		c-2.427,0-4.394,1.967-4.394,4.393C66.472,37.723,68.439,39.69,70.866,39.69"/>
	<line clip-path="url(#SVGID_4_)" fill="none" stroke="#000000" stroke-width="2" x1="0" y1="28.346" x2="141.732" y2="28.346"/>
	<line clip-path="url(#SVGID_4_)" fill="none" stroke="#000000" stroke-width="2" x1="0" y1="113.385" x2="141.732" y2="113.385"/>
</g>
</svg>
