<?xml version="1.0" encoding="utf-8"?>
<!-- Generator: Adobe Illustrator 16.0.4, SVG Export Plug-In . SVG Version: 6.00 Build 0)  -->
<!DOCTYPE svg PUBLIC "-//W3C//DTD SVG 1.1//EN" "http://www.w3.org/Graphics/SVG/1.1/DTD/svg11.dtd">
<svg version="1.1" id="Ebene_1" xmlns="http://www.w3.org/2000/svg" xmlns:xlink="http://www.w3.org/1999/xlink" x="0px" y="0px"
	 width="141.732px" height="141.732px" viewBox="0 0 141.732 141.732" enable-background="new 0 0 141.732 141.732"
	 xml:space="preserve">
<rect y="42.246" fill="#27509B" width="141.732" height="71.14"/>
<polygon fill="#27509B" points="4.252,47.915 4.252,106.716 4.252,108.133 5.669,108.133 136.063,108.133 137.48,108.133 
	137.48,106.716 137.48,47.915 137.48,46.498 136.063,46.498 5.669,46.498 4.252,46.498 "/>
<g>
	<defs>
		<rect id="SVGID_1_" width="141.732" height="141.732"/>
	</defs>
	<clipPath id="SVGID_2_">
		<use xlink:href="#SVGID_1_"  overflow="visible"/>
	</clipPath>
	<polygon clip-path="url(#SVGID_2_)" fill="none" stroke="#FFFFFF" stroke-width="2.835" points="4.252,47.915 4.252,106.716 
		4.252,108.133 5.669,108.133 136.063,108.133 137.48,108.133 137.48,106.716 137.48,47.915 137.48,46.498 136.063,46.498 
		5.669,46.498 4.252,46.498 	"/>
</g>
<g>
	<path fill="#FFFFFF" d="M110.149,103.119v1.763h-3.706v-1.763h0.828v-5.014h-0.792v1.163h-1.535v-2.914h6.74v2.914h-1.523v-1.163
		h-0.791v5.014H110.149z"/>
	<path fill="#FFFFFF" d="M113.404,98.105h-0.828v-1.751h3.694v1.751h-0.768v1.547h2.507v-1.547h-0.779v-1.751h3.705v1.751h-0.839
		v5.014h0.839v1.763h-3.705v-1.763h0.779v-1.716h-2.507v1.716h0.779v1.763h-3.706v-1.763h0.828V98.105z"/>
	<path fill="#FFFFFF" d="M123.999,104.881l-1.822-6.776h-0.66v-1.751h3.442v1.751h-0.708l0.84,3.479l1.224-5.229h1.847l1.211,5.361
		l0.852-3.61h-0.72v-1.751h3.442v1.751h-0.659l-1.823,6.776h-1.919l-1.308-5.301l-1.319,5.301H123.999z"/>
</g>
<g>
	<path fill="#FFFFFF" d="M51.183,76.452h1.863V65.168h-1.863v-3.941h8.422c3.914,0,5.938,1.701,5.938,4.724
		c0,1.998-0.729,3.266-2.402,4.103c2.213,0.675,3.293,2.105,3.293,4.427c0,1.809-0.647,3.401-1.862,4.508
		c-1.404,1.269-3.158,1.431-5.695,1.431h-7.693V76.452z M58.714,68.624c1.754,0,2.591-0.378,2.591-1.512
		c0-1.295-0.648-1.781-2.187-1.781h-1.512v3.293H58.714z M59.2,76.343c1.809,0,2.618-0.459,2.618-1.916
		c0-1.565-0.864-1.943-2.726-1.943h-1.485v3.859H59.2z"/>
	<path fill="#FFFFFF" d="M76.914,80.419v-4.184c5.642-3.348,8.448-6.533,8.448-9.232c0-1.35-0.729-2.132-1.889-2.132
		c-1.188,0-1.971,0.999-1.971,2.753c0,0.135,0.026,0.297,0.026,0.432h-4.724c0-0.054,0-0.081,0-0.135
		c0-4.265,2.78-7.072,6.829-7.072c4.05,0,6.587,2.321,6.587,5.804c0,2.834-2.376,6.181-7.126,9.852h3.185v-1.215h3.914v5.129H76.914
		z"/>
</g>
<g>
	<defs>
		<rect id="SVGID_3_" width="141.732" height="141.732"/>
	</defs>
	<clipPath id="SVGID_4_">
		<use xlink:href="#SVGID_3_"  overflow="visible"/>
	</clipPath>
	<path clip-path="url(#SVGID_4_)" d="M91.417,39.69c2.428,0,4.395-1.967,4.395-4.394c0-2.426-1.967-4.393-4.395-4.393
		c-2.427,0-4.394,1.967-4.394,4.393C87.023,37.723,88.99,39.69,91.417,39.69"/>
	<path clip-path="url(#SVGID_4_)" d="M50.315,39.69c2.427,0,4.394-1.967,4.394-4.394c0-2.426-1.967-4.393-4.394-4.393
		c-2.427,0-4.394,1.967-4.394,4.393C45.921,37.723,47.888,39.69,50.315,39.69"/>
	<line clip-path="url(#SVGID_4_)" fill="none" stroke="#000000" stroke-width="2" x1="0" y1="28.346" x2="141.732" y2="28.346"/>
	<line clip-path="url(#SVGID_4_)" fill="none" stroke="#000000" stroke-width="2" x1="0" y1="113.385" x2="141.732" y2="113.385"/>
</g>
</svg>
