<?xml version="1.0" encoding="UTF-8" standalone="no"?>
<!-- Generator: Adobe Illustrator 16.0.4, SVG Export Plug-In . SVG Version: 6.00 Build 0)  -->

<svg
   xmlns:dc="http://purl.org/dc/elements/1.1/"
   xmlns:cc="http://creativecommons.org/ns#"
   xmlns:rdf="http://www.w3.org/1999/02/22-rdf-syntax-ns#"
   xmlns:svg="http://www.w3.org/2000/svg"
   xmlns="http://www.w3.org/2000/svg"
   xmlns:xlink="http://www.w3.org/1999/xlink"
   xmlns:sodipodi="http://sodipodi.sourceforge.net/DTD/sodipodi-0.dtd"
   xmlns:inkscape="http://www.inkscape.org/namespaces/inkscape"
   version="1.1"
   id="Ebene_1"
   x="0px"
   y="0px"
   width="141.732px"
   height="141.732px"
   viewBox="0 0 141.732 141.732"
   enable-background="new 0 0 141.732 141.732"
   xml:space="preserve"
   sodipodi:docname="THW_Anhaenger_Tieflader.svg"
   inkscape:version="0.92.1 r15371"><metadata
     id="metadata1339"><rdf:RDF><cc:Work
         rdf:about=""><dc:format>image/svg+xml</dc:format><dc:type
           rdf:resource="http://purl.org/dc/dcmitype/StillImage" /><dc:title></dc:title></cc:Work></rdf:RDF></metadata><defs
     id="defs1337" /><sodipodi:namedview
     pagecolor="#ffffff"
     bordercolor="#666666"
     borderopacity="1"
     objecttolerance="10"
     gridtolerance="10"
     guidetolerance="10"
     inkscape:pageopacity="0"
     inkscape:pageshadow="2"
     inkscape:window-width="1618"
     inkscape:window-height="1027"
     id="namedview1335"
     showgrid="false"
     inkscape:snap-text-baseline="false"
     inkscape:snap-page="true"
     inkscape:snap-midpoints="true"
     inkscape:snap-smooth-nodes="true"
     inkscape:object-nodes="false"
     inkscape:snap-intersection-paths="true"
     inkscape:snap-nodes="false"
     inkscape:zoom="2.9274221"
     inkscape:cx="70.865997"
     inkscape:cy="84.863524"
     inkscape:window-x="-8"
     inkscape:window-y="-8"
     inkscape:window-maximized="1"
     inkscape:current-layer="Ebene_1" /><g
     id="g1304"><defs
       id="defs1295"><rect
         id="SVGID_1_"
         width="141.732"
         height="141.732" /></defs><clipPath
       id="SVGID_2_"><use
         xlink:href="#SVGID_1_"
         overflow="visible"
         id="use1297" /></clipPath><path
       clip-path="url(#SVGID_2_)"
       fill="#27509B"
       d="M12.756,37.93l-0.001,68.936h123.307l0.001-68.936   c-16.84,5.569-38.534,8.615-61.653,8.615C51.292,46.544,29.597,43.499,12.756,37.93"
       id="path1300" /><path
       clip-path="url(#SVGID_2_)"
       fill="#27509B"
       d="M138.897,109.7H9.921V33.934c16.825,6.237,40.01,9.776,64.489,9.776   s47.663-3.539,64.487-9.776V109.7z M7.087,73.985H2.834V72.5h4.253V73.985z M74.41,40.875c-27.073,0-51.269-4.323-67.323-11.111   v39.902H0v7.153h7.088l-0.001,35.716h134.646V29.764C125.679,36.552,101.481,40.875,74.41,40.875"
       id="path1302" /></g><g
     id="g1312"
     style="fill:#ffffff;fill-opacity:1"><path
       fill="#FFFFFF"
       d="M110.149,102.41v1.763h-3.706v-1.763h0.828v-5.014h-0.792v1.163h-1.535v-2.914h6.74v2.914h-1.523v-1.163   h-0.791v5.014H110.149z"
       id="path1306"
       style="fill:#ffffff;fill-opacity:1" /><path
       fill="#FFFFFF"
       d="M113.404,97.396h-0.828v-1.751h3.694v1.751h-0.768v1.547h2.507v-1.547h-0.779v-1.751h3.705v1.751h-0.839   v5.014h0.839v1.763h-3.705v-1.763h0.779v-1.716h-2.507v1.716h0.779v1.763h-3.706v-1.763h0.828V97.396z"
       id="path1308"
       style="fill:#ffffff;fill-opacity:1" /><path
       fill="#FFFFFF"
       d="M123.999,104.172l-1.822-6.776h-0.66v-1.751h3.442v1.751h-0.708l0.84,3.479l1.224-5.229h1.847l1.211,5.361   l0.852-3.61h-0.72v-1.751h3.442v1.751h-0.659l-1.823,6.776h-1.919l-1.308-5.301l-1.319,5.301H123.999z"
       id="path1310"
       style="fill:#ffffff;fill-opacity:1" /></g><g
     id="g1332"><defs
       id="defs1323"><rect
         id="SVGID_3_"
         width="141.732"
         height="141.732" /></defs><clipPath
       id="SVGID_4_"><use
         xlink:href="#SVGID_3_"
         overflow="visible"
         id="use1325" /></clipPath><line
       clip-path="url(#SVGID_4_)"
       fill="none"
       stroke="#000000"
       stroke-width="2"
       x1="0"
       y1="27.929"
       x2="141.732"
       y2="27.929"
       id="line1328" /><line
       clip-path="url(#SVGID_4_)"
       fill="none"
       stroke="#000000"
       stroke-width="2"
       x1="0"
       y1="113.385"
       x2="141.732"
       y2="113.385"
       id="line1330" /></g><text
     xml:space="preserve"
     style="font-style:normal;font-weight:normal;font-size:40px;line-height:1.25;font-family:sans-serif;letter-spacing:0px;word-spacing:0px;fill:#000000;fill-opacity:1;stroke:none"
     x="73.768944"
     y="70.012192"
     id="text1343"><tspan
       sodipodi:role="line"
       id="tspan1341"
       x="73.768944"
       y="70.012192"> </tspan></text>
<path
     style="fill:#ffffff;fill-opacity:0;stroke-width:0.17076144"
     d="M 21.515941,70.358624 V 55.843901 h 8.367311 8.36731 v 1.622234 1.622234 h -6.403554 -6.403554 v 4.354417 4.354416 h 5.720509 5.720508 v 1.622234 1.622234 h -5.720508 -5.720509 v 6.915838 6.915838 h -1.963756 -1.963757 z"
     id="path1349"
     inkscape:connector-curvature="0" /><text
     xml:space="preserve"
     style="font-style:normal;font-weight:normal;font-size:40px;line-height:1.25;font-family:sans-serif;letter-spacing:0px;word-spacing:0px;fill:#000000;fill-opacity:1;stroke:none"
     x="19.696995"
     y="76.779007"
     id="text5031"><tspan
       sodipodi:role="line"
       id="tspan5029"
       x="19.696995"
       y="76.779007"
       style="font-size:24px">Tieflader</tspan></text>
<text
     xml:space="preserve"
     style="font-style:normal;font-weight:normal;font-size:40px;line-height:1.25;font-family:sans-serif;letter-spacing:0px;word-spacing:0px;fill:#000000;fill-opacity:1;stroke:none"
     x="-71.735474"
     y="-44.438629"
     id="text5035"><tspan
       sodipodi:role="line"
       id="tspan5033"
       x="-71.735474"
       y="-44.438629"> </tspan></text>
<path
     style="fill:#f9f9f9;fill-opacity:1;stroke-width:0.34159747"
     d="m 26.037741,68.909781 -0.09181,-7.771342 -3.159777,-0.09822 c -3.103265,-0.09646 -3.159777,-0.113263 -3.159777,-0.939394 V 59.25965 h 7.344346 7.344346 v 0.853994 c 0,0.847668 -0.02277,0.853994 -3.074377,0.853994 h -3.074378 v 7.856742 7.856742 h -1.018379 -1.018379 z"
     id="path5037"
     inkscape:connector-curvature="0" /><path
     style="fill:#f9f9f9;fill-opacity:1;stroke-width:0.34159747"
     d="M 36.023054,70.190772 V 63.70042 h 1.024793 1.024792 v 6.490352 6.490352 h -1.024792 -1.024793 z"
     id="path5039"
     inkscape:connector-curvature="0" /><path
     style="fill:#f9f9f9;fill-opacity:1;stroke-width:0.34159747"
     d="m 45.811595,76.546159 c -2.727632,-1.017618 -3.98626,-3.000005 -3.973881,-6.259016 0.01714,-4.513843 3.142956,-7.437218 7.216371,-6.749019 2.455013,0.414771 4.099893,2.361906 4.537813,5.371657 l 0.236087,1.622588 h -4.974094 -4.974095 v 0.870958 c 0,1.29841 0.906921,2.808116 2.038404,3.393229 1.225021,0.633483 4.172198,0.648979 5.903738,0.03104 1.252068,-0.446828 1.28099,-0.438586 1.28099,0.365046 0,0.580239 -0.273175,0.926056 -0.928283,1.175128 -1.618066,0.615188 -4.942438,0.708386 -6.36305,0.178389 z m 5.797692,-8.490371 C 51.310265,66.494673 49.64694,65.06681 48.127412,65.06681 c -1.609922,0 -3.095118,0.811765 -3.729437,2.038403 -1.030695,1.993144 -0.917392,2.060766 3.452892,2.060766 h 3.971071 z"
     id="path5041"
     inkscape:connector-curvature="0" /><path
     style="fill:#f9f9f9;fill-opacity:1;stroke-width:0.34159747"
     d="m 36.023054,59.772049 c 0,-1.100703 0.08133,-1.195591 1.024793,-1.195591 0.94346,0 1.024792,0.09489 1.024792,1.195591 0,1.100703 -0.08133,1.195591 -1.024792,1.195591 -0.94346,0 -1.024793,-0.09489 -1.024793,-1.195591 z"
     id="path5043"
     inkscape:connector-curvature="0" /><path
     style="fill:#f9f9f9;fill-opacity:1;stroke-width:0.34159747"
     d="M 57.808153,70.959366 57.714493,65.237608 56.7751,65.129519 c -0.663637,-0.07636 -0.939393,-0.301978 -0.939393,-0.768594 0,-0.506163 0.239466,-0.660505 1.024793,-0.660505 0.955577,0 1.025132,-0.08652 1.029828,-1.280991 0.01179,-2.998851 1.377551,-3.793628 6.570716,-3.823691 l 3.330575,-0.01928 v 9.052333 9.052333 h -1.024792 -1.024793 v -8.19834 -8.198339 h -2.542611 c -2.240221,0 -2.605853,0.09029 -3.074377,0.759202 -0.292472,0.417562 -0.531766,1.186156 -0.531766,1.707988 0,0.922311 0.05242,0.948785 1.878786,0.948785 1.634251,0 1.878786,0.0866 1.878786,0.665343 0,0.561793 -0.279112,0.681413 -1.793387,0.768594 l -1.793387,0.103251 -0.09366,5.721758 -0.09366,5.721758 h -0.837475 -0.837475 z"
     id="path5045"
     inkscape:connector-curvature="0" /><path
     style="fill:#f9f9f9;fill-opacity:1;stroke-width:0.34159747"
     d="m 74.069602,76.531873 c -1.49573,-0.650977 -2.178812,-1.782227 -2.178812,-3.608321 0,-2.894956 1.487134,-3.973179 5.953503,-4.316491 1.610417,-0.123787 2.928031,-0.348875 2.928031,-0.500196 0,-0.777859 -0.926168,-2.123365 -1.757527,-2.553277 -1.167854,-0.603921 -3.467002,-0.603761 -5.159822,3.58e-4 -1.241939,0.443213 -1.28099,0.43315 -1.28099,-0.330099 0,-1.036197 1.805122,-1.671425 4.705351,-1.655827 2.468158,0.01327 3.641401,0.662741 4.602649,2.547864 0.482777,0.946785 0.597367,2.071655 0.597796,5.868275 l 5.31e-4,4.696965 h -0.853994 c -0.683195,0 -0.853994,-0.170799 -0.853994,-0.853994 0,-0.987752 -0.399163,-1.095611 -1.068365,-0.288682 -1.133617,1.366924 -3.725977,1.823998 -5.634357,0.993425 z m 4.958532,-2.093089 c 0.928042,-0.780897 1.736988,-2.571275 1.742285,-3.856069 0.0015,-0.361926 -0.63383,-0.435942 -2.93188,-0.341565 -2.593194,0.106497 -3.009593,0.214102 -3.586774,0.92689 -0.845951,1.044706 -0.827659,2.124514 0.055,3.246633 0.989537,1.257992 3.241318,1.269491 4.721369,0.02411 z"
     id="path5047"
     inkscape:connector-curvature="0" /><path
     style="fill:#f9f9f9;fill-opacity:1;stroke-width:0.34159747"
     d="m 89.824657,76.693351 c -1.091128,-0.456874 -2.254139,-1.717919 -2.812508,-3.049583 -0.632672,-1.508869 -0.698864,-4.887408 -0.129222,-6.595698 0.498859,-1.496021 2.308324,-3.191761 3.741766,-3.506598 1.463645,-0.32147 3.658782,0.369395 4.47641,1.408841 l 0.70151,0.891826 v -3.63284 -3.632841 h 1.024793 1.024792 v 9.052333 9.052333 h -1.024792 c -0.883193,0 -1.024793,-0.126228 -1.024793,-0.913539 v -0.913539 l -0.768594,0.719986 c -1.40207,1.313397 -3.611879,1.788212 -5.209362,1.119319 z m 4.195912,-1.91175 c 1.207112,-0.845494 1.782044,-2.326611 1.782044,-4.590829 0,-4.11396 -2.420383,-6.186288 -5.416019,-4.637185 -2.531852,1.309272 -2.725002,7.541441 -0.286659,9.249323 0.95033,0.665637 2.95544,0.654739 3.920634,-0.02131 z"
     id="path5049"
     inkscape:connector-curvature="0" /><path
     style="fill:#f9f9f9;fill-opacity:1;stroke-width:0.34159747"
     d="m 105.59115,76.546159 c -2.8374,-1.058571 -4.20704,-3.54678 -3.88815,-7.063538 0.34439,-3.79803 2.47727,-5.877923 6.05553,-5.905095 3.34156,-0.02537 5.19349,1.665328 5.65777,5.165216 l 0.2374,1.789627 h -5.04187 -5.04187 l 0.20366,1.280991 c 0.13753,0.865078 0.59405,1.641448 1.40607,2.391182 1.08042,0.997557 1.41198,1.110192 3.26799,1.110192 1.13606,0 2.59865,-0.222735 3.25019,-0.494966 1.1659,-0.487144 1.18462,-0.481612 1.18462,0.350052 0,0.605072 -0.26359,0.945236 -0.92829,1.197951 -1.61806,0.615188 -4.94243,0.708386 -6.36305,0.178388 z m 5.92495,-8.096068 c 0,-1.030414 -1.00445,-2.581156 -1.95132,-3.012576 -2.03238,-0.926016 -4.6277,-0.03469 -5.41994,1.861395 -0.26702,0.639062 -0.48548,1.320587 -0.48548,1.5145 0,0.221922 1.45569,0.352569 3.92837,0.352569 3.76044,0 3.92837,-0.0306 3.92837,-0.715888 z"
     id="path5051"
     inkscape:connector-curvature="0" /><path
     style="fill:#f9f9f9;fill-opacity:1;stroke-width:0.34159747"
     d="m 124.5634,64.554413 c 0.007,-0.563635 0.0835,-0.752858 0.17013,-0.420495 0.0866,0.332363 0.0809,0.79352 -0.0127,1.024792 -0.0936,0.231273 -0.16444,-0.04066 -0.15747,-0.604297 z"
     id="path5053"
     inkscape:connector-curvature="0" /><path
     style="fill:#f9f9f9;fill-opacity:1;stroke-width:0.34159747"
     d="M 117.32325,70.190772 V 63.70042 h 0.854 c 0.72748,0 0.85399,0.157053 0.85399,1.060179 v 1.060179 l 1.15565,-1.014668 c 1.12849,-0.990828 3.30338,-1.687439 3.97412,-1.272898 0.18469,0.11414 0.33579,0.544323 0.33579,0.955962 0,0.65728 -0.18387,0.748434 -1.50967,0.748434 -1.12784,0 -1.73275,0.209574 -2.3917,0.828628 -1.21736,1.14365 -1.56006,2.666622 -1.56228,6.942715 l -0.002,3.672173 h -0.85399 -0.854 z"
     id="path5055"
     inkscape:connector-curvature="0" /></svg>