<?xml version="1.0" encoding="utf-8"?>
<!-- Generator: Adobe Illustrator 16.0.4, SVG Export Plug-In . SVG Version: 6.00 Build 0)  -->
<!DOCTYPE svg PUBLIC "-//W3C//DTD SVG 1.1//EN" "http://www.w3.org/Graphics/SVG/1.1/DTD/svg11.dtd">
<svg version="1.1" id="Ebene_1" xmlns="http://www.w3.org/2000/svg" xmlns:xlink="http://www.w3.org/1999/xlink" x="0px" y="0px"
	 width="141.732px" height="141.732px" viewBox="0 0 141.732 141.732" enable-background="new 0 0 141.732 141.732"
	 xml:space="preserve">
<g>
	<defs>
		<rect id="SVGID_1_" width="141.732" height="141.732"/>
	</defs>
	<clipPath id="SVGID_2_">
		<use xlink:href="#SVGID_1_"  overflow="visible"/>
	</clipPath>
	<path clip-path="url(#SVGID_2_)" fill="#27509B" d="M12.756,37.93l-0.001,68.936h123.307l0.001-68.936
		c-16.84,5.569-38.534,8.615-61.653,8.615C51.292,46.544,29.597,43.499,12.756,37.93"/>
	<path clip-path="url(#SVGID_2_)" fill="#27509B" d="M138.897,109.7H9.921V33.934c16.825,6.237,40.01,9.776,64.489,9.776
		s47.663-3.539,64.487-9.776V109.7z M7.087,73.985H2.834V72.5h4.253V73.985z M74.41,40.875c-27.073,0-51.269-4.323-67.323-11.111
		v39.902H0v7.153h7.088l-0.001,35.716h134.646V29.764C125.679,36.552,101.481,40.875,74.41,40.875"/>
</g>
<g>
	<path fill="#FFFFFF" d="M110.149,102.41v1.763h-3.706v-1.763h0.828v-5.014h-0.792v1.163h-1.535v-2.914h6.74v2.914h-1.523v-1.163
		h-0.791v5.014H110.149z"/>
	<path fill="#FFFFFF" d="M113.404,97.396h-0.828v-1.751h3.694v1.751h-0.768v1.547h2.507v-1.547h-0.779v-1.751h3.705v1.751h-0.839
		v5.014h0.839v1.763h-3.705v-1.763h0.779v-1.716h-2.507v1.716h0.779v1.763h-3.706v-1.763h0.828V97.396z"/>
	<path fill="#FFFFFF" d="M123.999,104.172l-1.822-6.776h-0.66v-1.751h3.442v1.751h-0.708l0.84,3.479l1.224-5.229h1.847l1.211,5.361
		l0.852-3.61h-0.72v-1.751h3.442v1.751h-0.659l-1.823,6.776h-1.919l-1.308-5.301l-1.319,5.301H123.999z"/>
</g>
<g>
	<defs>
		<rect id="SVGID_3_" width="141.732" height="141.732"/>
	</defs>
	<clipPath id="SVGID_4_">
		<use xlink:href="#SVGID_3_"  overflow="visible"/>
	</clipPath>
	<line clip-path="url(#SVGID_4_)" fill="none" stroke="#000000" stroke-width="2" x1="0" y1="28.346" x2="141.732" y2="28.346"/>
	<line clip-path="url(#SVGID_4_)" fill="none" stroke="#000000" stroke-width="2" x1="0" y1="113.385" x2="141.732" y2="113.385"/>
</g>
</svg>
