<?xml version="1.0" encoding="UTF-8" standalone="no"?>
<!-- Generator: Adobe Illustrator 16.0.4, SVG Export Plug-In . SVG Version: 6.00 Build 0)  -->

<svg
   xmlns:dc="http://purl.org/dc/elements/1.1/"
   xmlns:cc="http://creativecommons.org/ns#"
   xmlns:rdf="http://www.w3.org/1999/02/22-rdf-syntax-ns#"
   xmlns:svg="http://www.w3.org/2000/svg"
   xmlns="http://www.w3.org/2000/svg"
   xmlns:xlink="http://www.w3.org/1999/xlink"
   xmlns:sodipodi="http://sodipodi.sourceforge.net/DTD/sodipodi-0.dtd"
   xmlns:inkscape="http://www.inkscape.org/namespaces/inkscape"
   version="1.1"
   id="Ebene_1"
   x="0px"
   y="0px"
   width="141.732px"
   height="141.732px"
   viewBox="0 0 141.732 141.732"
   enable-background="new 0 0 141.732 141.732"
   xml:space="preserve"
   inkscape:version="0.91 r13725"
   sodipodi:docname="Untereinsatzabschnittsleiter.svg"><metadata
     id="metadata33"><rdf:RDF><cc:Work
         rdf:about=""><dc:format>image/svg+xml</dc:format><dc:type
           rdf:resource="http://purl.org/dc/dcmitype/StillImage" /><dc:title></dc:title></cc:Work></rdf:RDF></metadata><defs
     id="defs31" /><sodipodi:namedview
     pagecolor="#ffffff"
     bordercolor="#666666"
     borderopacity="1"
     objecttolerance="10"
     gridtolerance="10"
     guidetolerance="10"
     inkscape:pageopacity="0"
     inkscape:pageshadow="2"
     inkscape:window-width="1280"
     inkscape:window-height="1002"
     id="namedview29"
     showgrid="false"
     inkscape:zoom="1.6651145"
     inkscape:cx="70.865997"
     inkscape:cy="70.865997"
     inkscape:window-x="-8"
     inkscape:window-y="-8"
     inkscape:window-maximized="1"
     inkscape:current-layer="Ebene_1" /><g
     id="g3"><defs
       id="defs5"><rect
         id="SVGID_1_"
         width="141.732"
         height="141.732" /></defs><clipPath
       id="SVGID_2_"><use
         xlink:href="#SVGID_1_"
         overflow="visible"
         id="use9" /></clipPath><line
       clip-path="url(#SVGID_2_)"
       fill="none"
       stroke="#000000"
       stroke-width="2"
       x1="0"
       y1="28.346"
       x2="141.732"
       y2="28.346"
       id="line11" /><line
       clip-path="url(#SVGID_2_)"
       fill="none"
       stroke="#000000"
       stroke-width="2"
       x1="0"
       y1="113.385"
       x2="141.732"
       y2="113.385"
       id="line13" /></g><rect
     x="43.512"
     y="43.511"
     transform="matrix(-0.7071 -0.7071 0.7071 -0.7071 70.8663 171.0855)"
     fill="#FFED00"
     width="54.709"
     height="54.71"
     id="rect15" /><rect
     x="43.512"
     y="43.511"
     transform="matrix(-0.7071 -0.7071 0.7071 -0.7071 70.8663 171.0855)"
     fill="none"
     stroke="#000000"
     stroke-width="2"
     width="54.709"
     height="54.71"
     id="rect17" /><polygon
     points="85.456,46.771 70.867,32.182 56.275,46.771 "
     id="polygon19" /><g
     transform="matrix(0.65070085,0,0,0.68936176,24.444689,25.165245)"
     id="g9"><path
       inkscape:connector-curvature="0"
       d="m 39.252,78.42 c -5.181,0 -9.416,-3.5 -9.416,-8.961 l 0,-16.171 6.126,0 0,16.032 c 0,2.311 1.26,3.64 3.29,3.64 2.03,0 3.36,-1.33 3.36,-3.64 l 0,-16.032 6.125,0 0,16.172 c 10e-4,5.46 -4.304,8.96 -9.485,8.96 z"
       id="path11" /><path
       inkscape:connector-curvature="0"
       d="m 53.356,78.21 0,-24.922 16.941,0 0,5.461 -10.815,0 0,4.166 9.241,0 0,5.46 -9.241,0 0,4.375 10.816,0 0,5.461 -16.942,0 z"
       id="path13" /><path
       inkscape:connector-curvature="0"
       d="m 88.567,78.21 -1.155,-3.71 -7.666,0 -1.226,3.71 -6.405,0 9.066,-24.923 4.725,0 9.066,24.923 -6.405,0 z m -4.866,-15.471 -2.24,6.651 4.341,0 -2.101,-6.651 z"
       id="path15" /><path
       inkscape:connector-curvature="0"
       d="m 97.491,78.21 0,-24.922 6.125,0 0,19.462 10.467,0 0,5.461 -16.592,0 z"
       id="path17" /></g></svg>