<?xml version="1.0" encoding="utf-8"?>
<!-- Generator: Adobe Illustrator 16.0.4, SVG Export Plug-In . SVG Version: 6.00 Build 0)  -->
<!DOCTYPE svg PUBLIC "-//W3C//DTD SVG 1.1//EN" "http://www.w3.org/Graphics/SVG/1.1/DTD/svg11.dtd">
<svg version="1.1" id="Ebene_1" xmlns="http://www.w3.org/2000/svg" xmlns:xlink="http://www.w3.org/1999/xlink" x="0px" y="0px"
	 width="141.732px" height="141.732px" viewBox="0 0 141.732 141.732" enable-background="new 0 0 141.732 141.732"
	 xml:space="preserve">
<g>
	<defs>
		<rect id="SVGID_1_" width="141.732" height="141.732"/>
	</defs>
	<clipPath id="SVGID_2_">
		<use xlink:href="#SVGID_1_"  overflow="visible"/>
	</clipPath>
	<line clip-path="url(#SVGID_2_)" fill="none" stroke="#000000" stroke-width="2" x1="0" y1="28.346" x2="141.732" y2="28.346"/>
	<line clip-path="url(#SVGID_2_)" fill="none" stroke="#000000" stroke-width="2" x1="0" y1="113.385" x2="141.732" y2="113.385"/>
</g>
<polygon fill="none" stroke="#C20E1A" stroke-width="2" stroke-miterlimit="10" points="109.415,37.982 70.866,104.75 
	32.318,37.982 "/>
<g>
	<path fill="#C20E1A" d="M28.451,68.5l-4.144,7.84c-0.56,1.04-1.008,2.72-1.008,4.08v1.68h-7.28v-2.399
		c0-3.44,0.672-5.601,2.128-8.32l4.144-7.6c0.896-1.68,1.624-3.6,1.624-5.36c0-3.76-1.736-6.56-4.536-6.56
		c-2.968,0-4.48,2.96-4.48,6.64h-7.28c0-9.92,5.264-16,11.76-16c6.328,0,11.816,5.84,11.816,16
		C31.195,62.5,30.019,65.54,28.451,68.5z M15.795,99.941V89.3h7.728v10.641H15.795z"/>
</g>
</svg>
