<?xml version="1.0" encoding="UTF-8" standalone="no"?>
<!-- Generator: Adobe Illustrator 16.0.4, SVG Export Plug-In . SVG Version: 6.00 Build 0)  -->

<svg
   xmlns:dc="http://purl.org/dc/elements/1.1/"
   xmlns:cc="http://creativecommons.org/ns#"
   xmlns:rdf="http://www.w3.org/1999/02/22-rdf-syntax-ns#"
   xmlns:svg="http://www.w3.org/2000/svg"
   xmlns="http://www.w3.org/2000/svg"
   xmlns:xlink="http://www.w3.org/1999/xlink"
   xmlns:sodipodi="http://sodipodi.sourceforge.net/DTD/sodipodi-0.dtd"
   xmlns:inkscape="http://www.inkscape.org/namespaces/inkscape"
   version="1.1"
   id="Ebene_1"
   x="0px"
   y="0px"
   width="141.732px"
   height="141.732px"
   viewBox="0 0 141.732 141.732"
   enable-background="new 0 0 141.732 141.732"
   xml:space="preserve"
   inkscape:version="0.91 r13725"
   sodipodi:docname="Verpflegungsstelle.svg"><metadata
     id="metadata51"><rdf:RDF><cc:Work
         rdf:about=""><dc:format>image/svg+xml</dc:format><dc:type
           rdf:resource="http://purl.org/dc/dcmitype/StillImage" /><dc:title></dc:title></cc:Work></rdf:RDF></metadata><defs
     id="defs49"><clipPath
       id="SVGID_2_-0"><use
         xlink:href="#SVGID_1_"
         overflow="visible"
         id="use9-9" /></clipPath></defs><sodipodi:namedview
     pagecolor="#ffffff"
     bordercolor="#666666"
     borderopacity="1"
     objecttolerance="10"
     gridtolerance="10"
     guidetolerance="10"
     inkscape:pageopacity="0"
     inkscape:pageshadow="2"
     inkscape:window-width="1280"
     inkscape:window-height="1002"
     id="namedview47"
     showgrid="false"
     inkscape:zoom="1.6651145"
     inkscape:cx="70.865997"
     inkscape:cy="70.865997"
     inkscape:window-x="-8"
     inkscape:window-y="-8"
     inkscape:window-maximized="1"
     inkscape:current-layer="Ebene_1" /><g
     id="g3"><defs
       id="defs5"><rect
         id="SVGID_1_"
         width="141.732"
         height="141.732" /></defs><clipPath
       id="SVGID_2_"><use
         xlink:href="#SVGID_1_"
         overflow="visible"
         id="use9" /></clipPath><path
       clip-path="url(#SVGID_2_)"
       fill="#FFED00"
       d="M70.866,110.075c20.352,0,36.85-16.498,36.85-36.851   c0-20.352-16.498-36.851-36.85-36.851c-20.352,0-36.85,16.499-36.85,36.851C34.016,93.577,50.514,110.075,70.866,110.075"
       id="path11" /><circle
       clip-path="url(#SVGID_2_)"
       fill="none"
       stroke="#000000"
       stroke-width="2"
       cx="70.866"
       cy="73.224"
       r="36.851"
       id="circle13" /></g><g
     id="g17"
     transform="matrix(1,0,0,-1,0,146.04599)"><defs
       id="defs19"><rect
         id="SVGID_3_"
         width="141.73199"
         height="141.73199"
         x="0"
         y="0" /></defs><clipPath
       id="SVGID_4_"><use
         xlink:href="#SVGID_3_"
         overflow="visible"
         id="use23"
         style="overflow:visible"
         x="0"
         y="0"
         width="100%"
         height="100%" /></clipPath><path
       clip-path="url(#SVGID_4_)"
       d="M 98.109,48.472 C 91.368,41.057 81.676,36.374 70.866,36.374 c -10.811,0 -20.503,4.683 -27.244,12.098 l 54.487,0 z"
       id="path25"
       inkscape:connector-curvature="0" /></g><g
     id="g35"><defs
       id="defs37"><rect
         id="SVGID_5_"
         width="141.732"
         height="141.732" /></defs><clipPath
       id="SVGID_6_"><use
         xlink:href="#SVGID_5_"
         overflow="visible"
         id="use41" /></clipPath><line
       clip-path="url(#SVGID_6_)"
       fill="none"
       stroke="#000000"
       stroke-width="2"
       x1="0"
       y1="28.346"
       x2="141.732"
       y2="28.346"
       id="line43" /><line
       clip-path="url(#SVGID_6_)"
       fill="none"
       stroke="#000000"
       stroke-width="2"
       x1="0"
       y1="113.385"
       x2="141.732"
       y2="113.385"
       id="line45" /></g><path
     style="fill:none;stroke:#000000;stroke-width:2"
     clip-path="url(#SVGID_2_-0)"
     d="m 84.198,77.97 c -2.87,-2.896 -6.835,-4.688 -11.214,-4.688 -8.758,0 -15.858,7.165 -15.858,16.004 0,8.838 7.1,16.003 15.858,16.003 4.38,0 8.344,-1.791 11.214,-4.687 L 72.985,89.287 84.198,77.97 Z"
     id="path19"
     inkscape:connector-curvature="0"
     transform="translate(-1.3993752,-18.419498)" /></svg>